<svg xmlns="http://www.w3.org/2000/svg" viewBox="0 0 576.53 510.14"><defs><style>.cls-1{fill:#fff;}.cls-2{stroke:#000;stroke-miterlimit:10;stroke-width:0.5px;}</style></defs><title>bankruptcy</title><g id="Layer_Piggy_bank" data-name="Layer_Piggy bank"><g id="Lower_part" data-name="Lower part"><path class="cls-1" d="M396.45,62.61l-33,99.8-15.29-3-5.61,34.26c-.75.67-1.52,1.33-2.31,2a89.2,89.2,0,0,1-25.58,14.73q.92,6.09,1.8,12.26,3.22,22.64,5.77,44.67l22.62,25.32c-3.15,6.19-6.6,12.59-10.38,19.15q-4.74,8.22-9.5,15.68c2,2,4.81,4.77,8,8.22a183.65,183.65,0,0,1,15.53,18.15,160.38,160.38,0,0,1,11.7,18.76c3.55,6.42,6.25,12.06,8.2,16.42,7.84.55,16.23,1.47,25.06,2.89q7,1.13,13.43,2.5.3,12,.62,24A71.74,71.74,0,0,0,420.14,423a76.71,76.71,0,0,0,32.34,1.15,79.31,79.31,0,0,0,16.2-4.68A82.34,82.34,0,0,0,493.82,426c6.69.63,17.48,1.63,29.64-2.83,15.95-5.86,25-17.73,28.68-23.35,2-8,3.8-16.29,5.36-25a387.37,387.37,0,0,0,4.8-99.21c2.63-10.88,5-22.7,6.87-35.38a393.59,393.59,0,0,0,4.16-60.83,63.75,63.75,0,0,0-2.66-10.86,66.36,66.36,0,0,0-7.46-15.12C545,125,545.7,124.49,535.6,110.73c-3.56-4.85-8.54-11.45-14.77-19.12q-7.35-11.2-14.72-22.41l-22,16.91L452.35,53.27,438.23,73.06Z"/><path class="cls-2" d="M346.26,294.47c-.38.28-5.57-6.29-12.52-13.88s-13-13.37-12.68-13.72S328,271.8,335,279.49,346.61,294.23,346.26,294.47Z"/><path class="cls-2" d="M342.55,193.73a13.16,13.16,0,0,1-2.46,2.51,68.15,68.15,0,0,1-7.61,5.84,78.45,78.45,0,0,1-12.54,6.78,9.11,9.11,0,0,0-3.22,1.84c-.74.79-.73,2-.53,3.44q.57,4.32,1.17,8.9c1.57,12.19,2.91,23.24,3.79,31.25.45,4,.78,7.25,1,9.5a14.68,14.68,0,0,1,.13,3.51,14.59,14.59,0,0,1-.76-3.43c-.39-2.22-.89-5.45-1.48-9.43-1.18-8-2.69-19-4.27-31.19-.39-3.05-.76-6-1.13-8.91a9.42,9.42,0,0,1-.08-2.33,4.15,4.15,0,0,1,1-2.34,10.18,10.18,0,0,1,3.8-2.2,86,86,0,0,0,12.5-6.36C338.66,196.89,342.37,193.51,342.55,193.73Z"/><path class="cls-2" d="M365.36,162.48c0,.21-2.81.13-7.26-.46-2.22-.29-4.86-.73-7.77-1.33l-1.45-.3c-.05.05,0,.2-.05.29l-.13,1.11c-.19,1.59-.4,3.25-.65,4.94-1,6.77-2.21,12.84-3.25,17.2s-1.9,7-2.11,6.94.22-2.78,1-7.18,1.8-10.46,2.76-17.19q.36-2.53.69-4.92c.06-.42.11-.84.17-1.26l.13-1,.06-.5c0-.14,0-.43.21-.3l3,.72c2.86.67,5.45,1.22,7.64,1.65C362.66,161.76,365.39,162.24,365.36,162.48Z"/><path class="cls-2" d="M396.35,64.63a20.47,20.47,0,0,1-.92,4c-.69,2.52-1.75,6.15-3.11,10.61-2.71,8.93-6.61,21.22-11.15,34.72s-8.84,25.66-12.08,34.41c-1.62,4.38-3,7.91-3.93,10.33a19,19,0,0,1-1.66,3.71,19.33,19.33,0,0,1,1.06-3.92c.79-2.49,2-6.08,3.44-10.5l11.63-34.55c4.53-13.49,8.62-25.7,11.59-34.55,1.5-4.42,2.73-8,3.6-10.45A18.84,18.84,0,0,1,396.35,64.63Z"/><ellipse class="cls-2" cx="419.32" cy="68.39" rx="0.82" ry="21.7" transform="translate(259.14 461.9) rotate(-77.11)"/><path class="cls-2" d="M484.93,87.09c-.18.15-2.91-2.74-7.34-7.4S467,68.64,460,61.77l-4.2-4.1-3.35-3.23-5.13,7.14-4.51,6.16c-2.56,3.42-4.14,5.4-4.28,5.29s1.16-2.26,3.49-5.84l4.23-6.36c.81-1.21,1.68-2.49,2.59-3.83l3.36-4.91L457,56.51c1.38,1.32,2.8,2.69,4.22,4.1,7,6.89,13.05,13.44,17.27,18.31S485.09,87,484.93,87.09Z"/><path class="cls-2" d="M535.72,115.15c-.2.12-2.59-3.55-6.46-9.46S520,91.63,513.83,82.79l-4.54-6.42-2.18-3.05-1-1.44c-.32-.43-.67-.68-.86-.67s-.59.22-1,.59l-1.35,1-2.58,1.94-4.64,3.45c-2.85,2.1-5.17,3.78-6.8,4.91a11,11,0,0,1-2.62,1.62c-.07-.09.73-.84,2.24-2.13s3.72-3.1,6.48-5.32l4.52-3.61,2.53-2,1.32-1a7.06,7.06,0,0,1,.77-.56,2.32,2.32,0,0,1,1.22-.36,2.21,2.21,0,0,1,1.24.45,4.63,4.63,0,0,1,.77.76c.41.53.74,1,1.11,1.49l2.22,3c1.5,2.06,3,4.22,4.58,6.43,6.19,8.87,11.44,17.13,15.06,23.22,1.82,3,3.23,5.53,4.18,7.27A11.41,11.41,0,0,1,535.72,115.15Z"/><path class="cls-2" d="M536.52,116.1c-.07.24-3.21-.49-8.31-1.46-2.55-.49-5.59-1-9-1.48s-7.14-.87-11.08-1.16-7.71-.39-11.14-.42-6.51.07-9.1.19c-5.19.24-8.4.52-8.43.27s3.14-.88,8.34-1.42c2.61-.27,5.72-.46,9.18-.54s7.27,0,11.26.29,7.77.76,11.19,1.31,6.47,1.19,9,1.83C533.54,114.78,536.57,115.91,536.52,116.1Z"/><path class="cls-2" d="M478.09,116.89c-.43-.13-.5-1.18-.15-2.35s1-2,1.41-1.88.5,1.18.15,2.35S478.52,117,478.09,116.89Z"/><path class="cls-2" d="M481.33,112.66a.69.69,0,1,1-.61-1.22.69.69,0,1,1,.61,1.22Z"/><path class="cls-2" d="M529.59,193.72a16.34,16.34,0,0,1-1.73-3.37c-1-2.2-2.5-5.39-4.37-9.3a314,314,0,0,0-16.31-29.66c-3.5-5.61-7-10.83-10.35-15.49s-6.47-8.75-9.1-12.22a70.24,70.24,0,0,1-5.74-8.6,12.56,12.56,0,0,1-1.54-3.47,24.67,24.67,0,0,1,2.08,3.14,99.08,99.08,0,0,0,6.11,8.22c2.73,3.36,6,7.4,9.41,12s7,9.88,10.52,15.52a245.3,245.3,0,0,1,16,30c1.74,4,3.06,7.26,3.9,9.54A17.31,17.31,0,0,1,529.59,193.72Z"/><path class="cls-2" d="M526,195.21a14.94,14.94,0,0,1-1.62-3.22c-1-2.1-2.33-5.15-4.09-8.88a267.51,267.51,0,0,0-15.55-28.2c-3.37-5.31-6.78-10.24-10-14.63s-6.33-8.19-8.83-11.52a46.29,46.29,0,0,1-5.18-8.39,10.39,10.39,0,0,1-1.15-3.44,27.27,27.27,0,0,1,1.71,3.15,56.71,56.71,0,0,0,5.53,8c2.59,3.2,5.83,6.94,9.12,11.33s6.79,9.31,10.19,14.66a211.08,211.08,0,0,1,15.22,28.59c1.63,3.81,2.85,6.94,3.63,9.12A15.94,15.94,0,0,1,526,195.21Z"/><path class="cls-2" d="M516.51,211.6c-.4-.21,1.32-4.18,3.83-8.87s4.86-8.31,5.26-8.1-1.32,4.18-3.83,8.87S516.91,211.81,516.51,211.6Z"/><path class="cls-2" d="M518.74,215.75c-.4-.21,1.62-5,4.52-10.63s5.56-10.1,6-9.89-1.62,5-4.51,10.63S519.15,216,518.74,215.75Z"/><path class="cls-2" d="M519.36,214.12c-.36.33-5.14-4.56-12-9.39s-13-7.81-12.78-8.25,6.76,1.92,13.73,6.92S519.68,213.86,519.36,214.12Z"/><path class="cls-2" d="M499.49,260.7c-.25,0,0-3.7.2-9.62.09-3,.1-6.49,0-10.4s-.37-8.2-.81-12.7-1.09-8.74-1.75-12.6-1.4-7.3-2.09-10.18c-1.35-5.77-2.37-9.31-2.13-9.39s1.6,3.36,3.25,9.1c.83,2.87,1.67,6.32,2.45,10.2s1.42,8.17,1.89,12.71.65,8.88.7,12.83-.12,7.51-.36,10.49C500.38,257.09,499.68,260.73,499.49,260.7Z"/><path class="cls-2" d="M494.58,195.67c.11.44-.89,1.06-2.23,1.4s-2.51.25-2.62-.19.89-1.06,2.23-1.4S494.47,195.23,494.58,195.67Z"/><path class="cls-2" d="M495.29,258.9c-.26,0,0-3.44,0-8.94,0-2.75-.08-6-.29-9.66s-.57-7.62-1.05-11.8c-.95-8.36-2.1-15.91-2.78-21.4s-1-8.9-.8-8.94.95,3.32,1.94,8.76,2.3,13,3.26,21.4c.48,4.21.79,8.23.93,11.91s.08,7-.06,9.76C496.17,255.55,495.48,258.93,495.29,258.9Z"/><path class="cls-2" d="M353.56,166.28c-.33.31-1.87-.8-3.44-2.48s-2.57-3.28-2.24-3.59,1.87.8,3.43,2.48S353.89,166,353.56,166.28Z"/><path class="cls-2" d="M346.24,195c-.44-.08.46-6.32,2-13.94s3.17-13.71,3.61-13.61-.47,6.34-2,13.94S346.68,195.08,346.24,195Z"/><path class="cls-2" d="M320.43,212.69c-.17.42-1.59.24-3.17-.39s-2.73-1.48-2.56-1.89,1.58-.25,3.16.38S320.59,212.27,320.43,212.69Z"/><path class="cls-2" d="M345.45,195.84c.2.07-.48,1.84-2.71,3.66a35.4,35.4,0,0,1-4,2.79c-1.55,1-3.26,2-5.06,3.08-7.23,4.29-13.27,7.44-13.5,7s5.45-4.17,12.66-8.45c1.8-1.07,3.53-2.07,5.11-3s3-1.69,4.11-2.43C344.3,197.11,345.24,195.71,345.45,195.84Z"/><path class="cls-2" d="M323.93,268.79c-.23,0-.5-3-.84-7.77l-1.33-18.74c-.59-7.31-1.13-13.93-1.52-18.73s-.57-7.78-.35-7.81.81,2.9,1.5,7.68,1.44,11.4,2,18.73.81,14,.85,18.83S324.15,268.79,323.93,268.79Z"/><path class="cls-2" d="M498,261.57c-.09.21-3.3-1-8.46-3s-12.27-4.76-20.35-7.06a114.73,114.73,0,0,0-11.51-2.59c-1.8-.23-3.5-.53-5.11-.64-.8-.07-1.58-.16-2.32-.21l-2.15-.1c-5.49-.19-8.9.23-8.93,0a6.93,6.93,0,0,1,2.36-.57l1.28-.2c.47-.06,1-.09,1.54-.14,1.1-.08,2.36-.21,3.76-.19h2.19c.77,0,1.56.08,2.38.12,1.64.06,3.38.31,5.22.51a95.08,95.08,0,0,1,11.74,2.5A151.61,151.61,0,0,1,490,257.52C495.08,259.8,498.13,261.37,498,261.57Z"/><path class="cls-2" d="M448.13,311.83c-.22,0-.81-3.54-1.66-9.32s-2-13.77-3.21-22.58-2.41-16.8-3.24-22.58-1.24-9.38-1-9.42,1.06,3.49,2.16,9.23,2.45,13.7,3.71,22.54,2.2,16.85,2.75,22.67S448.35,311.8,448.13,311.83Z"/><path class="cls-2" d="M439.24,248.34c.22.4-.23,1.06-1,1.48s-1.55.44-1.77.05.22-1.06,1-1.48S439,248,439.24,248.34Z"/><path class="cls-2" d="M443.11,305.23c-.44,0-2.32-12.32-4.18-27.63s-3-27.77-2.56-27.82,2.32,12.31,4.18,27.62S443.56,305.17,443.11,305.23Z"/><path class="cls-2" d="M448.15,310.94c-.26.37-3.11-1.23-6.36-3.56s-5.67-4.52-5.41-4.88,3.11,1.22,6.36,3.56S448.41,310.57,448.15,310.94Z"/><path class="cls-2" d="M431.92,322.24c-.44-.08,0-4.57,1-10s2.13-9.83,2.57-9.75,0,4.57-1,10S432.37,322.32,431.92,322.24Z"/><path class="cls-2" d="M435.46,303c0,.45-1.16.81-2.55.51s-2.32-1.1-2.14-1.5,1.26-.35,2.47-.1S435.47,302.5,435.46,303Z"/><path class="cls-2" d="M427.66,320.81c-.44-.05-.29-4.1.34-9s1.52-8.89,2-8.83.3,4.1-.34,9S428.11,320.87,427.66,320.81Z"/><path class="cls-2" d="M405.17,312.88c-.11-.17,1.09-1.27,3.37-2.55a28.21,28.21,0,0,1,4.18-1.9c.82-.29,1.69-.56,2.6-.8a4.76,4.76,0,0,1,.82-.16,2,2,0,0,1,1.12.21,2.83,2.83,0,0,1,.79.65l.48.58c4.94,6.07,8.67,11.23,8.32,11.51s-4.64-4.41-9.58-10.48a4,4,0,0,0-.75-.82c-.07-.06-.36-.06-.81.06-.88.21-1.72.44-2.51.68-1.59.48-3,1-4.16,1.5C406.71,312.34,405.31,313.09,405.17,312.88Z"/><path class="cls-2" d="M417.21,309.71c.2.4-1.78,1.8-4.42,3.14s-5,2.09-5.15,1.69,1.77-1.81,4.42-3.15S417,309.3,417.21,309.71Z"/><path class="cls-2" d="M407.68,315.64c-.17.42-8.24-2.33-18.11-5.9s-17.83-6.63-17.69-7.07,8.35,1.95,18.24,5.54S407.84,315.22,407.68,315.64Z"/><path class="cls-2" d="M363.46,359.82c-.22-.05.31-3.24,1.23-8.37s2.21-12.21,3.51-20.05c.62-3.93,1.22-7.66,1.76-11.07s1-6.46,1.27-9c.56-5.14.14-8.35.39-8.38s1,3.18.76,8.47c-.12,2.63-.5,5.73-.93,9.15s-1,7.19-1.65,11.12c-1.29,7.87-2.77,14.94-4,20S363.68,359.87,363.46,359.82Z"/><path class="cls-2" d="M372,303.31c-.26.38-.88.41-1.5.34s-1.2-.26-1.36-.69.53-1,1.56-.93S372.25,303,372,303.31Z"/><path class="cls-2" d="M359.54,361.3c-.23-.05.25-3.3,1.11-8.53s2.05-12.45,3.36-20.43,2.37-15.21,3.19-20.45,1.37-8.48,1.6-8.45.06,3.31-.46,8.59-1.44,12.57-2.72,20.57-2.68,15.21-3.84,20.39S359.75,361.34,359.54,361.3Z"/><path class="cls-2" d="M325.06,326.2c-.38-.28,4.31-7,9.29-15.75s8.41-16.18,8.85-16-2.36,8-7.44,16.8S325.39,326.47,325.06,326.2Z"/><path class="cls-2" d="M358.57,361.94c-.15.17-2.43-1.41-6-4.11l-2.91-2.23c-1-.82-2.17-1.61-3.33-2.69a9.85,9.85,0,0,1-1.54-1.9c-.44-.68-.82-1.39-1.23-2a25.67,25.67,0,0,0-3-3.82c-4.6-5-8.74-9.65-11.66-13s-5-5.15-4.87-5.33,2.59,1.28,5.72,4.54,7.4,7.68,12,12.74a26.84,26.84,0,0,1,3.11,4.08,16.51,16.51,0,0,0,2.46,3.7c1,1,2.13,1.85,3.12,2.71l2.78,2.38C356.68,359.86,358.71,361.76,358.57,361.94Z"/><path class="cls-2" d="M358.57,358.05c-.14.17-2.3-1.4-5.55-4.24a141.16,141.16,0,0,1-11.95-11.88,150.77,150.77,0,0,1-10.52-13.12,7.29,7.29,0,0,0-2-1.85,4,4,0,0,0-1.88-.57c-1.11,0-1.66.43-1.73.32s.36-.77,1.7-.95a4.23,4.23,0,0,1,2.34.39,7.88,7.88,0,0,1,2.41,1.92c2.78,3.35,6.46,7.91,10.85,12.77C351,350.59,358.89,357.69,358.57,358.05Z"/><path class="cls-2" d="M346.16,295.45c.4.15-2.27,7.79-7,16.53s-9.69,15.15-10,14.9,3.92-7,8.6-15.68S345.72,295.27,346.16,295.45Z"/><path class="cls-2" d="M346.55,294.05c.11.44-.54,1-1.46,1.22s-1.75.06-1.86-.37.54-1,1.46-1.21S346.44,293.62,346.55,294.05Z"/><path class="cls-2" d="M367,387.2c-.46.18-4.09-9-10.36-19.3S344,350.06,344.41,349.74c.16-.14,2,1.56,4.55,4.6A101.18,101.18,0,0,1,365.05,381C366.54,384.74,367.19,387.13,367,387.2Z"/><path class="cls-2" d="M424.59,395.05c0,.21-2.84.42-7.43.25s-10.89-.77-17.81-1.74-13.14-1.93-17.64-2.7-7.28-1.38-7.25-1.6,2.86,0,7.41.45S392.68,391,399.58,392s13.13,1.75,17.66,2.2S424.59,394.81,424.59,395.05Z"/><path class="cls-2" d="M462,378.25c-.17.19-1.08-.43-2.66-1.07a22.33,22.33,0,0,0-2.86-.94c-1.11-.27-2.35-.52-3.67-.76a38.78,38.78,0,0,1-6.84-1.63c-1.72-.66-2.64-1.36-2.54-1.55s1.16.1,2.86.44,4.1.67,6.81,1.14a31.58,31.58,0,0,1,3.8.92,14.41,14.41,0,0,1,3,1.35C461.46,377.14,462.13,378.11,462,378.25Z"/><path class="cls-2" d="M468.67,419.48c-.21.06-1.07-2.24-2.15-6.05s-2.37-9.14-3.43-15.09-1.71-11.39-2-15.34-.29-6.41-.08-6.43c.48,0,1.57,9.66,3.69,21.48S469.13,419.35,468.67,419.48Z"/><path class="cls-2" d="M562.27,272.41a7.24,7.24,0,0,1,.27-1.72c.25-1.11.6-2.74,1.06-4.84.95-4.19,2.24-10.28,3.61-17.84A366.67,366.67,0,0,0,573,188.35a50.09,50.09,0,0,0-2.2-16.66,114.28,114.28,0,0,0-6.43-14.46c-4.58-9.06-9.23-16.95-13.35-23.43s-7.72-11.55-10.24-15l-2.9-4a6.41,6.41,0,0,1-.94-1.46,7.5,7.5,0,0,1,1.19,1.26c.75.85,1.81,2.15,3.16,3.83,2.68,3.38,6.42,8.38,10.7,14.8a246.59,246.59,0,0,1,13.71,23.36,111.1,111.1,0,0,1,6.62,14.65,42.15,42.15,0,0,1,1.88,8.38,69.22,69.22,0,0,1,.43,8.78,331.3,331.3,0,0,1-6.26,59.87c-1.51,7.56-3,13.63-4.12,17.78-.54,2.09-1,3.69-1.36,4.78A6.59,6.59,0,0,1,562.27,272.41Z"/><path class="cls-2" d="M551.56,402.09a29.52,29.52,0,0,1,.88-4.94c.35-1.57.77-3.5,1.21-5.74s1-4.79,1.52-7.62,1.13-5.93,1.68-9.27,1.11-6.9,1.69-10.66c1.07-7.54,2.08-15.84,2.84-24.59s1.14-17.1,1.35-24.71c.07-3.8.16-7.42.13-10.8s0-6.54-.09-9.42-.14-5.48-.21-7.76-.14-4.26-.22-5.87a30.22,30.22,0,0,1,0-5,30.06,30.06,0,0,1,.68,5c.17,1.6.35,3.57.49,5.86s.36,4.89.46,7.78.25,6,.28,9.44,0,7,0,10.84c-.14,7.64-.51,16-1.24,24.82s-1.82,17.12-3,24.67c-.62,3.77-1.19,7.35-1.85,10.68s-1.26,6.44-1.88,9.26-1.23,5.36-1.76,7.59-1,4.14-1.48,5.69A29.05,29.05,0,0,1,551.56,402.09Z"/><path class="cls-2" d="M547.66,404.71a11.27,11.27,0,0,1-1.58,3,33.73,33.73,0,0,1-6.11,7c-5.8,5.32-16,10.35-27.86,11.91a72.95,72.95,0,0,1-30.31-2.34,62.75,62.75,0,0,1-8.66-3.24,12.07,12.07,0,0,1-3-1.64c.12-.28,4.46,1.83,11.93,3.77a82.13,82.13,0,0,0,13.3,2.25,77.47,77.47,0,0,0,16.48-.41c11.62-1.54,21.51-6.23,27.34-11.17a40.16,40.16,0,0,0,6.33-6.48A16.83,16.83,0,0,1,547.66,404.71Z"/><path class="cls-2" d="M467.86,420.13a13.34,13.34,0,0,1-3.1,1.41c-1,.38-2.3.79-3.79,1.28s-3.2.93-5.12,1.31a77.81,77.81,0,0,1-13.68,1.8,82.76,82.76,0,0,1-16.87-1A76.31,76.31,0,0,1,409,420.32a5.61,5.61,0,0,1-1.8-1.23,4.4,4.4,0,0,1-1-1.94,19.9,19.9,0,0,1-.41-3.66c-.13-2.31-.17-4.46-.14-6.42a77.3,77.3,0,0,1,.66-9.25,12.24,12.24,0,0,1,.67-3.34c.27,0-.33,4.83-.17,12.59,0,1.93.14,4.05.33,6.32a20.26,20.26,0,0,0,.44,3.38,3.12,3.12,0,0,0,2.06,2.18,81.43,81.43,0,0,0,16,4.33,88.4,88.4,0,0,0,16.55,1.15,87,87,0,0,0,13.5-1.43C463.25,421.64,467.76,419.83,467.86,420.13Z"/><path class="cls-2" d="M529.26,112.25c-.19.13-1.89-2.11-4.5-5.83s-6.12-8.93-9.91-14.73c-1.9-2.9-3.68-5.68-5.29-8.22l-2.27-3.61a22.84,22.84,0,0,1-1.74-3.4,8.45,8.45,0,0,1-.58-5.53c.44-1.29,1.07-1.76,1.12-1.71s-.29.68-.5,1.86a8.75,8.75,0,0,0,1,4.93,57.23,57.23,0,0,0,4.21,6.64c1.67,2.49,3.5,5.25,5.39,8.15,3.8,5.8,7.15,11.1,9.51,15S529.45,112.13,529.26,112.25Z"/></g><g id="Upper_part" data-name="Upper part"><path class="cls-1" d="M165.7.29a214.66,214.66,0,0,0-35.47,17.29C94.2,39.46,74.32,67.1,65.51,78.11c0,0-22.44,32.16-32.57,72.76a172.77,172.77,0,0,0-3.49,18.84c-.89,7.44-1.92,16.53-.46,28A95.32,95.32,0,0,0,34.26,219L6.07,237a104.76,104.76,0,0,0-3.31,30.36,109.85,109.85,0,0,0,6.75,33.23c3.09,9,6.19,17.77,13.58,27.25,4,5.09,8.53,11,16.68,15.24,11.6,6.1,23,5.07,27.95,4.31a52.53,52.53,0,0,0,4,8.62A53.49,53.49,0,0,0,83.83,370.4l-4.12,2.1c-2.1,3.31-4.94,7.88-8.17,13.42-3.42,5.87-6.11,10.49-8.89,16.14A161.43,161.43,0,0,0,54,423.41a87.76,87.76,0,0,0,18.1,7.85A86.53,86.53,0,0,0,99.83,435a84.44,84.44,0,0,0,19.47-2.93c1.35,1,3.33,2.29,5.81,3.74a91.19,91.19,0,0,0,37.31,11.42,93.68,93.68,0,0,0,30.5-2.31A92.27,92.27,0,0,0,205,441q0-9.37.06-19,.1-11.22.38-22.16c3.62.35,7.5.57,11.61.58a124.26,124.26,0,0,0,26.34-2.78,73.73,73.73,0,0,0,5.38-5.15c4.17-4.43,6.11-7.63,10.88-14,1.53-2.06,3.81-5.06,6.71-8.65a28.76,28.76,0,0,0,21.2-7.51q-1.45-6.15-2.92-12.3,3.39-8,7.08-16.13,7.51-16.57,15.31-31.75l.95-4.64c-2.28-1.84-4.63-3.87-7-6.1a128.28,128.28,0,0,1-11-11.66,38.68,38.68,0,0,1,2.57-9.08c1.24-2.93,2.77-5.48,3.61-9.83a8.55,8.55,0,0,0,0-4.38,9,9,0,0,0-4.19-4.73c-9.16-5.61-18.35-12.19-20.62-13.89a51.33,51.33,0,0,1-10.08-10.09c1.93-7.71,3.41-14.27,4.48-19.28,2.22-10.36,1.47-8.3,2.49-12.25,2.17-8.43,4.13-12.17,3.29-18a22.15,22.15,0,0,0-2-6.41q-5.76-4.65-11.65-9.3-15.67-12.37-31.15-24,1.32-11.31,3.05-23.1c2.19-14.77,4.74-28.91,7.53-42.38l-5-4.45a271,271,0,0,0-33.12-1.29A136.73,136.73,0,0,1,173.44,66c-2-.3-3.6-.59-4.7-.79q.06-9,.27-18.29.5-22.12,1.79-43.14Z"/><path class="cls-2" d="M55.23,206.87c.11.19-2.45,1.94-6.69,4.61s-10.15,6.25-16.73,10.12-12.58,7.3-17,9.72-7.16,3.8-7.27,3.61,2.44-1.94,6.68-4.6S24.4,224.07,31,220.2s12.59-7.31,17-9.72S55.12,206.67,55.23,206.87Z"/><path class="cls-2" d="M65.38,347.43a5.67,5.67,0,0,1-1.43.44,17.86,17.86,0,0,1-1.79.33,21.94,21.94,0,0,1-2.47.27,36.09,36.09,0,0,1-15.55-2.66,44.53,44.53,0,0,1-9.6-5.3,50.76,50.76,0,0,1-4.72-3.9,60.68,60.68,0,0,1-4.47-4.69c-5.78-6.76-10.52-15.39-14.28-24.83a128.24,128.24,0,0,1-7.63-27.6c-.7-4.35-1.14-8.52-1.38-12.43s-.25-7.56-.18-10.89a65.64,65.64,0,0,1,.79-9,35.68,35.68,0,0,1,1.72-6.6,25.14,25.14,0,0,1,1.84-3.89,4.67,4.67,0,0,1,.87-1.22c.14.08-1,1.82-2.11,5.32a38.66,38.66,0,0,0-1.42,6.52A70.32,70.32,0,0,0,3,256.19c0,3.3.1,6.91.38,10.78s.78,8,1.51,12.28a132.66,132.66,0,0,0,7.66,27.23c3.72,9.33,8.34,17.82,13.91,24.47a62,62,0,0,0,4.31,4.62,54.73,54.73,0,0,0,4.54,3.86,44.91,44.91,0,0,0,9.24,5.31,37.35,37.35,0,0,0,15.09,3.09C63.34,347.77,65.35,347.27,65.38,347.43Z"/><path class="cls-2" d="M63.55,272c-.25.1-1.76-4.13-5.18-10.43A88.56,88.56,0,0,0,51.59,251a72.86,72.86,0,0,0-10.27-11.36A42,42,0,0,0,34.94,235,31.53,31.53,0,0,0,28.28,232a24.57,24.57,0,0,0-12.19-.44A20.22,20.22,0,0,0,8.53,235,29.3,29.3,0,0,1,6.1,237a7.43,7.43,0,0,1,2-2.44,18.87,18.87,0,0,1,7.68-4,24.68,24.68,0,0,1,12.88.12,32.66,32.66,0,0,1,7.05,3,42.67,42.67,0,0,1,6.65,4.78,69.17,69.17,0,0,1,10.42,11.7A79.79,79.79,0,0,1,59.4,261a68.15,68.15,0,0,1,3.34,7.92A10.31,10.31,0,0,1,63.55,272Z"/><path class="cls-2" d="M66.16,347.76s.06-.25.31-.61.64-.86,1.06-1.56a25.36,25.36,0,0,0,2.93-6.21,32.71,32.71,0,0,0,1.14-4.61,51.05,51.05,0,0,0,.62-5.43A99.13,99.13,0,0,0,72,316.71c-.61-9-1.78-17.06-2.77-22.88s-1.75-9.41-1.51-9.47,1.35,3.45,2.64,9.25a158.72,158.72,0,0,1,3.27,23,86.67,86.67,0,0,1,.13,12.84,48,48,0,0,1-.78,5.59,32.15,32.15,0,0,1-1.38,4.74A21.54,21.54,0,0,1,68,346a10.59,10.59,0,0,1-1.33,1.41C66.39,347.67,66.2,347.8,66.16,347.76Z"/><path class="cls-2" d="M117,328.59c.1.19-2.61,1.8-7.16,4.08s-11,5.17-18.22,7.92-14,4.85-18.9,6.17a21.25,21.25,0,0,1-6,.82,4.24,4.24,0,0,1-2.21-.42,10.5,10.5,0,0,1,2.19-.21,28.19,28.19,0,0,0,5.75-1.3c4.79-1.58,11.42-3.85,18.63-6.59s13.66-5.45,18.32-7.44S116.88,328.38,117,328.59Z"/><path class="cls-2" d="M83.82,370.39c-.13.16-1.52-.67-3.5-2.37a42.47,42.47,0,0,1-11.57-16.54c-.92-2.44-1.22-4-1-4.1.46-.17,2.68,5.8,7.15,12.13S84.14,370,83.82,370.39Z"/><path class="cls-2" d="M53.9,421.79c-.2-.08.74-3.16,2.66-8a176.87,176.87,0,0,1,8.63-18.39,179.16,179.16,0,0,1,10.62-17.33c3-4.26,5-6.73,5.21-6.61s-1.53,2.85-4.25,7.25-6.4,10.52-10.15,17.46-6.83,13.38-9,18.08S54.12,421.88,53.9,421.79Z"/><path class="cls-2" d="M117.18,431.25c0,.11-.77.5-2.27,1.11l-1.26.49c-.47.17-1,.32-1.53.49-1.11.33-2.36.75-3.79,1l-2.23.5c-.78.16-1.6.26-2.45.4-1.69.3-3.51.42-5.44.59a69,69,0,0,1-12.52-.46,69.09,69.09,0,0,1-12.2-2.89c-1.81-.67-3.54-1.28-5.09-2-.78-.36-1.54-.67-2.25-1l-2-1.07c-1.3-.66-2.39-1.4-3.37-2-.48-.31-.94-.6-1.35-.88l-1.08-.81c-1.29-1-2-1.58-1.9-1.67s3.09,1.83,8.23,4.34l2,1c.7.33,1.47.61,2.24.94,1.54.67,3.25,1.21,5,1.83A76.64,76.64,0,0,0,85.9,433.8a76.59,76.59,0,0,0,12.24.57c1.88-.12,3.67-.19,5.33-.43.84-.11,1.65-.17,2.42-.3l2.2-.39C113.72,432.2,117.08,431,117.18,431.25Z"/><path class="cls-2" d="M124.33,375.88c-.17.19-1.18-.53-2.91-1.47s-4.24-2.05-7-3.42a32.29,32.29,0,0,1-3.84-2.21,14.35,14.35,0,0,1-2.75-2.45c-1.37-1.62-1.72-2.92-1.55-3s.92.92,2.38,2.2a20.09,20.09,0,0,0,2.75,2c1.1.66,2.37,1.32,3.74,2a44.22,44.22,0,0,1,6.93,3.9C123.7,374.68,124.48,375.74,124.33,375.88Z"/><path class="cls-2" d="M119.31,432.07c-.22,0-.2-3.35.1-8.73s.92-12.81,1.86-21,2-15.54,3-20.85,1.66-8.57,1.88-8.53-.11,3.35-.74,8.7-1.52,12.72-2.49,20.87-1.73,15.54-2.33,20.89S119.54,432.09,119.31,432.07Z"/><path class="cls-2" d="M205,441a14.06,14.06,0,0,1-3.17,1.51l-1.73.73c-.65.23-1.36.46-2.13.71-1.52.49-3.25,1.13-5.23,1.57l-3.08.78c-1.08.25-2.22.42-3.39.65-2.33.49-4.87.73-7.54,1a91.05,91.05,0,0,1-34.53-3.42c-2.55-.83-5-1.57-7.19-2.51-1.1-.45-2.19-.84-3.19-1.3l-2.87-1.37c-1.86-.82-3.42-1.78-4.83-2.56-.69-.4-1.35-.76-1.93-1.12l-1.57-1.05a14.77,14.77,0,0,1-2.81-2.11,14.85,14.85,0,0,1,3.14,1.57l1.62.91,2,1c1.43.69,3,1.57,4.87,2.32l2.88,1.25c1,.43,2.08.78,3.18,1.2,2.18.87,4.6,1.55,7.12,2.33a108.28,108.28,0,0,0,16.85,3.19,106.44,106.44,0,0,0,17.15.18c2.62-.27,5.13-.46,7.44-.89,1.16-.19,2.29-.33,3.35-.55l3.07-.66c2-.37,3.7-.92,5.24-1.32l2.14-.58,1.77-.58A14.24,14.24,0,0,1,205,441Z"/><path class="cls-2" d="M205.28,439.6c-.45,0-1-13.21-1.18-29.52s0-29.53.45-29.54,1,13.21,1.18,29.52S205.73,439.59,205.28,439.6Z"/><path class="cls-2" d="M165.81.38a17.8,17.8,0,0,1-2.54,1.17l-3.13,1.3-4.22,1.87a232.72,232.72,0,0,0-26,13.71c-5.26,3.28-10.91,7.06-16.75,11.42a224.91,224.91,0,0,0-17.79,15,212,212,0,0,0-34,40.89,216.81,216.81,0,0,0-22.85,48,208.09,208.09,0,0,0-6.13,22.43,162,162,0,0,0-3.13,20A116.5,116.5,0,0,0,29,192.83a95.77,95.77,0,0,0,1.53,12.51c.7,3.39,1.39,6,1.91,7.75a19.24,19.24,0,0,1,.74,2.69,15.8,15.8,0,0,1-1.05-2.59,72.82,72.82,0,0,1-2.22-7.72,89.71,89.71,0,0,1-1.82-12.58A113.28,113.28,0,0,1,28.19,176a157.27,157.27,0,0,1,3-20.18,201.82,201.82,0,0,1,6-22.62,214,214,0,0,1,22.9-48.41,209.39,209.39,0,0,1,34.3-41.11,219.61,219.61,0,0,1,18-14.95c5.91-4.35,11.64-8.09,17-11.33a207.41,207.41,0,0,1,26.32-13.3c1.62-.66,3-1.26,4.29-1.74l3.19-1.16A18.92,18.92,0,0,1,165.81.38Z"/><path class="cls-2" d="M170.8,3.73c-.25.38-1.57-.07-2.94-1s-2.27-2-2-2.35,1.57.08,2.94,1S171.05,3.36,170.8,3.73Z"/><path class="cls-2" d="M168.74,65.54c-.22,0-.42-3.41-.49-8.92s0-13.12.28-21.51.74-16,1.18-21.49.87-8.87,1.1-8.86.21,3.42.05,8.92-.43,13.1-.7,21.48-.56,16-.76,21.48S169,65.54,168.74,65.54Z"/><path class="cls-2" d="M165.45,64.21c-.45,0-.76-14.3-.69-31.95S165.25.32,165.7.32s.76,14.31.69,32S165.9,64.21,165.45,64.21Z"/><path class="cls-2" d="M233.81,68.45c0,.23-3.89.3-10.17.23s-14.94-.27-24.51-.6S180.91,67.4,174.62,67a27.62,27.62,0,0,1-7.38-1.47c-1.67-.63-2.48-1.22-2.43-1.31a19.19,19.19,0,0,1,2.62.71,34.5,34.5,0,0,0,7.26.92c6.24.13,14.93.29,24.49.63s18.23.72,24.5,1.08S233.82,68.23,233.81,68.45Z"/><path class="cls-2" d="M237.77,73.12c-.18.41-1.82,0-3.26-1.32s-1.9-3-1.5-3.18,1.38.84,2.62,2S238,72.71,237.77,73.12Z"/><path class="cls-2" d="M223.65,137c-.45-.07,1.31-15.5,3.92-34.47s5.1-34.31,5.54-34.24-1.31,15.49-3.92,34.46S224.1,137.05,223.65,137Z"/><path class="cls-2" d="M226.61,139.18c-.22,0,0-3.78.67-9.81S229,115,230.52,105.9s3.08-17.36,4.37-23.28,2.25-9.56,2.47-9.52S237,76.86,236,82.83s-2.37,14.22-3.89,23.33l-3.71,23.37C227.48,135.51,226.83,139.21,226.61,139.18Z"/><path class="cls-2" d="M269.57,171.81c-.15.18-2.81-1.81-7.05-5.1L246,153.83l-16.61-12.77c-4.24-3.28-6.84-5.36-6.71-5.55s3,1.57,7.39,4.61,10.44,7.41,16.93,12.42,12.21,9.75,16.27,13.28S269.71,171.64,269.57,171.81Z"/><path class="cls-2" d="M257.67,222.58c-.44-.11,1.92-11.62,5.26-25.72s6.41-25.45,6.85-25.35-1.92,11.62-5.26,25.72S258.11,222.68,257.67,222.58Z"/><path class="cls-2" d="M261.17,227.75c-.22-.05.29-3.24,1.29-8.37s2.51-12.19,4.26-20l2.54-10.95a56.53,56.53,0,0,0,1.72-8.88,13,13,0,0,0-.73-5.88c-.53-1.31-1.05-1.94-.94-2s.75.44,1.51,1.76a12.15,12.15,0,0,1,1.31,6.2,47.55,47.55,0,0,1-1.41,9.16c-.74,3.38-1.55,7.08-2.41,11-1.75,7.77-3.43,14.79-4.72,19.85S261.38,227.8,261.17,227.75Z"/><path class="cls-2" d="M295.08,254c-.12.18-2.64-1.14-6.53-3.59A178.63,178.63,0,0,1,273.89,240c-2.76-2.16-5.33-4.29-7.62-6.29a52.6,52.6,0,0,1-5.86-5.64,14.71,14.71,0,0,1-2.84-4.77c-.42-1.25-.43-2-.33-2s.86,2.79,4,6a69.08,69.08,0,0,0,6,5.27c2.33,1.92,4.91,4,7.66,6.15,5.49,4.3,10.59,8,14.3,10.7S295.2,253.76,295.08,254Z"/><path class="cls-2" d="M286.93,275.59c-.42-.18,1.27-4.94,3.36-10.79s3.8-10.6,4.25-10.47-.6,5.11-2.72,11S287.33,275.77,286.93,275.59Z"/><path class="cls-2" d="M290.14,280.38c-.42-.05.2-6.55,3.09-14,.71-1.87,1.55-3.57,2.06-5.1a8.55,8.55,0,0,0,.49-4.13,6,6,0,0,0-1-2.59c-.41-.54-.72-.8-.66-.91s.48,0,1.11.47a5.31,5.31,0,0,1,1.71,2.78,8.76,8.76,0,0,1-.18,4.81c-.49,1.74-1.29,3.44-2,5.25C291.93,274.22,290.61,280.46,290.14,280.38Z"/><path class="cls-2" d="M308,297.51c-.26.34-6.25-3.91-12.61-10.33s-10.58-12.44-10.24-12.69,5.1,5.21,11.4,11.54S308.27,297.14,308,297.51Z"/><path class="cls-2" d="M281.77,350.21c-.2-.1,1-3,2.61-7.85s4.17-11.46,7.41-18.57,6.56-13.38,9.13-17.8,4.37-7.05,4.56-6.94-1.24,2.94-3.55,7.49-5.44,10.84-8.65,17.92-5.89,13.58-7.82,18.31S282,350.31,281.77,350.21Z"/><path class="cls-2" d="M266.34,369.88c.18.14-2.21,3.56-6.22,9-2,2.7-4.41,5.9-7.11,9.45-1.35,1.76-2.78,3.62-4.25,5.55a23.86,23.86,0,0,1-2.55,2.84,10.48,10.48,0,0,1-3.47,2.16c-2.65.95-5.24.9-7.62,1.11l-7,.45c-4.44.28-8.44.51-11.81.68a35.31,35.31,0,0,1-8-.28,6.73,6.73,0,0,1-2.81-.92,22.56,22.56,0,0,1,2.9.29,45.64,45.64,0,0,0,7.87-.24c3.35-.32,7.35-.67,11.78-1l7-.55c2.42-.22,4.95-.22,7.17-1s3.86-2.61,5.34-4.47l4.31-5.48c2.76-3.49,5.27-6.62,7.39-9.23C263.45,372.91,266.16,369.75,266.34,369.88Z"/><path class="cls-2" d="M281.7,349.72c.22-.05.83,1.82,1.65,4.86.41,1.53.87,3.34,1.35,5.38a13.6,13.6,0,0,1,.42,3.43,5.13,5.13,0,0,1-1.59,3.72,8,8,0,0,1-3.56,1.53c-1.11.25-2.19.47-3.22.66-2.07.37-3.95.62-5.53.78-3.16.3-5.12.24-5.14,0s1.9-.58,5-1.17c1.54-.3,3.37-.67,5.39-1.12,1-.22,2.07-.47,3.16-.74a6.78,6.78,0,0,0,2.84-1.19,3.58,3.58,0,0,0,1.07-2.57,12.57,12.57,0,0,0-.29-3.05c-.4-2-.74-3.89-1-5.44C281.69,351.72,281.48,349.77,281.7,349.72Z"/><path class="cls-2" d="M284.41,351.29c-.2-.08.82-3.26,2.77-8.29s4.84-11.9,8.36-19.35,7-14,9.61-18.76c1.35-2.29,2.11-4.29,2.08-5.72a9.32,9.32,0,0,0-.46-2.19s.22.09.47.43a3.83,3.83,0,0,1,.62,1.72c.24,1.61-.44,3.9-1.69,6.3-2.37,4.83-5.67,11.49-9.16,18.92s-6.56,14.19-8.77,19.1S284.62,351.38,284.41,351.29Z"/><path class="cls-2" d="M287.68,363.3c-.46,0-1.06-2.93-1.89-6.54s-1.57-6.54-1.14-6.71,1.88,2.61,2.73,6.35S288.11,363.27,287.68,363.3Z"/><path class="cls-2" d="M286.76,364.19c.22.39-.29,1.1-1.14,1.59s-1.73.56-1.95.17.29-1.1,1.14-1.59S286.53,363.8,286.76,364.19Z"/><path class="cls-2" d="M149.89,313.54c.14.23-1.67,1.45-4.2,3.79a48,48,0,0,0-4.17,4.4,62.88,62.88,0,0,0-4.37,6,115.47,115.47,0,0,0-6.47,11.93c-1.51,3.15-2.47,5.11-2.69,5s.38-2.18,1.63-5.48a71,71,0,0,1,6.16-12.35,50.7,50.7,0,0,1,4.6-6.11,36.45,36.45,0,0,1,4.56-4.29C147.76,314.26,149.8,313.38,149.89,313.54Z"/><path class="cls-2" d="M142.4,320.43c.07-.07.68.37,1.6,1.35a20.09,20.09,0,0,1,3.25,4.69,26,26,0,0,1,2.57,8.11,27.6,27.6,0,0,1,.27,5,24.51,24.51,0,0,1-.24,2.67,10.29,10.29,0,0,1-.69,2.78,7.2,7.2,0,0,1-1.65,2.52,4.14,4.14,0,0,1-1.4.85,3.65,3.65,0,0,1-1.67.12,4.5,4.5,0,0,1-2.52-1.59,20.83,20.83,0,0,1-1.5-2,40.49,40.49,0,0,1-4-7.41c-1.83-4.46-2.18-7.44-2-7.47s1,2.78,3.05,7a47.35,47.35,0,0,0,4.22,7c.91,1.21,1.88,2.69,3.06,2.87s2.35-1,2.94-2.52a9.09,9.09,0,0,0,.6-2.4c.13-.85.19-1.69.25-2.51A28.11,28.11,0,0,0,146.21,327a26.62,26.62,0,0,0-2.7-4.79C142.76,321.1,142.31,320.52,142.4,320.43Z"/><path class="cls-2" d="M57.54,198.15c-.46.21-3.09-5.81-8.62-11.47s-11.38-8.58-11.15-9c.08-.19,1.68.28,4,1.54a34.64,34.64,0,0,1,8.28,6.35,34.4,34.4,0,0,1,6,8.5C57.32,196.46,57.73,198.07,57.54,198.15Z"/><path class="cls-2" d="M61.85,172.68c.34.37-5.59,5.61-11,13.62s-8.09,15.43-8.56,15.25c-.19-.06.22-2,1.36-5a56.68,56.68,0,0,1,14-20.7C60.05,173.63,61.72,172.52,61.85,172.68Z"/><path class="cls-2" d="M155.31,204.48c-.4.26-5.29-6.67-12.2-14.47-1.73-2-3.4-3.79-5-5.44a42.11,42.11,0,0,0-4.28-4.08c-2.61-2.11-4.69-2.65-4.62-2.9,0-.1.57-.1,1.53.16a13.28,13.28,0,0,1,3.77,1.81,31.4,31.4,0,0,1,4.67,4c1.63,1.6,3.36,3.42,5.1,5.4C151.33,196.84,155.67,204.26,155.31,204.48Z"/><path class="cls-2" d="M156.67,176.52c.31.42-7.7,5.62-14.82,14.74S131.44,209.31,131,209.11c-.19-.07.36-2.4,1.87-6a55.63,55.63,0,0,1,3.06-6,60.16,60.16,0,0,1,10.26-13,55.65,55.65,0,0,1,5.17-4.37C154.43,177.43,156.56,176.35,156.67,176.52Z"/><path class="cls-2" d="M29.74,305c-.39.24-3.94-5.12-7.94-11.88a22.67,22.67,0,0,0-2-2.83l-.31-.37-.17-.18a2.07,2.07,0,0,0-.4-.34,3.38,3.38,0,0,0,0,.47v.29l0,.18,0,.3c.14.86.33,1.61.49,2.23.34,1.23.6,1.95.46,2s-.65-.51-1.25-1.72a13.8,13.8,0,0,1-.85-2.28c0-.13-.06-.2-.09-.37l-.11-.52c-.07-.36-.14-.77-.18-1.15-.08-.8-.13-1.58-.18-2.5.6.33,1.26.78,1.89,1.21a9.43,9.43,0,0,1,1,.84c.17.16.35.32.51.5l.33.36a20.74,20.74,0,0,1,2.16,3C27.22,299.09,30.12,304.78,29.74,305Z"/><path class="cls-2" d="M52.4,298.93c-.11-.06,0-.47.08-1.2a7.71,7.71,0,0,0-.55-3c-.45-1.24-1.22-2.71-2-4.37s-1.7-3.46-2.68-5.33-1.94-3.68-2.81-5.24a3.15,3.15,0,0,0-.66-.84,1,1,0,0,0-.69-.23c-.43,0-.53.24-.52,1,0,2.71.51,4.38.26,4.46s-1.09-1.51-1.41-4.4a2.89,2.89,0,0,1,.09-1.36,1.76,1.76,0,0,1,1.41-1.07,2.33,2.33,0,0,1,1.71.42A4.33,4.33,0,0,1,45.7,279c1,1.61,2,3.37,3,5.28s1.85,3.75,2.59,5.45A32.87,32.87,0,0,1,53,294.36a6.54,6.54,0,0,1,.07,3.48C52.84,298.65,52.49,299,52.4,298.93Z"/></g></g><g id="Layer_Grass"><path class="cls-1" d="M28.55,433.39a85.22,85.22,0,0,1-6.95-8.06c-1.33-1.77-3.06-5-6.5-11.55-.58-1.1-1.54-3-.75-4.35a3.1,3.1,0,0,1,1.93-1.3,9.75,9.75,0,0,1-3.42-6.44,9.24,9.24,0,0,1,.66-4.21c-.84-1.53-1.92-3.54-3.12-5.91,0,0-6.9-13.72-9.2-28.64-.27-1.74-.67-4.77.67-5.55,1.13-.65,3,.56,3.76,1s1.5,1.08,3.54,3.84c.69.93,1.61,2.22,2.64,3.83a8.22,8.22,0,0,1,4.4,1.33A8.69,8.69,0,0,1,18.62,370c.94,1.41,3.31,4.58,4.36,6.52,2,3.66,6.05,10.7,11.42,20.12a2.33,2.33,0,0,1,1.65-1c.85,0,1.44.77,2,1.43.82,1,2,2.44,3.58,4.29a26.09,26.09,0,0,1-4-15.64A132.12,132.12,0,0,1,28,363.88c-1.54-4.6-3.69-11.17-2.08-12.1s6.23,4.21,7,5a32.38,32.38,0,0,1,5.26,7.88c2.48,5.22,5.67,11.49,10,19.68a2.46,2.46,0,0,1,1.77-1c.86,0,1.5.76,2.65,2.47a51.71,51.71,0,0,1,2.91,4.86C56.17,392,57,393.83,58,396q.4-1.8,1.23-2,2-.52,6.61,8.76c-1.34-3.77-2.46-7.18-3.39-10.15-.58-1.83-1.21-3.92-.14-5.21a2.62,2.62,0,0,1,2.08-.94c1.09,0,1.91.88,3.1,2.54a31,31,0,0,1,3.2,5.47c.33.81,2.51,5.4,3.47,8.24,1.75,5.16,6.26,17,12.68,33.59q-6.89-.44-13.83-.82Q50.52,434.16,28.55,433.39Z"/><path class="cls-1" d="M143.81,509.86a54.81,54.81,0,0,1-14-8.56,30,30,0,0,1-5.79-6.06,27.74,27.74,0,0,1-4.55-11.11,10.24,10.24,0,0,1-4.29-7,9.49,9.49,0,0,1,.86-5c-2.46-2.13-7.16-6.89-7.35-13.26,0-1.06-.12-4.42,1.55-5.23,1-.47,2.47-.07,7.23,3.75a70,70,0,0,1,7.73,7c3,3.4,7.54,8.19,14.31,14.44-2.42-5.57-2.32-7.19-1.73-7.6s2.06.44,2.79.89a12.11,12.11,0,0,1,4.1,4.39c1.19,2.21,3.84,5.67,10.33,11.08.18-.72.52-1.61,1.22-1.84,1.6-.51,4,2.9,5,4.25,3.2,4.48,7.93,10.68,14.7,19.27Z"/><path class="cls-1" d="M361.42,416.29a22.13,22.13,0,0,1-5.32-6.2c-1.1-1.91-1.94-3.42-1.5-5.21a5.75,5.75,0,0,1,2.77-3.39,3.18,3.18,0,0,1,1.91-4.84,12.72,12.72,0,0,1,5.3-17.67,45.56,45.56,0,0,1-.49-13.36,38.61,38.61,0,0,1,2.78-10.7c1.07-2.52,3.17-7.47,5.32-7.26,1.41.14,2.31,2.46,2.83,3.82.87,2.24.69,3.71,1,7a52,52,0,0,0,.92,5.76c.14-.2,1.42-2,2.58-1.78.25.06,1.09.35,1.63,3.41a19.73,19.73,0,0,1-.17,7.87c-1,3.49-1.79,10.12-2,23.26.16-2.42,1.47-4.1,2.82-4.21s2.61,1.67,2.77,1.92c1.46,2.28.81,5.09.59,6.11a92.35,92.35,0,0,0-1.53,16.89Z"/><path class="cls-1" d="M384.87,416.51c-.26-8.18-.44-21,.81-28,.12-.67.93-5.06,2.08-5.09.72,0,1,1.59,1.51,1.53.84-.11.24-5.09,1.3-11a42.1,42.1,0,0,1,2.58-8.48c2.11-5.41,3.93-7.65,5.06-8.86,1.48-1.57,2.66-2.8,4.41-2.85,2.35-.06,4.34,2.05,5.21,3.81.35.72.67,1.68.68,4.74a42.41,42.41,0,0,1-.5,6.93c-.66,3.62-1.36,8.73-2.15,16.17.1-.22,1.11-2.53,2.37-2.47,1.49.07,2.24,3.38,2.34,3.83.78,3.4-.42,5.93-1.6,9.55-1.77,5.41-.54,4.21-2.75,12.13a118.85,118.85,0,0,1-4,11.86Z"/><path class="cls-1" d="M441.45,490.69a51.75,51.75,0,0,1,6.46-12.34c2.75-3.87,7.53-9.45,8.83-8.69.46.28.68,1.47-.85,6a63.49,63.49,0,0,1,8.64-11.09c4.22-4.31,11.15-10.15,12.54-9,1,.86-1.32,5.2-3.26,8.81a82.19,82.19,0,0,1-10,14.61l11.39-8.38a24.63,24.63,0,0,1,10.7-4.7c-.94,1.68-2.31,4-4.06,6.69a85.15,85.15,0,0,1-9.29,12.31,70,70,0,0,1-7.79,7.22Z"/><path class="cls-1" d="M537.74,419.6a96.49,96.49,0,0,1-.6-10.93,59.87,59.87,0,0,1,1.12-13.49c.13-.58,1.52-4.17,4.32-11.35.37-.95,1-2.59,1.83-2.56s1.57,2.37,1.7,2.89a95.84,95.84,0,0,0,7.52-18.68c1.15-4.17,3.57-7.9,5.14-11.93.57-1.44,1.6-4.14,3.89-4.78a4.53,4.53,0,0,1,2.74.2l2.77-4.23c.33-.46,1.41-1.9,2.29-1.68,1.24.3,1.27,3.65,1.27,4.15,0,3.05-1.18,4.84-2.13,7.25-1.14,2.89-1,4.28-1.7,8.85a131.1,131.1,0,0,1-3.85,17.06c1.31-6.11,3.44-10.12,5.52-10.08.74,0,.8,1,2.81,2.55,1.58,1.18,2.24,1.11,2.79,1.92,1,1.52.1,3.81-.23,4.66-1.44,3.68-3.73,10.8-6.76,20.37,3.9-5.49,5.46-6.29,6.16-6,2,.89-.9,11.84-1.75,15.06a95.24,95.24,0,0,1-3.94,11.69Z"/><path class="cls-2" d="M15.59,408.17c0,.13-.42.26-.7.83a4.12,4.12,0,0,0,.09,2.83c.18.58.54,1.23.86,2s.72,1.48,1.13,2.28c.82,1.59,1.77,3.31,2.84,5.07,4.27,7.08,9.07,11.88,8.73,12.22-.15.16-1.54-.85-3.5-2.82A47.73,47.73,0,0,1,18.42,422a50.59,50.59,0,0,1-2.8-5.27c-.39-.83-.71-1.64-1-2.4a14.65,14.65,0,0,1-.73-2.21,4.21,4.21,0,0,1,.49-3.47C15,408,15.6,408.1,15.59,408.17Z"/><path class="cls-2" d="M39.28,407.2a23.6,23.6,0,0,1-1.88-3.54c-1.15-2.31-2.82-5.67-5-9.79s-5-9-8.31-14.27q-2.51-4-5.45-8.23a14,14,0,0,0-3.33-3.67,5.3,5.3,0,0,0-1-.53l-.27-.09-.07,0-.17,0c-.08,0-.09,0-.09.1a1,1,0,0,0,0,.17v.12a2.61,2.61,0,0,0,.06.27,3.16,3.16,0,0,0,.17.52l-1.46.68A37.48,37.48,0,0,0,7.1,361a10.76,10.76,0,0,0-2.51-2.32,2,2,0,0,0-1.25-.29,1.41,1.41,0,0,0-.95.61,4.78,4.78,0,0,0-.51,2.94c0,.54.15,1.09.25,1.67l.31,1.72a110.14,110.14,0,0,0,7.4,23.56c.72,1.63,1.45,3.15,2.16,4.59.35.72.72,1.4,1.06,2.07l.52,1,.72,1.29-.16.58c0,.17,0,0-.1,0a.28.28,0,0,0-.23,0,1.28,1.28,0,0,0-.33.11l-.18.09-.09.05s0,.15,0,.18a.51.51,0,0,0-.25.27,1.8,1.8,0,0,0-.07,1,17.9,17.9,0,0,0,.54,2.13,22.06,22.06,0,0,0,1.36,3.28c.91,1.72,1.56,2.57,1.48,2.63a8,8,0,0,1-1.92-2.38,19.67,19.67,0,0,1-1.61-3.28,18.08,18.08,0,0,1-.68-2.24,2.58,2.58,0,0,1,.07-1.47,1.48,1.48,0,0,1,.58-.71.59.59,0,0,1,.33-.1.37.37,0,0,1,.18.05s.14.15.07,0l-.22-.36-.36-.59-.55-1c-.37-.66-.77-1.34-1.14-2.06-.76-1.43-1.53-3-2.29-4.59a101.28,101.28,0,0,1-4.37-10.88,105.56,105.56,0,0,1-3.44-12.9l-.33-1.74a17.9,17.9,0,0,1-.28-1.82,9.22,9.22,0,0,1,0-2,4.78,4.78,0,0,1,.74-2,3.08,3.08,0,0,1,2-1.29,3.68,3.68,0,0,1,2.28.47,12.15,12.15,0,0,1,3,2.67,38.38,38.38,0,0,1,5.56,8.26l-1.46.69a5.74,5.74,0,0,1-.26-.8c0-.13-.06-.27-.08-.41l0-.26v-.3a5.1,5.1,0,0,1,.11-1.13l.11-.55c0-.13.11-.09.2-.1h.27a8.74,8.74,0,0,1,1.13.09,3.47,3.47,0,0,1,.58.14,2.29,2.29,0,0,1,.37.12,6.74,6.74,0,0,1,1.36.71,15.19,15.19,0,0,1,3.71,4.11q2.93,4.31,5.39,8.35c3.28,5.39,6,10.34,8.05,14.54s3.61,7.64,4.6,10A18.8,18.8,0,0,1,39.28,407.2Z"/><path class="cls-2" d="M54,423.4c-.43.19-4-7.18-9.32-15.76-1.32-2.14-2.62-4.17-3.81-6a22.76,22.76,0,0,0-3.55-4.38,11.23,11.23,0,0,0-.87-.73l-.3-.22-.24-.18c-.08,0-.19-.15-.25-.13a1.56,1.56,0,0,0-.16.2,2.26,2.26,0,0,0-.22.44,3.27,3.27,0,0,0-.13.92c0,.24,0,.38-.07.39s-.48-.38-.4-1.52a2.92,2.92,0,0,1,.28-1c.08-.16.17-.34.28-.52,0,0,0-.06,0-.06l.07,0,.14,0,.28.1a3.89,3.89,0,0,1,.64.29c.22.1.48.26.62.34a9.89,9.89,0,0,1,1,.7,20.18,20.18,0,0,1,4,4.42c1.29,1.8,2.63,3.82,4,6C51.42,415.48,54.39,423.23,54,423.4Z"/><path class="cls-2" d="M50.89,389.75a17.82,17.82,0,0,1-2.07-3.38c-1.24-2.23-3-5.47-5.1-9.5l-3.44-6.6c-1.24-2.37-2.53-4.91-4.07-7.45a34.69,34.69,0,0,0-5.63-7.28C30,355,29.4,354.48,28.77,354a2.66,2.66,0,0,0-1.67-.75.65.65,0,0,0-.45.3,1.63,1.63,0,0,0-.18.82,9.56,9.56,0,0,0,.4,2.34,111.14,111.14,0,0,0,12,30l.36.6-1.25.22s0,0,0,0,0-.09,0-.08v0c0,.15,0,.06-.05.14a1.83,1.83,0,0,0-.29.61,2.36,2.36,0,0,0-.06.74,2.73,2.73,0,0,0,.07.39l.1.44c.27,1.17.59,2.26.92,3.27a40,40,0,0,0,2.06,5.07c1.33,2.72,2.3,4.13,2.18,4.21s-1.25-1.22-2.79-3.89A35.53,35.53,0,0,1,36.65,390l-.12-.45a3.56,3.56,0,0,1-.12-.53,3.36,3.36,0,0,1,.07-1.14,2.64,2.64,0,0,1,.52-1.14,1.42,1.42,0,0,1,.77-.46,1.27,1.27,0,0,1,.93.24l-.89.82a103.21,103.21,0,0,1-12.53-30.31l-.3-1.29a6.35,6.35,0,0,1-.14-1.46,3.17,3.17,0,0,1,.43-1.64,2.25,2.25,0,0,1,1.61-1,3,3,0,0,1,1.68.31,6.18,6.18,0,0,1,1.2.77c.68.53,1.32,1.1,1.93,1.68a35.46,35.46,0,0,1,5.81,7.66c1.54,2.63,2.8,5.22,4,7.61l3.27,6.69c2,4.09,3.57,7.42,4.64,9.73A18.81,18.81,0,0,1,50.89,389.75Z"/><path class="cls-2" d="M73.74,419.88c-.47.19-4.19-10.64-12-22.21l-1.08-1.58a4.8,4.8,0,0,0-1.1-1.14c-.24-.15-.23-.13-.32-.15s-.19,0-.2.06l-.28,1.26-.55,2.48-.94-2.34A65.93,65.93,0,0,0,51.43,385a4.84,4.84,0,0,0-.66-.79,2.26,2.26,0,0,0-.35-.28,1.17,1.17,0,0,0-.28-.16,1.09,1.09,0,0,0-.59,0c-.12.1-.15.29-.23.43-.32.74-.56,1.21-.65,1.17s0-.48.16-1.39a2,2,0,0,1,.32-.82,1.75,1.75,0,0,1,1.08-.11,2.61,2.61,0,0,1,.61.22,5.14,5.14,0,0,1,.49.32,5.56,5.56,0,0,1,.88.87,51.37,51.37,0,0,1,6.5,11.25l-1.49.13.18-.87.12-.61a2.74,2.74,0,0,1,.22-.7c0-.27.34-.29.56-.38a1.85,1.85,0,0,1,.74-.1,2.89,2.89,0,0,1,1.39.46A6,6,0,0,1,62,395.15l1.11,1.62a86.91,86.91,0,0,1,8.47,16C73.26,417,73.94,419.81,73.74,419.88Z"/><path class="cls-2" d="M80.25,418.35c-.21.08-1.39-2.34-3.14-6.33s-4.06-9.56-6.52-15.71a30.91,30.91,0,0,0-2.91-5.78,14.28,14.28,0,0,0-1.84-2.25,13.44,13.44,0,0,0-1-.9,2.58,2.58,0,0,0-.43-.25.5.5,0,0,0-.26,0,.38.38,0,0,0-.2.13,2,2,0,0,0-.25.37,9,9,0,0,0-.4,1,8.46,8.46,0,0,0-.4,2,9.81,9.81,0,0,0,.36,3.4c.55,1.85,1.32,2.75,1.17,2.86s-1.09-.65-1.93-2.59a9.56,9.56,0,0,1-.73-3.72,8.92,8.92,0,0,1,.31-2.34,7.88,7.88,0,0,1,.42-1.24,3,3,0,0,1,.42-.69,1.79,1.79,0,0,1,.83-.58,1.9,1.9,0,0,1,1.11,0,3.24,3.24,0,0,1,.81.42,10.64,10.64,0,0,1,1.21,1A15.11,15.11,0,0,1,69,389.64a30.33,30.33,0,0,1,3.13,6.05c2.48,6.18,4.6,11.8,6.08,15.9S80.46,418.27,80.25,418.35Z"/><path class="cls-2" d="M376.69,366.08A18.41,18.41,0,0,1,376,362l-.54-4.78a22.32,22.32,0,0,0-1.18-6.08,5.85,5.85,0,0,0-1.93-2.67,3.13,3.13,0,0,0-.73-.37,1,1,0,0,0-.4-.08l-.84,1.35a40.91,40.91,0,0,0-3.62,7.89,43.13,43.13,0,0,0-2,9.37,42.28,42.28,0,0,0,.27,10.27c.14.76.27,1.52.41,2.28,0,.12.08.27,0,.36l-.37.1-.74.2a3.31,3.31,0,0,0-.39.11l-.18.07a2.13,2.13,0,0,0-.35.14,6.75,6.75,0,0,0-2.41,1.87,10,10,0,0,0-2.26,5.61,20.37,20.37,0,0,0,.52,6c.1.49.22,1,.34,1.45l.39,1.51c.09.39.16.77.24,1.16a4.63,4.63,0,0,1-1,.65,4,4,0,0,1-.88.28h-.3s0,0,0,.06v.11c0,.07,0,.15,0,.22s0,.09.06.2.07.19.1.28a5.05,5.05,0,0,0,.24.53,5,5,0,0,0,1.44,1.73l-1,.86a1.48,1.48,0,0,0-1.41-.65,2.68,2.68,0,0,0-1.64.67,2.86,2.86,0,0,0-.79,1.53,5.44,5.44,0,0,0,0,1.8,12.47,12.47,0,0,0,1,3.28,18,18,0,0,0,1.44,2.6,20,20,0,0,0,2.66,3.21c.69.68,1.08,1,1,1.08s-.51-.19-1.29-.79a15.89,15.89,0,0,1-3-3.07,16.92,16.92,0,0,1-1.65-2.64,12.81,12.81,0,0,1-1.26-3.51,4.87,4.87,0,0,1,1-4.35,3.92,3.92,0,0,1,2.39-1.06,3.09,3.09,0,0,1,1.42.22,2.53,2.53,0,0,1,1.19,1l1.69,2.79-2.64-1.93a6.45,6.45,0,0,1-1.87-2.14c-.11-.21-.22-.44-.31-.66a2.48,2.48,0,0,1-.13-.35,4.32,4.32,0,0,1-.13-.44,6.88,6.88,0,0,1-.19-1.07l-.05-.54a2.65,2.65,0,0,1,0-.27c0-.06,0-.1,0-.18a13.09,13.09,0,0,0,1.36.11,1.69,1.69,0,0,0,.51-.12.69.69,0,0,0,.2-.13l-.07-.22c-.13-.46-.25-.92-.38-1.39s-.26-1-.37-1.5a21.21,21.21,0,0,1-.62-6.49,11.57,11.57,0,0,1,2.6-6.53,8.37,8.37,0,0,1,3-2.3,4.68,4.68,0,0,1,.45-.19l.26-.09.1,0s.06,0,0-.06l-.21-1.17a42.65,42.65,0,0,1-.25-10.68,43.48,43.48,0,0,1,2.19-9.7,41.17,41.17,0,0,1,3.88-8.11l.58-.87.35-.54.46-.66c0-.08.1,0,.16,0l.2,0,.39.08a2.9,2.9,0,0,1,.72.22,4.48,4.48,0,0,1,1,.53,6.9,6.9,0,0,1,2.28,3.29,21.83,21.83,0,0,1,1,6.41c.11,1.87.2,3.49.27,4.8A20.62,20.62,0,0,1,376.69,366.08Z"/><path class="cls-2" d="M379,397c-.46-.06.46-9.07,1-20.2.13-2.78.24-5.44.35-7.85,0-1.19.11-2.39.09-3.38a3.15,3.15,0,0,0-.76-2.3,1.61,1.61,0,0,0-1.7-.38,1.71,1.71,0,0,0-.72,1.26,5.18,5.18,0,0,1-.35,1.17c-.13.26-.25.37-.3.34a11.5,11.5,0,0,1,0-1.59,3.38,3.38,0,0,1,.14-.92,1.93,1.93,0,0,1,.73-1,2.57,2.57,0,0,1,2.91.26,4.25,4.25,0,0,1,1.38,3.12c.08,1.15.05,2.26.06,3.49,0,2.43-.07,5.1-.22,7.9C381.12,388.07,379.47,397,379,397Z"/><path class="cls-2" d="M383.67,416.72c-.46-.09.52-6.55.7-14.55,0-1,0-2,0-2.92s0-1.86-.05-2.66a4.85,4.85,0,0,0-.6-2,2.76,2.76,0,0,0-1.3-1.12,1.68,1.68,0,0,0-2.08.81c-.31.54-.16,1-.29,1s-.15-.05-.24-.25a1.5,1.5,0,0,1-.07-1,2.36,2.36,0,0,1,.89-1.3,2.42,2.42,0,0,1,2.12-.39,3.7,3.7,0,0,1,2.08,1.46,5.76,5.76,0,0,1,1,2.62,26.54,26.54,0,0,1,.16,2.83c0,1,0,1.95,0,3C385.81,410.38,384.09,416.82,383.67,416.72Z"/><path class="cls-2" d="M405.52,387.36a15.56,15.56,0,0,1,.28-3.48c.27-2.21.68-5.42,1.07-9.38.2-2,.4-4.16.57-6.49.08-1.17.16-2.38.25-3.62a27.76,27.76,0,0,0,0-3.76,8.41,8.41,0,0,0-1-3.54,5.26,5.26,0,0,0-2.72-2.34,3.67,3.67,0,0,0-3.41.66,11.78,11.78,0,0,0-2.78,3.16,43.28,43.28,0,0,0-6.2,14.12,43.77,43.77,0,0,0-1.1,13l.09,1.5-1.11-1a4.64,4.64,0,0,1-.88-1.06,3.17,3.17,0,0,1-.28-.55,1.34,1.34,0,0,1-.09-.26c0-.05,0-.12,0-.17a.51.51,0,0,0-.17,0,.58.58,0,0,0-.31.11,1.14,1.14,0,0,0-.24.25,4,4,0,0,0-.27.46,22.65,22.65,0,0,0-.77,2.28,30.73,30.73,0,0,0-.83,3.86,25.74,25.74,0,0,1-.45,3.37A9.58,9.58,0,0,1,385,391a24.28,24.28,0,0,1,.57-4,20.43,20.43,0,0,1,.71-2.48,3.66,3.66,0,0,1,.39-.71,2.67,2.67,0,0,1,.7-.72,1.61,1.61,0,0,1,.92-.28,1.67,1.67,0,0,1,.49.08c.1.06.18.14.31.22a6.13,6.13,0,0,0,.26.89,4.22,4.22,0,0,0,.27.5,3.85,3.85,0,0,0,.69.77l-1,.51a43.05,43.05,0,0,1,7.18-28.1,13.38,13.38,0,0,1,3.18-3.56,5.9,5.9,0,0,1,2.32-1,5.12,5.12,0,0,1,2.55.18,6.72,6.72,0,0,1,3.55,3.08,9.76,9.76,0,0,1,1.15,4.21,27.23,27.23,0,0,1-.1,4l-.33,3.63c-.24,2.35-.5,4.53-.77,6.52-.55,4-1.13,7.16-1.59,9.35A13.77,13.77,0,0,1,405.52,387.36Z"/><path class="cls-2" d="M404.46,416.21c-.44-.1,1.25-9.2,3.78-20.34a72.21,72.21,0,0,0,1.58-7.75,8.24,8.24,0,0,0-.29-3.19,4.57,4.57,0,0,0-.26-.68,2,2,0,0,0-.31-.49c-.15-.14-.18-.18-.3-.22a.42.42,0,0,0-.31,0,3.76,3.76,0,0,0-.69.77c-.24.33-.45.64-.64.95a16,16,0,0,0-.87,1.63c-.43.93-.62,1.48-.74,1.46s-.12-.62.14-1.67a10.12,10.12,0,0,1,.67-1.85c.16-.35.36-.72.58-1.1l.37-.57a2.43,2.43,0,0,1,.66-.67,1.44,1.44,0,0,1,1.06-.17,2.11,2.11,0,0,1,1,.55,3.21,3.21,0,0,1,.59.78,7.59,7.59,0,0,1,.37.82,9.21,9.21,0,0,1,.51,3.73,22.83,22.83,0,0,1-.59,4l-.9,4.06C407.3,407.37,404.9,416.31,404.46,416.21Z"/><path class="cls-2" d="M560.65,393.84a27.36,27.36,0,0,1,.79-4.6c.61-2.95,1.54-7.22,2.73-12.54s2.66-11.67,4.28-18.8c.83-3.55,1.69-7.29,2.59-11.19a4.15,4.15,0,0,0-.16-2.46l-.12-.17a.29.29,0,0,0-.08-.08c-.06,0-.13-.08-.19-.05l-.08.05-.27.18c-.2.13-.4.27-.59.42a10.59,10.59,0,0,0-2,2.09,12.59,12.59,0,0,0-1.72,3.42c-.34-.18-.73-.41-1.09-.56-.1,0-.16-.08-.3-.13l-.11,0-.23,0a2.83,2.83,0,0,0-1,.12,3.75,3.75,0,0,0-1.77,1.17A17.66,17.66,0,0,0,559,355.1l-6.58,15.23c-2.12,4.88-4.07,9.56-5.61,14.06L545,389.57l.35-5.45a2.36,2.36,0,0,0-.48-1.55,1,1,0,0,0-.26-.25c-.12-.13-.17.09-.25.15l-.48.64a9.38,9.38,0,0,0-.57.83c-.34.57-.74,1.11-1,1.69a31.53,31.53,0,0,0-2.8,6.91,57.32,57.32,0,0,0-1.86,12.18c-.18,3.44-.2,6.18-.23,8a13.54,13.54,0,0,1-.15,2.88,14.11,14.11,0,0,1-.31-2.87c-.12-1.87-.24-4.61-.17-8.1,0-1.74.12-3.67.36-5.76a44.62,44.62,0,0,1,1.2-6.7,31.29,31.29,0,0,1,2.78-7.23c.3-.62.7-1.19,1.06-1.8a8.35,8.35,0,0,1,.58-.88l.77-1a4.88,4.88,0,0,1,.53-.63l.13-.14s.09-.13.15-.06l.37.19a3.83,3.83,0,0,1,2.12,3.57l-1.42-.27c1.51-4.58,3.44-9.32,5.53-14.22s4.29-10,6.55-15.25a18.1,18.1,0,0,1,2.59-4.87,5.36,5.36,0,0,1,2.53-1.65,4.26,4.26,0,0,1,1.56-.18c.14,0,.27,0,.41.05l.2,0s0,0,0,0a.59.59,0,0,1,.14.06c.08-.11,0-.06.38-.74a13.43,13.43,0,0,1,.91-1.44,11.93,11.93,0,0,1,2.36-2.4c.22-.17.45-.33.68-.48l.38-.25.59-.29a2.15,2.15,0,0,1,2,1.18,5.53,5.53,0,0,1,.3,3.5c-.95,3.91-1.85,7.67-2.72,11.23-1.75,7.1-3.32,13.43-4.63,18.72s-2.42,9.52-3.2,12.43A28.13,28.13,0,0,1,560.65,393.84Z"/><path class="cls-2" d="M564.61,410.54c-.21-.07.6-3.17,2.09-8.13s3.66-11.77,6.14-19.27c.32-.94.62-1.86.93-2.77a21.09,21.09,0,0,0,.78-2.62,5.2,5.2,0,0,0,0-2.35,1.71,1.71,0,0,0-1.27-1.28,3.52,3.52,0,0,1-1.39-.71,2.94,2.94,0,0,1-.74-1.43,4.88,4.88,0,0,0-.3-1,.62.62,0,0,0-.42-.31,2.07,2.07,0,0,0-1.36.74A6.88,6.88,0,0,0,568,373c-2.56,4.45-3.74,7.43-4,7.34s.62-3.21,3-7.89a7.55,7.55,0,0,1,1.16-1.84,4.49,4.49,0,0,1,1-.82,2.39,2.39,0,0,1,1.47-.41,1.94,1.94,0,0,1,1.46.91,5.3,5.3,0,0,1,.5,1.3c.25.8.3.81,1.23,1.11a3.53,3.53,0,0,1,1.42.8,3.35,3.35,0,0,1,.86,1.47,6.7,6.7,0,0,1,0,3.08,23.37,23.37,0,0,1-.81,2.83l-.92,2.77c-2.49,7.5-4.82,14.26-6.59,19.12S564.83,410.61,564.61,410.54Z"/><path class="cls-2" d="M570.85,413.63c-.45-.18,2-6,2.59-13.55.08-.94.14-1.86.17-2.75,0-.45,0-.89,0-1.32v-1.08l-.08,0-.36.12-.09.05-.21.12c-.14.09-.29.17-.41.26a7.36,7.36,0,0,0-.73.56c-1.8,1.57-2.27,3.13-2.52,3s-.11-.45.1-1.16a7.21,7.21,0,0,1,1.61-2.7,9.09,9.09,0,0,1,.77-.74c.14-.12.3-.23.45-.35l.24-.17.39-.23a15.1,15.1,0,0,1,1.67-.77l.46-.18c0,.14,0,.31,0,.46l.09,1c0,.33.07.67.08,1l0,.72c0,.44,0,.9,0,1.36,0,.93-.06,1.88-.13,2.86a36.18,36.18,0,0,1-2.23,9.76C571.91,412.38,571,413.72,570.85,413.63Z"/><path class="cls-2" d="M120.92,488.92c.26-.08.85,1.62,2.33,4l.6.93.71,1c.47.68,1.09,1.32,1.67,2a42,42,0,0,0,4.46,4.11,93.43,93.43,0,0,0,9.25,6.21c2.45,1.5,4,2.48,3.86,2.68s-1.79-.41-4.41-1.67a52.06,52.06,0,0,1-9.71-5.95,33.24,33.24,0,0,1-4.58-4.39,27.27,27.27,0,0,1-1.65-2.25l-.67-1.06-.53-1C120.94,490.81,120.75,489,120.92,488.92Z"/><path class="cls-2" d="M140.17,480.23a15.29,15.29,0,0,1-2.51-2.43c-1.55-1.62-3.78-4-6.6-6.8s-6.26-6.13-10.2-9.64c-2-1.76-4.08-3.56-6.29-5.39-1.1-.92-2.22-1.87-3.26-1.81a1.61,1.61,0,0,0-1.28.71,3.67,3.67,0,0,0-.59,1.74,7.84,7.84,0,0,0,.13,2.51,23.39,23.39,0,0,0,.81,2.5,30.66,30.66,0,0,0,8.37,12.09l-1.18.66a.41.41,0,0,0-.33-.34,1.35,1.35,0,0,0-.82,0,1.06,1.06,0,0,0-.61.43,1.85,1.85,0,0,0-.27.84c-.09,1.3.69,2.7,1.3,3.93a27.72,27.72,0,0,0,4.17,5.95c2.77,3,4.86,4.22,4.75,4.39s-.6-.17-1.55-.77a23.68,23.68,0,0,1-3.81-3,26.61,26.61,0,0,1-4.61-6c-.36-.64-.7-1.29-1-2a5.91,5.91,0,0,1-.54-2.56,3.11,3.11,0,0,1,.43-1.46,2.44,2.44,0,0,1,1.33-1,2.77,2.77,0,0,1,1.69-.05,2.06,2.06,0,0,1,.85.51,1.85,1.85,0,0,1,.47,1l.4,2-1.58-1.34a31.62,31.62,0,0,1-6.54-7.7,32.4,32.4,0,0,1-2.4-4.91,22.4,22.4,0,0,1-.89-2.73,9.42,9.42,0,0,1-.16-3.05,5.24,5.24,0,0,1,.9-2.51,3.16,3.16,0,0,1,1.1-1,3.47,3.47,0,0,1,1.42-.39,4.44,4.44,0,0,1,2.55.8,18.47,18.47,0,0,1,1.8,1.4c2.22,1.86,4.32,3.71,6.28,5.5,3.91,3.6,7.29,7,10,10s4.84,5.43,6.24,7.18A13.9,13.9,0,0,1,140.17,480.23Z"/><path class="cls-2" d="M172.69,504.68c-.17.13-2.37-2.37-5.83-6.55-1.72-2.09-3.76-4.6-6-7.41A15.25,15.25,0,0,0,157,487a4.56,4.56,0,0,0-.58-.3,1.48,1.48,0,0,0-.29-.12l-.18-.06a.72.72,0,0,0-.35,0l.34,2,.51,3-1.94-2.35-1.1-1.33c-2.79-3.37-5.51-6.53-8-9.37l-3.59-4-1.65-1.8a3.4,3.4,0,0,0-1.51-1.08c-.44-.09-.7.12-.83.64a6.74,6.74,0,0,0-.06,1.68,9.4,9.4,0,0,0,.63,2.72c.59,1.44,1.18,2.13,1.08,2.22s-.83-.49-1.65-1.95a8.72,8.72,0,0,1-1-2.89,7.52,7.52,0,0,1-.05-2,2,2,0,0,1,.61-1.18,1.71,1.71,0,0,1,1.45-.39,4.39,4.39,0,0,1,2.21,1.34l1.72,1.75c1.18,1.21,2.43,2.53,3.72,3.93,2.59,2.8,5.36,5.95,8.17,9.34.37.45.73.9,1.1,1.34l-1.44.65-.25-1.54-.2-1.24c-.06-.44-.06-.81-.09-1.21-.06-.15.1-.1.19-.1h.32l.62,0a5.49,5.49,0,0,1,1.24.19,4.88,4.88,0,0,1,.92.33,5.63,5.63,0,0,1,.73.39,16.37,16.37,0,0,1,4.16,4.2c2.19,2.87,4.14,5.45,5.75,7.63C171,501.8,172.87,504.54,172.69,504.68Z"/><path class="cls-2" d="M460.44,483.32a17.3,17.3,0,0,1,2.05-3.14c1.39-2,3.41-4.81,5.78-8.39s5.13-7.93,7.89-12.83a5.29,5.29,0,0,0,.62-1.77,1.3,1.3,0,0,0-.46-1.26,1.53,1.53,0,0,0-1.44-.06,6.1,6.1,0,0,0-1.74,1c-1.07.94-2.24,2.11-3.34,3.22s-2.24,2.29-3.33,3.5a120.88,120.88,0,0,0-10,12.47l-1.17-1a4.31,4.31,0,0,0,1.22-2.55,4.1,4.1,0,0,0,0-.7,2,2,0,0,0,0-.35l0-.18v-.07a1.17,1.17,0,0,0-.07-.25.61.61,0,0,0-.05-.12l0-.06s0,0-.05,0l-.25.17-.12.08-.06,0-.15.11-1.18.93c-.76.64-1.48,1.28-2.16,1.93a39.34,39.34,0,0,0-6.18,7.63c-2.9,4.72-3.77,7.95-4,7.87a7.09,7.09,0,0,1,.53-2.31,32.86,32.86,0,0,1,2.65-6,38.47,38.47,0,0,1,6.08-8.08c.69-.68,1.42-1.37,2.2-2.05q.6-.48,1.2-1l.17-.13.24-.17.5-.34,1-.69c.08,0,.18-.16.24-.12l.14.28.28.56a5,5,0,0,1,.44,1.22l.08.32,0,.23a3.73,3.73,0,0,1,0,.47,5.9,5.9,0,0,1,0,.94,5.81,5.81,0,0,1-1.62,3.47l-1.17-1a112.68,112.68,0,0,1,10-12.7q1.68-1.83,3.39-3.55c1.16-1.15,2.22-2.22,3.49-3.32a7.8,7.8,0,0,1,2.24-1.27,4.2,4.2,0,0,1,1.4-.21,2.57,2.57,0,0,1,1.48.53,2.62,2.62,0,0,1,.9,1.25,3.1,3.1,0,0,1,.14,1.43,6.68,6.68,0,0,1-.81,2.29c-2.91,5-5.75,9.25-8.27,12.78s-4.68,6.27-6.22,8.13A15.65,15.65,0,0,1,460.44,483.32Z"/><path class="cls-2" d="M468.19,489.67c-.19-.18,2.29-2.87,5.92-7.53,1.81-2.32,3.89-5.14,6-8.39,1.07-1.62,2.17-3.35,3.25-5.16l.74-1.25.19-.35s.06-.07,0-.06h-.1l-.2,0-.19,0-.31.07a2.72,2.72,0,0,0-.38.11,11.9,11.9,0,0,0-7.76,7.38l-1.47-.34.16-1.12.11-.72.06-.36,0-.09s0-.07,0,0l-.15.07-.33.15-.19.1-.43.25c-.57.32-1.11.66-1.63,1a32.1,32.1,0,0,0-5,4.09c-2.57,2.57-3.73,4.42-3.9,4.31s.77-2.1,3.22-4.95a28.41,28.41,0,0,1,5-4.5c.52-.38,1.07-.76,1.66-1.11l.43-.27.7-.38c.48-.27,1-.54,1.5-.8l.78-.41.1-.05s.08-.05.06,0l0,.21,0,.43-.21,1.78q-.16,1.28-.33,2.61l-1.47-.34a13.19,13.19,0,0,1,8.73-8.47l.44-.13.51-.12a11.79,11.79,0,0,1,1.4-.2q.69-.07,1.38-.12l.7-.05c.19-.05.07.09,0,.18l-.16.31-1.31,2.41-.91,1.51q-1.68,2.74-3.38,5.19a100.22,100.22,0,0,1-6.39,8.27C471.11,487.39,468.32,489.81,468.19,489.67Z"/></g><g id="Layer_Character1"><g id="lower_body" data-name="lower body"><path class="cls-1" d="M194.7,398.82a21.68,21.68,0,0,0-5.74,5.77c-8.19,12.2-.35,28.56.45,30.18A92.16,92.16,0,0,0,205,441.86a80.37,80.37,0,0,0,25.23,4.91A83.22,83.22,0,0,0,252.68,444c10.41-2.7,15.62-4,18.52-8.73,4.42-7.14.81-16.82-.54-20.47a35.07,35.07,0,0,0-6.58-10.91c-3.91.52-9.71,1.24-16.77,1.93-14.41,1.42-21.75,2.11-28.55,1.26A64.06,64.06,0,0,1,194.7,398.82Z"/><path class="cls-2" d="M264,403.91c0,.21-3.84,1.09-10.19,2.15a139.85,139.85,0,0,1-25.07,2.05A74.85,74.85,0,0,1,204,403.66a48.71,48.71,0,0,1-6.94-3.23,8.83,8.83,0,0,1-2.32-1.59c.14-.25,3.59,1.74,9.64,3.73a84.27,84.27,0,0,0,24.44,3.91,181.87,181.87,0,0,0,24.88-1.56C260.06,404.16,264,403.68,264,403.91Z"/><path class="cls-2" d="M269.05,436.68a11.14,11.14,0,0,1-2.67,2,53.31,53.31,0,0,1-8.05,4.07,64.61,64.61,0,0,1-12.86,3.74,72.91,72.91,0,0,1-16.38,1.09,83.16,83.16,0,0,1-28.84-6.89,78.09,78.09,0,0,1-8.05-4,12,12,0,0,1-2.75-1.84c.13-.25,4.23,2,11.23,4.8a91.42,91.42,0,0,0,28.49,6.32,73.91,73.91,0,0,0,28.75-4.28C265,439,268.9,436.42,269.05,436.68Z"/></g><g id="foot_left" data-name="foot left"><path d="M258.55,457.27c-.6,2.55-1.21,5.1-1.81,7.65-9.09,7.51-14.57,11.14-18.14,13a19.28,19.28,0,0,0-7.74,6.47,17.71,17.71,0,0,0-1.49,2.78,18,18,0,0,0,6-1.11,24.17,24.17,0,0,0,6.27-3.76c.46-.33,3.28-2,8.92-5.32,3.49-2.06,8.81-5.05,16.34-8.79a35.71,35.71,0,0,1,.17-4,36.86,36.86,0,0,1,1.41-7.08Z"/></g><g id="leg_left" data-name="leg left"><path class="cls-1" d="M248.09,453.13c.58-1.68,1.41-4.2,2.39-7.27,2-6.15,2.68-8.93,3.9-12.82.24-.77,2.15-6.8,4.81-13.4,3.89-9.63,7.1-17.59,13.9-25.79.53-.64,3-3.13,7.8-8.12,6.65-6.83,8.45-8.49,11.58-9.32,1.16-.31,5.26-1.41,8.85.81A8.82,8.82,0,0,1,304.7,381c.88,2,.64,3.64.25,7.06-.9,7.95-.42,6.6-.91,9.29a59.47,59.47,0,0,1-4.09,12.8c-3.4,8.38-6.39,16.91-9.66,25.33-1.29,3.31-3,7.68-4.93,12.86a42,42,0,0,1-6.14,4.32,32.13,32.13,0,0,1-12.84,4.71c-1.41.16-.24-.09-7.83-.11-4,0-6,.06-7.89-1.22A8,8,0,0,1,248.09,453.13Z"/><path class="cls-2" d="M285.39,448.26a8,8,0,0,1,.48-1.72c.37-1.11.94-2.75,1.7-4.84,1.5-4.19,3.72-10.23,6.5-17.68l4.54-12.19c1.61-4.38,3.26-9.08,4.57-14.13a72.45,72.45,0,0,0,1.6-7.81,16.89,16.89,0,0,0-.56-7.94,8,8,0,0,0-2.18-3.22,8.29,8.29,0,0,0-3.56-1.76,12.1,12.1,0,0,0-8.17,1.17,29.7,29.7,0,0,0-7,5.21,77.57,77.57,0,0,0-5.92,6.29A95.8,95.8,0,0,0,268,403a150.57,150.57,0,0,0-11.45,25.3c-2.67,7.47-4.52,13.63-5.87,17.87-.66,2.13-1.18,3.77-1.56,4.88a8,8,0,0,1-.64,1.68,7,7,0,0,1,.33-1.77c.27-1.14.69-2.81,1.26-5,1.16-4.3,2.85-10.52,5.39-18.08a143.73,143.73,0,0,1,11.24-25.67,94.94,94.94,0,0,1,9.46-13.66,75.71,75.71,0,0,1,6-6.43,30.17,30.17,0,0,1,7.37-5.5,13.73,13.73,0,0,1,9.26-1.29,9.92,9.92,0,0,1,4.25,2.12,9.59,9.59,0,0,1,2.62,3.88,18.39,18.39,0,0,1,.6,8.7,71.83,71.83,0,0,1-1.69,8,147.23,147.23,0,0,1-4.75,14.23l-4.74,12.12c-2.91,7.4-5.3,13.38-7,17.5-.84,2.06-1.51,3.65-2,4.73A7.65,7.65,0,0,1,285.39,448.26Z"/><path class="cls-2" d="M284.2,449.05c.13.13-1.36,1.87-4.4,3.95a34.23,34.23,0,0,1-13.31,5.19,30.94,30.94,0,0,1-14.29-.85,7.15,7.15,0,0,1-3.62-2.61c-.58-.93-.56-1.56-.48-1.58s.33.5,1,1.19a7.54,7.54,0,0,0,3.49,1.9,35.34,35.34,0,0,0,13.66.34,40.43,40.43,0,0,0,13-4.56C282.29,450.26,284,448.85,284.2,449.05Z"/><path class="cls-2" d="M256.38,466.36c-.43-.15-.1-2.22.48-4.68s1.24-4.46,1.69-4.4.51,2.22-.1,4.78S256.8,466.51,256.38,466.36Z"/><path class="cls-2" d="M266.82,468.18c.11.21-3.68,2.38-9.81,5.85-3.06,1.74-6.7,3.81-10.67,6.22q-3,1.81-6.17,3.88a24.46,24.46,0,0,1-7.22,3.63,10.45,10.45,0,0,1-1.85.27,18.23,18.23,0,0,1-2.85-.21c.19-.49.36-1,.57-1.48.11-.24.19-.48.31-.72s.13-.24.19-.36l.12-.22a11.49,11.49,0,0,1,1.13-1.6,18.51,18.51,0,0,1,2.67-2.58c1.88-1.5,3.74-2.72,5.48-4,3.5-2.44,6.64-4.61,9.28-6.41,5.29-3.61,8.58-5.72,8.71-5.55s-2.95,2.61-8.06,6.44c-2.56,1.92-5.64,4.19-9.08,6.71-1.71,1.27-3.59,2.55-5.34,4a17.64,17.64,0,0,0-2.42,2.39,10.18,10.18,0,0,0-1,1.39l-.13.23,0,.1a1.8,1.8,0,0,0-.08.21,2,2,0,0,0,.43,0,7.45,7.45,0,0,0,1.54-.23,23.49,23.49,0,0,0,6.75-3.38c2.14-1.37,4.24-2.65,6.26-3.83,4-2.36,7.75-4.33,10.89-5.95s5.71-2.86,7.5-3.69A11.17,11.17,0,0,1,266.82,468.18Z"/><path class="cls-2" d="M266.44,468.44c-.45-.07-.48-2.48-.08-5.4s1.1-5.24,1.54-5.18.48,2.48.08,5.4S266.88,468.5,266.44,468.44Z"/></g><g id="foot_right" data-name="foot right"><path d="M227.06,453l11.21,5.42c1.17,3.75,3,9.29,5.58,15.87,2.92,7.4,9.49,23,11.16,22.41,1.29-.42-.9-10.42-1.65-13.85a155.54,155.54,0,0,0-10.54-31.45l-10.73-6Z"/></g><g id="leg_right" data-name="leg right"><path class="cls-1" d="M148.23,381.45c-1.08,2.72-1,5-.93,8.21.16,5.57,1.75,9.73,3.26,13.57a67.14,67.14,0,0,0,4.81,9.68,83,83,0,0,0,11.87,15.23c2,2.16,3.64,3.67,4.86,4.82A147.53,147.53,0,0,0,201,454.21c2.18,1.21,5.3,2.85,9.18,4.63a19.77,19.77,0,0,0,4.38,0,21.15,21.15,0,0,0,7.76-2.51,21.88,21.88,0,0,0,11.37-17.63c-2.51-2.44-6.26-6.14-10.73-10.73-4.85-5-8-8.41-13.2-14-8.52-9.2-18.25-17.38-25.81-27.39a42.28,42.28,0,0,0-13.23-12.21c-5-2.85-7.88-2.88-8.78-2.86C155.91,371.66,150.36,376.13,148.23,381.45Z"/><path class="cls-2" d="M230.54,436a10.82,10.82,0,0,1-1.63-1.49c-1-1-2.53-2.53-4.44-4.5-3.84-3.92-9.35-9.64-16.13-16.74l-23.77-25c-2.24-2.35-4.51-4.8-6.87-7.2a37.73,37.73,0,0,0-7.89-6.38,17.51,17.51,0,0,0-9.85-2.42,11.65,11.65,0,0,0-4.88,1.48,12.59,12.59,0,0,0-3.84,3.51,17.55,17.55,0,0,0-3.17,9.95,34.89,34.89,0,0,0,1.48,10.38,61.65,61.65,0,0,0,8.55,18.1,96,96,0,0,0,11.7,14,149.35,149.35,0,0,0,11.88,10.68,159.13,159.13,0,0,0,19,13.22c2.35,1.4,4.22,2.43,5.48,3.14a11,11,0,0,1,1.89,1.13,11.26,11.26,0,0,1-2-.84c-1.31-.62-3.23-1.56-5.64-2.88A140.4,140.4,0,0,1,181,441.36a146.77,146.77,0,0,1-12.12-10.62,95.48,95.48,0,0,1-12-14.14A62.06,62.06,0,0,1,148,398.09a35.85,35.85,0,0,1-1.57-10.86,19.08,19.08,0,0,1,3.47-10.86,14.21,14.21,0,0,1,4.35-4,13.18,13.18,0,0,1,5.56-1.69,19,19,0,0,1,10.77,2.66,38.71,38.71,0,0,1,8.21,6.66c2.39,2.46,4.62,4.9,6.85,7.27l23.52,25.21c6.67,7.2,12,13,15.75,17.1,1.84,2,3.27,3.62,4.22,4.71A11,11,0,0,1,230.54,436Z"/><path class="cls-2" d="M233.72,437.86c.18,0,.5,2.2-.36,5.66a21.22,21.22,0,0,1-2.43,5.74,20.72,20.72,0,0,1-5.09,5.72,21.83,21.83,0,0,1-6.76,3.58,20.81,20.81,0,0,1-6.16,1,8.92,8.92,0,0,1-4.16-.81c-.92-.48-1.25-.95-1.19-1s.54.19,1.42.44a10.6,10.6,0,0,0,3.88.25,23.44,23.44,0,0,0,5.72-1.28,22.28,22.28,0,0,0,13.66-13.95C233.35,440,233.45,437.84,233.72,437.86Z"/><path class="cls-2" d="M239.66,458.85c-.11.42-3.58-.15-7.46-2a25.77,25.77,0,0,1-4.67-2.85c-.27-.21-.52-.42-.73-.6a1.94,1.94,0,0,0-.44-.34c-.27-.16-.46,0-.48-.12s0-.49.58-.51a2,2,0,0,1,.84.2c.26.11.54.25.84.4l4.77,2.36C236.63,457.16,239.78,458.4,239.66,458.85Z"/><path class="cls-2" d="M242.84,451.43a15.57,15.57,0,0,1,1.64,3.18c1,2.09,2.24,5.16,3.68,9s3,8.5,4.51,13.72c.76,2.62,1.49,5.38,2.19,8.26.36,1.43.69,2.9,1,4.4l.48,2.26a11.79,11.79,0,0,1,.33,2.46,5.56,5.56,0,0,1-.11,1.33,3.86,3.86,0,0,1-.79,1.7,5,5,0,0,1-1.33,1l-.49-.57a2.65,2.65,0,0,1-.25-.3l-.23-.45-1.22-2.38-1-2c-1.3-2.66-2.49-5.25-3.59-7.74-2.21-5-4-9.55-5.37-13.42s-2.37-7.05-3-9.26a14.73,14.73,0,0,1-.8-3.49,15.42,15.42,0,0,1,1.4,3.29c.81,2.15,2,5.25,3.48,9.05s3.39,8.3,5.65,13.21c1.14,2.46,2.35,5,3.67,7.65l1.85,3.64.12.23a.43.43,0,0,0,.2-.18.69.69,0,0,0,.1-.31,4.46,4.46,0,0,0,.08-1,11.07,11.07,0,0,0-.29-2.15q-.24-1.14-.48-2.25c-.33-1.48-.66-2.94-1-4.37-.68-2.86-1.37-5.61-2.09-8.22-1.42-5.22-2.86-9.87-4.15-13.75s-2.41-7-3.18-9.16A15.59,15.59,0,0,1,242.84,451.43Z"/><path class="cls-2" d="M242.61,451.6c-.21.39-2.81-.57-5.74-2.31s-5-3.56-4.77-3.93,2.72.82,5.61,2.53S242.82,451.2,242.61,451.6Z"/></g><g id="torso"><path class="cls-1" d="M197.18,339.8c-2,2.23-3,5-5,10.48-.55,1.52-2.3,7-4.4,19.1-.7,4-1.46,9.28-1.95,15.59,8.92,4.16,16.73,7.63,17,7.16h0s1.39-.95,1.83-.87c1.07.18.79,7.18.19,14.82a72,72,0,0,0,12.8,5.24c4.74,1.43,9,2.67,14.63,2.36a22.5,22.5,0,0,0,7.8-1.44c6.91-2.83,10.12-9.5,11.23-12.21a39.94,39.94,0,0,0-.45-5.48,41,41,0,0,0-2.61-9.41,36.17,36.17,0,0,0,10.91-14.34l12.87-.31c.49-5.7.93-10.08,1.21-12.81a54,54,0,0,0-.23-14.61,7.91,7.91,0,0,0-1-3c-2-3.38-6.49-4.09-9.3-4.55-16.83-2.76-11.35-2.77-17.8-3.2-7.52-.52-15.4-1-26.13.32C207.54,334,201.57,334.89,197.18,339.8Z"/><path class="cls-2" d="M272.06,370.41c-.12,0,.13-2.19.42-6.1a137.93,137.93,0,0,0,.24-16.61c-.05-.87-.1-1.77-.15-2.68a21.77,21.77,0,0,0-.29-2.72,4.32,4.32,0,0,0-1.12-2.27,7.54,7.54,0,0,0-2.37-1.48,59.37,59.37,0,0,0-12.41-3.95c-9-1.89-19.28-2.06-30-1.69A88.85,88.85,0,0,0,211,334.63a48.94,48.94,0,0,0-7,2.07,19.55,19.55,0,0,0-6,3.23,12.88,12.88,0,0,0-3.4,5.39c-.73,2-1.34,4.09-1.92,6.06-1.17,3.95-2.1,7.68-2.88,11.1-1.53,6.85-2.4,12.47-2.94,16.36a57.69,57.69,0,0,1-.91,6.05,5.4,5.4,0,0,1,0-1.59c0-1,.13-2.56.31-4.53a147.63,147.63,0,0,1,2.45-16.53c.7-3.46,1.58-7.23,2.7-11.23.56-2,1.13-4.06,1.88-6.19a14.06,14.06,0,0,1,3.75-6,20.67,20.67,0,0,1,6.46-3.57,51.18,51.18,0,0,1,7.25-2.17,88,88,0,0,1,15.7-1.79c10.75-.37,21.12-.16,30.34,1.85a59.43,59.43,0,0,1,12.67,4.19,9,9,0,0,1,2.74,1.8,5.6,5.6,0,0,1,1.41,2.94,21.37,21.37,0,0,1,.26,2.89c0,.92.07,1.83.1,2.71a115.47,115.47,0,0,1-.76,16.71c-.23,2-.49,3.47-.67,4.49A6.73,6.73,0,0,1,272.06,370.41Z"/><path class="cls-2" d="M246.56,386.41c-.15-.21,1.8-1.63,4.4-4.42a40.09,40.09,0,0,0,4.13-5.25,39.5,39.5,0,0,0,3.74-7.23A33.8,33.8,0,0,0,261.12,355c-.3-3.79-1.17-6-.92-6.14s1.45,2.07,2.07,6a27.31,27.31,0,0,1,.1,6.95,33.35,33.35,0,0,1-2,8.26,35.36,35.36,0,0,1-4,7.49,34.08,34.08,0,0,1-4.55,5.21C248.87,385.48,246.66,386.57,246.56,386.41Z"/><path class="cls-2" d="M250.94,400c-.47-.05-.25-3.68-1.35-7.91-.27-1.06-.6-2-.9-3a9.7,9.7,0,0,1-.5-2.7,3.67,3.67,0,0,1,.4-1.89c.22-.4.45-.55.54-.5s-.11,1,.2,2.27a14.68,14.68,0,0,0,.78,2.32,23.94,23.94,0,0,1,1.06,3.08,17.37,17.37,0,0,1,.48,5.93C251.49,399.14,251.15,400,250.94,400Z"/><path class="cls-2" d="M203.55,403.92c-.22,0-.4-2.55-.42-6.65s.13-9.78.56-16,1.05-11.89,1.63-15.95,1.1-6.56,1.32-6.53c.46.06-.48,10.14-1.33,22.59S204,403.92,203.55,403.92Z"/><path class="cls-2" d="M251.33,400.06s.06.22,0,.6c0,.2,0,.44-.09.72l-.23,1a14.13,14.13,0,0,1-3.11,5.44,19.8,19.8,0,0,1-7.72,5.22,26.1,26.1,0,0,1-11.3,1.41,52.28,52.28,0,0,1-11-2.25,43,43,0,0,1-8.57-3.38,15.42,15.42,0,0,1-4.83-4c-.91-1.18-1.18-2-1.1-2s.57.59,1.57,1.59a17.93,17.93,0,0,0,4.9,3.38,48.88,48.88,0,0,0,8.45,3A58,58,0,0,0,229,412.79a26,26,0,0,0,10.65-1.2,19.69,19.69,0,0,0,7.4-4.6,15.61,15.61,0,0,0,3.35-4.87l.37-.87.23-.66C251.17,400.24,251.27,400.05,251.33,400.06Z"/></g><g id="hair"><path d="M221.43,334.52a21,21,0,0,1-2.8,3.31,23.51,23.51,0,0,1-8.53,5c-4.67,1.64-9.3,3.27-14.08,1.16a13.34,13.34,0,0,1-6.15-5.77c-1.94-3.68-1.46-7.22-1.09-9.65a24.71,24.71,0,0,1,5.05-11.17c4-5.55,6.29-5.39,11.42-11.77,1.31-1.63.42-.72,5.42-8.06,6-8.87,8.16-11.41,11.24-13.83a21.89,21.89,0,0,1,6.48-3.74,15.61,15.61,0,0,1,9.77-.46,13.81,13.81,0,0,1,3.21,1.47,10,10,0,0,1,3.3-2.57c4.1-1.93,8.26-.19,9.46.31.61.25,3.18,1.38,6.4,5.17a34.79,34.79,0,0,1,7,14.2c1.25,4.61,2.39,8.78,1.22,14.07a22,22,0,0,1-3.34,7.71c-3.15,4.4-7.52,6.52-12.21,8.27C241.14,332.59,228.46,334,221.43,334.52Z"/></g><g id="Head"><path class="cls-1" d="M244.62,299.21a5.11,5.11,0,0,0-2.77,0c-2.52.72-3.35,3.34-5.39,6.25a27.32,27.32,0,0,1-5.86,5.85c-1.87,1.34-5.62,3.35-12.09,3.11a5.13,5.13,0,0,0-3,0c-2.45.8-3.31,3.42-3.6,4.29a9.21,9.21,0,0,0,1,7.34,9.43,9.43,0,0,0,6,4.12c.44,1.16,1.11,2.8,2,4.7a57.69,57.69,0,0,0,3.62,6.56c3.26,4.85,9,7.74,12.35,9.13a36.31,36.31,0,0,0,8.4-3.87,36.78,36.78,0,0,0,10.59-10.09,40.8,40.8,0,0,0,6.71-18.24c.21-1.37.31-2.52.38-3.33a17.33,17.33,0,0,1-4.76-2.59c-4.57-3.56-7.11-9.46-7.4-10.16-1-2.33-1.34-4.08-2.71-4.43C246.79,297.5,245.53,298.38,244.62,299.21Z"/><path class="cls-2" d="M235,349.71c-.07.18-1.47-.11-3.5-1.16a20.94,20.94,0,0,1-3.37-2.19,24,24,0,0,1-6.28-7.55,21,21,0,0,1-1.54-3.71c-.66-2.19-.7-3.62-.5-3.66s.67,1.26,1.58,3.25a32.19,32.19,0,0,0,1.77,3.38,33.46,33.46,0,0,0,2.69,3.8,32,32,0,0,0,6.24,5.69C233.85,348.81,235.07,349.48,235,349.71Z"/><path class="cls-2" d="M263.09,315c.2,0,0,2.61-.8,6.71A48.83,48.83,0,0,1,256.45,337a31,31,0,0,1-11.8,11.35c-3.79,2-6.47,2.17-6.49,2s2.45-.88,5.92-3a34.06,34.06,0,0,0,11-11.21,59.16,59.16,0,0,0,6.11-14.7C262.28,317.47,262.85,315,263.09,315Z"/><path class="cls-2" d="M240.9,312.49c.23.36-2.24,2.22-5.87,3.15s-6.68.52-6.65.08,2.87-.77,6.25-1.66S240.67,312.08,240.9,312.49Z"/><path class="cls-2" d="M256.89,319.49c-.18.39-2.47-.37-4.52-2.42s-2.86-4.3-2.47-4.5,1.74,1.51,3.61,3.34S257.11,319.08,256.89,319.49Z"/><path class="cls-2" d="M241.8,330.17c-.43,0-.76-3,.08-6.65s2.45-6.22,2.84-6-.47,2.95-1.25,6.39S242.27,330.18,241.8,330.17Z"/><path class="cls-2" d="M242,332.46c.12.44-.34.94-.92,1.33s-1.24.58-1.59.3-.13-1.14.7-1.67S241.91,332,242,332.46Z"/><path class="cls-2" d="M233.22,327.31c-.4-.23.17-1.89.66-3.92s.76-3.75,1.23-3.78.92,1.88.35,4.17S233.59,327.55,233.22,327.31Z"/><path class="cls-2" d="M249,331.23c-.4-.23.21-2.06.93-4.28s1.31-4.05,1.77-4,.56,2.12-.22,4.51S249.41,331.45,249,331.23Z"/><path class="cls-2" d="M241.18,342.83c-.21.4-1.65.07-3.34-.43s-3.08-1-3-1.46,1.64-.65,3.49-.1S241.39,342.43,241.18,342.83Z"/><path class="cls-2" d="M219.09,329.57c0,.11-.32.25-1,.29a5.89,5.89,0,0,1-2.65-.56,7.61,7.61,0,0,1-3.11-2.61,9.22,9.22,0,0,1-1.59-4.7,11,11,0,0,1,.77-4.86,5.23,5.23,0,0,1,2.87-3,3.4,3.4,0,0,1,2.82.16c.6.35.73.73.66.79s-.37-.1-.9-.21a3.2,3.2,0,0,0-2.13.32,4.37,4.37,0,0,0-1.92,2.52,11.17,11.17,0,0,0-.55,4.21,8.68,8.68,0,0,0,1.22,4,7.55,7.55,0,0,0,2.4,2.41C217.72,329.35,219.09,329.32,219.09,329.57Z"/><path class="cls-2" d="M244.67,299.32c-.1,0-.23-.48-.93-.58a1.44,1.44,0,0,0-1.11.4,13.14,13.14,0,0,0-1.31,1.39c-1,1.12-2,2.51-3.24,4.09a47.47,47.47,0,0,1-4.23,5,20.22,20.22,0,0,1-10.55,5.6,8.42,8.42,0,0,1-3.71.1c-.92-.29-1.16-.86-1.07-.9s.44.24,1.2.28a10.76,10.76,0,0,0,3.31-.6,22.38,22.38,0,0,0,9.68-5.64c1.57-1.56,2.93-3.25,4.2-4.77a47.67,47.67,0,0,1,3.57-3.94,10.16,10.16,0,0,1,1.65-1.36,2,2,0,0,1,1.78-.25,1.33,1.33,0,0,1,.81.79C244.79,299.18,244.72,299.32,244.67,299.32Z"/><path class="cls-2" d="M264.55,318.4c-.13,0-.16-.45-.48-1.11A5.73,5.73,0,0,0,262,315c-1.09-.74-2.71-1.42-4.28-2.63a21.76,21.76,0,0,1-4.41-4.51,38,38,0,0,1-3.28-5.31c-.43-.85-.83-1.66-1.18-2.42a5.7,5.7,0,0,0-1-1.78,1.44,1.44,0,0,0-1.33-.33,2.29,2.29,0,0,0-1.08.54c-.51.47-.56.94-.69.93s-.3-.53.2-1.33a2.69,2.69,0,0,1,2.41-1.17,2.35,2.35,0,0,1,1.21.46,6.16,6.16,0,0,1,1.53,2.06l1.3,2.32a51.49,51.49,0,0,0,3.26,5.05,24.34,24.34,0,0,0,4,4.31c1.37,1.16,2.88,1.92,4.05,2.89a5.43,5.43,0,0,1,2,3C264.85,318,264.64,318.42,264.55,318.4Z"/><path class="cls-2" d="M241.31,280.94a21.86,21.86,0,0,0-4.51-1.44,15.62,15.62,0,0,0-5.48.16,18.7,18.7,0,0,0-6.69,2.77,30.87,30.87,0,0,0-6.53,6,86.39,86.39,0,0,0-6,8.36c-2,3.05-4,6.39-6.42,9.62a37.42,37.42,0,0,1-4.16,4.62c-1.53,1.41-3.08,2.77-4.56,4.25-3,2.93-5.57,6.11-6.95,9.69a15.61,15.61,0,0,0-.33,10.74c1.08,3.31,3.26,6.16,6,7.39s5.92,1,8.58.64a30.1,30.1,0,0,0,12-4.51c2.57-1.67,3.8-2.9,3.9-2.79s-.24.37-.8,1a24.11,24.11,0,0,1-2.74,2.34,28.68,28.68,0,0,1-12.2,5.13,27.22,27.22,0,0,1-4.44.37,12.89,12.89,0,0,1-4.86-.91c-3.27-1.39-5.7-4.55-6.93-8.15a17.06,17.06,0,0,1,.27-11.79c1.49-3.92,4.26-7.27,7.29-10.28,1.51-1.51,3.11-2.91,4.61-4.28a36.79,36.79,0,0,0,4-4.41c2.41-3.11,4.39-6.4,6.43-9.47a84,84,0,0,1,6.28-8.41,30.78,30.78,0,0,1,6.93-6.08,19.25,19.25,0,0,1,7.15-2.7,15.52,15.52,0,0,1,5.76.12,11.49,11.49,0,0,1,3.39,1.3C241,280.61,241.34,280.9,241.31,280.94Z"/><path class="cls-2" d="M262.19,323c-.07-.1.63-.67,1.68-1.87a18.28,18.28,0,0,0,3.32-5.78,22.34,22.34,0,0,0,1.08-9.76A42,42,0,0,0,265,293.79,37.05,37.05,0,0,0,259,283.23a16.38,16.38,0,0,0-4-3.34,13.86,13.86,0,0,0-4.23-1.57,11.16,11.16,0,0,0-6.48.61c-1.44.63-2.11,1.25-2.21,1.14s.47-.85,1.93-1.71a11,11,0,0,1,6.94-1.17,14.06,14.06,0,0,1,4.71,1.52,17.13,17.13,0,0,1,4.44,3.51,36.51,36.51,0,0,1,6.43,10.95,40.79,40.79,0,0,1,3.23,12.27,22.34,22.34,0,0,1-1.51,10.31,16.14,16.14,0,0,1-3.94,5.8C263.09,322.66,262.24,323.06,262.19,323Z"/></g><g id="Layer_13" data-name="Layer 13"><path class="cls-1" d="M253.69,337.86a4.36,4.36,0,0,1,1.3-7.66,3.38,3.38,0,0,1,.87-2.13,3.74,3.74,0,0,1,4.16-.68,3.58,3.58,0,0,1,5.19-1.09,3.8,3.8,0,0,1,2.87-1.6c.48,0,1.15.21,2.86,2.14,2.23,2.52,3.39,3.83,3.54,5.89a7,7,0,0,1-.71,3.45c-1.06,2.44-2.48,2.62-4.49,5.14a21.58,21.58,0,0,0-2.91,5.42,39.08,39.08,0,0,0-2.09,6.18h1.34c.56,1.83,1.47,4.59,2.78,7.88,1.61,4.05,2.24,4.91,4.82,10.67a129,129,0,0,1,4.9,12.42,29.27,29.27,0,0,1,1.65,7.4,28.31,28.31,0,0,1-.23,6.13c-.44,3.24-.65,4.85-1.8,6.63a8.28,8.28,0,0,1-4.79,3.86c-4.36,1-8.2-3.26-8.87-4-1.6-1.78-2.07-3.27-3.19-6-1.82-4.38-1.51-2.65-5.65-11.3-4.41-9.21-8-17.85-9.69-22.19a13,13,0,0,1,1.87-3,13.62,13.62,0,0,1,4.13-3.34,20.65,20.65,0,0,1-3-8.21,13.07,13.07,0,0,1,.07-5A12.33,12.33,0,0,1,253.69,337.86Z"/><path class="cls-2" d="M251.62,358.49c-.25,0-.42-1.38-1.46-3.39-.49-1-1.17-2.19-1.81-3.64a9.43,9.43,0,0,1-.89-5.25,10.29,10.29,0,0,1,2.3-4.78,22.14,22.14,0,0,1,3-2.91c1.8-1.47,2.89-2.36,3.06-2.22s-.67,1.37-2.26,3.05a35.18,35.18,0,0,0-2.58,3,9.81,9.81,0,0,0-1.88,4.11,8.81,8.81,0,0,0,.67,4.44c.52,1.37,1.11,2.64,1.49,3.76C252.05,356.93,251.82,358.51,251.62,358.49Z"/><path class="cls-2" d="M260,333.81c-.18.16-.87-.44-1.92-1.24a6,6,0,0,0-1.91-1,2.73,2.73,0,0,0-2.21.25,4.12,4.12,0,0,0-1.35,2,2.72,2.72,0,0,0-.06,1.9c.42,1.06,1.32,1.19,1.33,1.4s-.22.27-.7.23a2.33,2.33,0,0,1-1.64-1.07,3.62,3.62,0,0,1-.38-2.87,5.86,5.86,0,0,1,.62-1.53,4.19,4.19,0,0,1,1.27-1.4,4,4,0,0,1,3.58-.33,5.63,5.63,0,0,1,2.23,1.58C259.86,332.85,260.19,333.67,260,333.81Z"/><path class="cls-2" d="M264.32,331.23c-.21.1-.66-.47-1.45-1.19a8.4,8.4,0,0,0-3.48-2,4.22,4.22,0,0,0-2-.05,3,3,0,0,0-1.38.79c-.69.67-.76,1.38-1,1.4s-.24-.16-.3-.54a2.53,2.53,0,0,1,.37-1.55,3.66,3.66,0,0,1,1.85-1.53,4.85,4.85,0,0,1,2.88-.1,6.83,6.83,0,0,1,4,2.83C264.43,330.35,264.51,331.14,264.32,331.23Z"/><path class="cls-2" d="M267.68,330.62c-.22.08-.57-.41-1-1.18a8.54,8.54,0,0,0-1.92-2.47,3.34,3.34,0,0,0-2.63-.58c-.7.14-1.08.56-1.29.45s-.14-.23,0-.52a2,2,0,0,1,.86-1,3.74,3.74,0,0,1,4.1.34,5.84,5.84,0,0,1,2,3.34C267.93,330,267.88,330.56,267.68,330.62Z"/><path class="cls-2" d="M264.26,353.57c-.1,0-.24-.52-.21-1.48a11.57,11.57,0,0,1,.93-3.95,24.54,24.54,0,0,1,3-5.15c1.31-1.79,2.86-3.63,4.18-5.71a17.57,17.57,0,0,0,.91-1.56,6.62,6.62,0,0,0,.64-1.49,4.11,4.11,0,0,0-.58-2.78,21.57,21.57,0,0,0-3.08-4.71,6.57,6.57,0,0,0-1.49-1.41,1.57,1.57,0,0,0-1.31-.21c-.77.24-.85.81-1,.79s-.12-.14-.07-.42a1.51,1.51,0,0,1,.78-.95,2.19,2.19,0,0,1,2,0,6.62,6.62,0,0,1,1.94,1.44,19.55,19.55,0,0,1,3.58,4.83,9.44,9.44,0,0,1,.72,1.69,4.13,4.13,0,0,1,.07,2.13,8.11,8.11,0,0,1-.75,1.87c-.29.57-.62,1.14-1,1.69a70.62,70.62,0,0,1-4.37,5.74,30.18,30.18,0,0,0-3.17,4.72C264.52,351.49,264.52,353.58,264.26,353.57Z"/><path class="cls-2" d="M265.46,353.08c.07.22-1.1.8-3,1.6s-4.59,1.85-7.36,3.26c-5.61,2.73-9,6.73-9.38,6.35-.16-.14.52-1.26,2-2.84a22.94,22.94,0,0,1,6.69-5,40.12,40.12,0,0,1,7.73-2.9C264.1,353.06,265.39,352.87,265.46,353.08Z"/><path class="cls-2" d="M279.55,390.36c-.26,0-.69-2.16-1.79-5.57-.53-1.71-1.29-3.71-2.17-5.91s-2-4.58-3.13-7.09A135.27,135.27,0,0,1,267,358.71c-1.16-3.46-1.52-5.71-1.32-5.76s1,2.05,2.4,5.35,3.58,7.79,5.91,12.81c1.16,2.52,2.2,5,3,7.23a50.81,50.81,0,0,1,1.89,6.14C279.71,388.06,279.74,390.34,279.55,390.36Z"/><path class="cls-2" d="M279.6,388.6a8.24,8.24,0,0,1,.5,3,36.2,36.2,0,0,1-.32,8.2,14.84,14.84,0,0,1-2,5.48,8,8,0,0,1-2.35,2.44,6.82,6.82,0,0,1-3.5,1.09,9.67,9.67,0,0,1-6.91-3,25.27,25.27,0,0,1-4.39-6.51c-4.89-9.27-8.8-17.94-11.38-24.3-1.3-3.18-2.28-5.78-2.91-7.59a10.8,10.8,0,0,1-.82-2.88c.22-.09,1.93,3.79,4.78,10s6.9,14.77,11.77,24a24.66,24.66,0,0,0,4.07,6.14,8.3,8.3,0,0,0,5.76,2.61,5.45,5.45,0,0,0,2.76-.8,6.83,6.83,0,0,0,2-2,14.4,14.4,0,0,0,1.95-4.95,47.53,47.53,0,0,0,.82-8A14.14,14.14,0,0,1,279.6,388.6Z"/></g><g id="arm_right" data-name="arm right"><path class="cls-1" d="M208,324.8a8.32,8.32,0,0,0-1.8,3.94,10.69,10.69,0,0,0-.33,2.76c.09,2.53,1.52,4.2,3.35,6.7,1.19,1.63,2.84,4,4.69,7.07l-3.33,5.86c-3.48,4.26-6.15,7.5-7.48,9.12,0,0-8.35,10.14-15.95,21.78a19,19,0,0,0-3.27,8.58,13.81,13.81,0,0,0,.63,6.14,12.52,12.52,0,0,0,3.61,5.23,12.24,12.24,0,0,0,7,2.74,19.56,19.56,0,0,0,5.9-4.31c1.43-1.53,2-2.67,4.24-6.5,2.07-3.57,3.89-6.55,4.74-7.92a99.83,99.83,0,0,1,6.33-8.92,121.08,121.08,0,0,1,12.46-13.68,22.87,22.87,0,0,0-2.68-4.13,23.25,23.25,0,0,0-4.14-3.94,11.7,11.7,0,0,0,4.17-3.81,12.21,12.21,0,0,0,1.87-5.42,16.73,16.73,0,0,0-2-10,5.56,5.56,0,0,0,2.44-2.8,4.74,4.74,0,0,0-5-6.67,5.23,5.23,0,0,0-2.64-1.95,5.15,5.15,0,0,0-3.39.09,2.63,2.63,0,0,0-2-2.37,2.68,2.68,0,0,0-2.17.59A7,7,0,0,0,208,324.8Z"/><path class="cls-2" d="M226.77,332.16c0,.12-.41.12-.84.51a1.48,1.48,0,0,0-.44.84c-.05.32.11.64.47,1.12a15.41,15.41,0,0,1,3,9.34,15.21,15.21,0,0,1-3.27,9.27c-1.6,2-3,2.74-3.13,2.58s.94-1.24,2.19-3.25a16.61,16.61,0,0,0,2.58-8.62,17.1,17.1,0,0,0-2.38-8.7,3.92,3.92,0,0,1-.41-.93,1.79,1.79,0,0,1,0-1,2,2,0,0,1,1-1.15C226.35,331.78,226.81,332.07,226.77,332.16Z"/><path class="cls-2" d="M226,336.08c-.09-.22,1-.67,1.55-2.12a4.85,4.85,0,0,0,.27-2.64,6.59,6.59,0,0,0-1.2-3.06,2,2,0,0,0-2.44-.71,6.82,6.82,0,0,0-2.23,1.61,7.27,7.27,0,0,1-1.72,1.33c-.49.23-.81.21-.85.11s.17-.29.48-.63a19.24,19.24,0,0,0,1.23-1.58,6.88,6.88,0,0,1,2.52-2.23,3.5,3.5,0,0,1,2.25-.26,3.68,3.68,0,0,1,2,1.34,6.43,6.43,0,0,1,1,2,8.54,8.54,0,0,1,.39,2,5.53,5.53,0,0,1-.75,3.34,3.66,3.66,0,0,1-1.72,1.52C226.35,336.22,226,336.18,226,336.08Z"/><path class="cls-2" d="M223.46,326.62c-.21.1-.61-.36-1.36-.76a3.49,3.49,0,0,0-3-.24,4.45,4.45,0,0,0-1.87,1.55,4.91,4.91,0,0,1-1.58,1.39l-.27.11-.06,0c-.28-.2-.42-.37-.39-.49s.25-.18.6-.18l-.33.07c.22-.36.49-.88.9-1.64a6.21,6.21,0,0,1,.86-1.24,4.1,4.1,0,0,1,1.56-1,4.19,4.19,0,0,1,2.51-.15,3.89,3.89,0,0,1,1.75,1C223.61,325.79,223.65,326.54,223.46,326.62Z"/><path class="cls-2" d="M218.38,324.52c-.19.15-.7-.25-1.56-.43a3.27,3.27,0,0,0-1.46,0,3.06,3.06,0,0,0-1.47.88,26,26,0,0,1-2.7,3c-1,.73-1.8.65-1.82.45s.48-.54,1-1.28a29.26,29.26,0,0,1,2.35-3.32,4,4,0,0,1,2.38-1.22,3.74,3.74,0,0,1,2.12.4C218.33,323.62,218.55,324.42,218.38,324.52Z"/><path class="cls-2" d="M214.14,323.81c-.16.19-.7-.08-1.54-.15a4.79,4.79,0,0,0-3,.67,3.56,3.56,0,0,0-1.14,1.18c-.28.47-.5,1-.74,1.43-.46.9-1,1.36-1.19,1.22s-.05-.68.1-1.61a9.08,9.08,0,0,1,.49-1.71,4.16,4.16,0,0,1,1.59-1.87,4.58,4.58,0,0,1,4.21-.42C214,323,214.28,323.68,214.14,323.81Z"/><path class="cls-2" d="M213.8,347.18c-.24,0-.29-1.31-1.21-3.08a17,17,0,0,0-2-2.94c-.84-1.05-1.87-2.17-2.87-3.49a13,13,0,0,1-2.24-4.2,7.36,7.36,0,0,1-.13-4,11.84,11.84,0,0,1,1.09-2.31c.24-.48.26-.8.38-.82s.31.32.23,1-.47,1.45-.57,2.37A7.1,7.1,0,0,0,207,333a13.65,13.65,0,0,0,2.11,3.68c.94,1.24,1.95,2.4,2.77,3.57a13.49,13.49,0,0,1,1.82,3.39C214.39,345.78,214,347.22,213.8,347.18Z"/><path class="cls-2" d="M211.08,351.45c-.4-.21-.1-1.74.67-3.43s1.74-2.91,2.16-2.75.11,1.7-.67,3.43S211.48,351.66,211.08,351.45Z"/><path class="cls-2" d="M228.8,363.38c-.24.09-.77-1.11-2-2.74A21.19,21.19,0,0,0,221,355.4a38.11,38.11,0,0,0-7.31-3.25c-2-.67-3.22-1.09-3.18-1.32s1.37-.19,3.47.21a24.36,24.36,0,0,1,7.86,3,16.64,16.64,0,0,1,6,6C228.84,362,229,363.33,228.8,363.38Z"/><path class="cls-2" d="M194.2,404.5a4.73,4.73,0,0,1-2.69-.2,11.26,11.26,0,0,1-6-4.34,12.89,12.89,0,0,1-2.18-4.71,14.17,14.17,0,0,1,0-6c.81-4.17,3.23-8.15,5.91-11.95,5.39-7.62,10.63-14.24,14.57-18.91s6.56-7.39,6.73-7.25-2.13,3.14-5.83,8S196,370.68,190.6,378.25c-2.66,3.76-5,7.53-5.78,11.32a13.33,13.33,0,0,0-.14,5.39,12.37,12.37,0,0,0,1.81,4.35,11.48,11.48,0,0,0,5.23,4.39C193.25,404.3,194.21,404.35,194.2,404.5Z"/><path class="cls-2" d="M193.41,405.16c0-.13.74-.3,2-.88a14.49,14.49,0,0,0,4.51-3.46,36.29,36.29,0,0,0,4.68-7.21c1.57-2.91,3.42-6.07,5.54-9.26A113.79,113.79,0,0,1,222.32,369c3.48-3.62,5.89-5.58,6-5.44s-1.95,2.43-5.17,6.22a161.36,161.36,0,0,0-11.71,15.45c-2.09,3.16-3.95,6.24-5.59,9.1a33.09,33.09,0,0,1-5.15,7.26,13.12,13.12,0,0,1-5.11,3.26C194.24,405.3,193.43,405.25,193.41,405.16Z"/></g></g></svg>