<svg id="Layer_Character1" xmlns="http://www.w3.org/2000/svg" viewBox="0 0 556.2 496.74">
  <title>Search</title>
  <g id="Leg_right" data-name="Leg right">
    <path d="M475.94,258.25c1.67-3.75,2.88-6.85,3.66-8.94,2.32-6.22,2.83-8.83,5.34-12.74,1.79-2.8,3.22-5,6-5.93.38-.13,4.24-1.47,7.39.57a8.16,8.16,0,0,1,3,3.92c2.51,5.88,3.42,10.88,4.53,15.6.81,3.45,1.75,6.68,3.64,13.15,1.61,5.55,1.75,5.66,2.33,8.11,1.26,5.28,1,6.56,2.38,11.65,1.06,4,1.34,3.75,2.11,7a54.49,54.49,0,0,1,.08,23.77c-.85,4.4-1.41,5-2,5.24-2.62.87-7.15-6.35-7.83-7.43-3.75-6-5.05-11.82-6.11-16.75-1.33-6.19-1-8-2.81-13.13a49.94,49.94,0,0,0-3.76-8C488.63,265.63,480.46,260.6,475.94,258.25Z"/>
    <path d="M332,306.8c1.16,7.94,2.84,17.24,5.33,27.56A305.52,305.52,0,0,0,361,399.16c4.78,9.59,8.55,15.92,14.77,26.34,0,0,4.44,7.44,16.2,23.33,3.77,5.09,6.83,9,12.29,11a22.94,22.94,0,0,0,12.64.53c4.72-1,10.2-3.39,17-10.1,7.8-7.75,11.79-15.72,17-27.52,8.28-18.65,13.54-33,13.9-34,7.87-21.67,12.79-38.38,14.27-43.5,4.3-14.79,7.68-26.43,10.74-42.52a351.45,351.45,0,0,0,5.06-37.47,68.28,68.28,0,0,0-18.88-6.92,70.31,70.31,0,0,0-22.28-.89,71.32,71.32,0,0,0-17.64,4.4q-4.68,9.84-9.19,21c-4,10-7.37,19.62-10.17,28.67A143.17,143.17,0,0,0,405.46,293a101.44,101.44,0,0,0-14-16.49c-6.32-5.86-12-11.11-17.31-12.25C361.83,261.62,344.74,279.36,332,306.8Z" fill="#fff"/>
    <path d="M490,299.87a3.21,3.21,0,0,1-.1.9c-.1.59-.26,1.47-.46,2.62l-.8,4.24-1.2,5.76c-1.87,8.66-4.75,21.17-9.17,36.39S468,383,460.23,402.44q-2.91,7.31-6.17,14.87c-2.19,5-4.39,10.2-7.05,15.28a83.52,83.52,0,0,1-9.48,14.72,46.88,46.88,0,0,1-6.34,6.42,43.26,43.26,0,0,1-3.66,2.76,37.72,37.72,0,0,1-4,2.25,30.47,30.47,0,0,1-8.76,2.84,21.41,21.41,0,0,1-9.15-.46,20.15,20.15,0,0,1-7.84-4.52,47.59,47.59,0,0,1-5.84-6.51,305.29,305.29,0,0,1-18.61-27.15c-5.46-9-10.17-17.77-14.25-26.16s-7.39-16.44-10.26-23.83a298.32,298.32,0,0,1-11.07-35.87c-.5-2.15-1-4.07-1.32-5.74s-.62-3.08-.84-4.23-.38-2-.49-2.61a4.3,4.3,0,0,1-.11-.9,4,4,0,0,1,.28.87c.14.58.36,1.44.64,2.57l1,4.2c.4,1.65.92,3.55,1.47,5.69a326.39,326.39,0,0,0,11.53,35.6c2.93,7.34,6.3,15.32,10.4,23.66s8.84,17.06,14.31,26a307.81,307.81,0,0,0,18.59,27,46.29,46.29,0,0,0,5.65,6.29,18.75,18.75,0,0,0,7.21,4.16,19.89,19.89,0,0,0,8.46.41,28.53,28.53,0,0,0,8.3-2.7,34.43,34.43,0,0,0,3.85-2.15,39.24,39.24,0,0,0,3.51-2.64,45.46,45.46,0,0,0,6.13-6.2,71.64,71.64,0,0,0,5.07-7c1.51-2.44,2.95-4.9,4.24-7.42,2.64-5,4.84-10.14,7-15.16s4.25-10,6.2-14.81c7.8-19.4,13.83-37.26,18.34-52.42s7.6-27.6,9.66-36.21c.51-2.15,1-4.07,1.35-5.72s.69-3.07.95-4.21l.62-2.58A5,5,0,0,1,490,299.87Z" stroke="#000" stroke-miterlimit="10" stroke-width="0.5"/>
    <path d="M394.46,278.13" fill="none" stroke="#000" stroke-miterlimit="10" stroke-width="0.5"/>
    <path d="M424.81,327.86c-.21.1-2.08-3.44-5.09-9.15s-7.22-13.58-12.59-21.8c-2.7-4.09-5.47-7.86-8.12-11.17-1.37-1.62-2.63-3.2-3.93-4.57-.64-.69-1.24-1.38-1.84-2l-1.78-1.79c-4.54-4.54-7.73-7-7.56-7.2a9.32,9.32,0,0,1,2.41,1.49l1.23.88c.44.34.9.72,1.4,1.13,1,.83,2.15,1.74,3.32,2.87l1.87,1.74c.64.62,1.27,1.3,1.94,2,1.36,1.35,2.67,2.92,4.09,4.53A125.82,125.82,0,0,1,408.49,296a187.82,187.82,0,0,1,12.26,22.17C423.51,324.05,425,327.77,424.81,327.86Z" stroke="#000" stroke-miterlimit="10" stroke-width="0.5"/>
    <path d="M485.81,319.18c-.23-.06.39-2.94,1.38-7.59s2.27-11.08,3.41-18.23S492.5,279.7,493,275s.81-7.66,1-7.65.32,3,.11,7.74a176.2,176.2,0,0,1-5.85,36.79C487,316.47,486,319.24,485.81,319.18Z" stroke="#000" stroke-miterlimit="10" stroke-width="0.5"/>
    <path d="M433.16,265.64c.21.08-.54,2.65-1.89,6.75s-3.29,9.72-5.48,15.92-4.19,11.81-5.7,15.85-2.53,6.51-2.75,6.44.43-2.67,1.66-6.81,3.07-9.81,5.26-16,4.3-11.78,5.93-15.78S433,265.57,433.16,265.64Z" stroke="#000" stroke-miterlimit="10" stroke-width="0.5"/>
    <path d="M487.34,261.53c-.09.25-2.87-.71-7.46-1.77-1.15-.27-2.41-.55-3.77-.77s-2.83-.46-4.36-.68a85,85,0,0,0-10.08-.62,86,86,0,0,0-10.06.7c-1.54.24-3,.43-4.36.72s-2.61.53-3.76.8c-4.58,1.1-7.35,2.09-7.45,1.84s2.57-1.54,7.15-2.95c1.14-.35,2.41-.71,3.78-1s2.86-.6,4.42-.88a71.94,71.94,0,0,1,10.28-.85,71.15,71.15,0,0,1,10.28.76c1.57.27,3.06.5,4.43.84s2.64.64,3.79,1C484.76,260,487.41,261.36,487.34,261.53Z" stroke="#000" stroke-miterlimit="10" stroke-width="0.5"/>
    <path d="M483.52,240.23c.4.24-1.3,3.82-2.86,8.42s-2.43,8.46-2.9,8.4-.28-4.16,1.36-8.93S483.15,240,483.52,240.23Z" stroke="#000" stroke-miterlimit="10" stroke-width="0.5"/>
    <path d="M494.57,243.56c.43.06.17,4.5-1.27,9.77s-3.43,9.23-3.83,9.07.87-4.34,2.26-9.5S494.11,243.5,494.57,243.56Z" stroke="#000" stroke-miterlimit="10" stroke-width="0.5"/>
    <path d="M515.78,285.21a11.59,11.59,0,0,1-1.18-2.8c-.66-1.84-1.57-4.52-2.62-7.85-2.12-6.65-4.86-15.9-7.61-26.19-.67-2.58-1.33-5.09-2-7.52a25.12,25.12,0,0,0-2.39-6.57,7,7,0,0,0-4.51-3.62,7.54,7.54,0,0,0-5.07.89A11.84,11.84,0,0,0,487,234.4a26.44,26.44,0,0,0-2.06,2.82,13.13,13.13,0,0,1-1.73,2.5,9.78,9.78,0,0,1,1.18-2.82,21.79,21.79,0,0,1,1.9-3.07,12.19,12.19,0,0,1,3.6-3.29,8.72,8.72,0,0,1,5.91-1.2,7.18,7.18,0,0,1,3.16,1.43,10.14,10.14,0,0,1,2.36,2.73,26,26,0,0,1,2.66,6.95l2,7.5c2.78,10.26,5.31,19.55,7.13,26.29S516,285.14,515.78,285.21Z" stroke="#000" stroke-miterlimit="10" stroke-width="0.5"/>
    <path d="M514.21,283.68a11.89,11.89,0,0,1,1.44,3.25,50,50,0,0,1,2.23,9.43,58.79,58.79,0,0,1,.46,6.7,53.78,53.78,0,0,1-.52,7.71c-.09.67-.19,1.35-.33,2s-.24,1.38-.41,2.07-.31,1.4-.52,2.1l-.28,1.06a7.23,7.23,0,0,1-.4,1.15,2.28,2.28,0,0,1-1.14,1.19,2.32,2.32,0,0,1-1.65,0,9.68,9.68,0,0,1-2.19-1.14,13.24,13.24,0,0,1-3.35-3.53,40.82,40.82,0,0,1-3.86-8.36c-1-2.76-1.92-5.45-2.71-8-1.6-5.16-2.61-9.93-3.53-13.86a48.81,48.81,0,0,0-3-9,33.42,33.42,0,0,1-1.56-3.16,9.44,9.44,0,0,1,2.12,2.87,40,40,0,0,1,3.51,9c1.08,3.94,2.19,8.62,3.85,13.7.82,2.55,1.74,5.2,2.77,7.91a40.84,40.84,0,0,0,3.73,8,11.26,11.26,0,0,0,2.92,3.1,8,8,0,0,0,1.77.95.8.8,0,0,0,.52.06c.08,0,.2-.15.32-.39a18.06,18.06,0,0,0,.6-1.94c.21-.68.36-1.36.52-2s.3-1.35.43-2,.25-1.33.34-2a56.28,56.28,0,0,0,.66-7.49,64.37,64.37,0,0,0-.26-6.57C515.88,288.48,513.91,283.77,514.21,283.68Z" stroke="#000" stroke-miterlimit="10" stroke-width="0.5"/>
  </g>
  <g id="Leg_left" data-name="Leg left">
    <path d="M504.62,308a111.54,111.54,0,0,0,7.72-16c.95-2.49,3-6.19,7.11-13.6,1-1.8,2.26-4,3.94-4s2.71,1.88,4,4.17a88.9,88.9,0,0,1,5.62,12c2.65,7.43,3.11,5.94,6.1,13.91,1,2.77,2.3,7.17,4.78,15.87,1.47,5.14,2.8,9.82,4.51,16.26,2,7.47,1.35,5.55,3.53,13.82a97.62,97.62,0,0,1,2.35,9.85c.44,2.7.24,2.53.9,10.41s1,9.64-.4,11.66c-.09.14-2.15,3.06-4.82,2.88-.9-.06-2.8-.54-5.49-5.54-2.31-4.28-2.59-7-4.36-14.52-1.71-7.25-1.91-6.67-3.43-13.5-.91-4.09-1-5-2.29-11-.73-3.36-1.6-7.4-2.29-10.07a80.34,80.34,0,0,0-7.32-18.31q-5,5.61-10.07,11.21Q509.65,315.74,504.62,308Z"/>
    <path d="M364.1,304.29q6.43,14,12.86,28l17.69-1.56c.5,3.72,1.19,8.74,2.06,14.68,2.47,16.79,4.9,30.69,7.56,45,4.51,24.31,1.88,7.94,14.54,66,1.52,6.95,4.07,18.71,13.5,28.7,3,3.14,8,8.33,16.1,10.11,10.62,2.34,19.5-2.73,22.79-4.62,4.65-2.65,12.53-8.39,21-26.49,6.14-13.17,6.5-19.87,12.92-48.59,5.42-24.28,5.66-21.72,9.89-41.65,4.11-19.37,6.8-35.54,8.51-46.89a86.42,86.42,0,0,0-8-10.75,54.75,54.75,0,0,0-10-9.57,33.1,33.1,0,0,0-8.9-5c-7.27-2.46-14.21-.79-18.19.62-3-11.91-5.77-21.71-7.91-28.82-4.09-13.61-5.8-17.6-7.87-21.46-3.31-6.16-7.15-13.32-15-19-5-3.61-10.6-5.32-21.66-8.59-8.35-2.47-15.44-4-20.52-5Z" fill="#fff"/>
    <path d="M394.64,330.73c0,.46-3.93.91-8.79,1.34s-8.81.67-8.88.22,3.82-1.42,8.74-1.84S394.63,330.29,394.64,330.73Z" stroke="#000" stroke-miterlimit="10" stroke-width="0.5"/>
    <path d="M522.67,328a4.76,4.76,0,0,1,.05,1c0,.64,0,1.6,0,2.86-.08,2.51-.31,6.22-.93,11s-1.63,10.5-3.07,17.12-3.22,14.13-5.14,22.44c-3.89,16.6-8.53,36.36-13.68,58.31-1.3,5.49-2.68,11.12-4.5,16.77-.89,2.83-1.92,5.66-3.1,8.46a68.78,68.78,0,0,1-4.08,8.26,54.94,54.94,0,0,1-5.36,7.72,42.36,42.36,0,0,1-6.95,6.62,45.41,45.41,0,0,1-8.41,4.9,37.25,37.25,0,0,1-9.5,2.72,28.73,28.73,0,0,1-9.92-.14,26.8,26.8,0,0,1-9.12-3.63,31.15,31.15,0,0,1-7.09-6.54,52.18,52.18,0,0,1-5.18-7.85c-6-10.91-9.13-22.51-11.82-33.45-5.33-21.93-9.06-41.91-12-58.71s-5-30.46-6.39-39.89l-1.57-10.87-.36-2.83a3.74,3.74,0,0,1-.07-1,3.66,3.66,0,0,1,.23.95c.12.63.3,1.57.53,2.8l1.87,10.82c1.6,9.4,3.85,23,6.89,39.78s6.92,36.7,12.3,58.57c2.73,10.88,5.91,22.35,11.77,33,2.91,5.27,6.58,10.42,11.75,13.8a25.23,25.23,0,0,0,8.55,3.39,27.33,27.33,0,0,0,9.38.13,35.66,35.66,0,0,0,9.08-2.61,42.8,42.8,0,0,0,8.09-4.7,45.6,45.6,0,0,0,11.9-13.85,66.44,66.44,0,0,0,4-8.06c1.16-2.75,2.18-5.53,3.07-8.32,1.81-5.58,3.2-11.18,4.52-16.65l14-58.23c2-8.29,3.86-15.77,5.38-22.36s2.62-12.32,3.32-17,1-8.39,1.23-10.89c.09-1.25.15-2.2.2-2.84A4,4,0,0,1,522.67,328Z" stroke="#000" stroke-miterlimit="10" stroke-width="0.5"/>
    <path d="M488.45,380.15a8.87,8.87,0,0,1-.3-1.89c-.13-1.24-.32-3.07-.56-5.43-.49-4.71-1.18-11.53-2.24-19.94a590.88,590.88,0,0,0-11.94-65q-1.14-4.71-2.33-9.27t-2.48-8.94a117.17,117.17,0,0,0-6.14-16.34A62.26,62.26,0,0,0,454.1,240a41.07,41.07,0,0,0-10.29-8.88,44.24,44.24,0,0,0-10.34-4.49c-3.2-1-6-1.58-8.35-2.06l-5.35-1a9.56,9.56,0,0,1-1.86-.45,7.44,7.44,0,0,1,1.91.13c1.24.14,3.07.37,5.41.75a78.76,78.76,0,0,1,8.49,1.81,43.2,43.2,0,0,1,10.67,4.37,41.3,41.3,0,0,1,10.74,9,62.72,62.72,0,0,1,8.69,13.5,114.8,114.8,0,0,1,6.3,16.53c.9,2.93,1.74,5.93,2.52,9s1.6,6.16,2.35,9.31a514.22,514.22,0,0,1,11.5,65.29c.92,8.44,1.44,15.29,1.73,20,.15,2.37.21,4.21.26,5.46A7.76,7.76,0,0,1,488.45,380.15Z" stroke="#000" stroke-miterlimit="10" stroke-width="0.5"/>
    <path d="M522.2,325c-.23.12-1.68-2.51-4.74-6.21a78.09,78.09,0,0,0-5.76-6.15c-1.14-1.1-2.36-2.24-3.66-3.39a46.58,46.58,0,0,0-4.09-3.36,23.42,23.42,0,0,0-9.22-3.89,36.54,36.54,0,0,0-8.3-.58c-4.79.22-7.74.86-7.79.59s2.81-1.22,7.71-1.74a33,33,0,0,1,8.65.26,23.48,23.48,0,0,1,9.89,4,44.05,44.05,0,0,1,4.22,3.5q2,1.79,3.65,3.52a59.51,59.51,0,0,1,5.61,6.51C521.27,322.09,522.37,325,522.2,325Z" stroke="#000" stroke-miterlimit="10" stroke-width="0.5"/>
    <path d="M554.24,360.21a31.77,31.77,0,0,1-1.46-4.82c-.84-3.14-2.06-7.67-3.56-13.26s-3.35-12.24-5.5-19.59c-1.07-3.67-2.22-7.52-3.44-11.51s-2.49-8.1-3.94-12.25c-2.89-8.3-6.44-16-11.14-21.9a5.27,5.27,0,0,0-1.7-1.73c-.54-.23-1.11,0-1.65.6a9.45,9.45,0,0,0-1.34,2.1c-.42.77-.82,1.54-1.22,2.29-1.62,3-3.12,5.8-4.49,8.36-2.75,5.1-5,9.21-6.59,12a29.43,29.43,0,0,1-2.61,4.32,30.08,30.08,0,0,1,2-4.61c1.42-2.92,3.51-7.12,6.13-12.29l4.31-8.45,1.18-2.31a10.74,10.74,0,0,1,1.52-2.42,3.78,3.78,0,0,1,1.37-1,2.57,2.57,0,0,1,1.89,0,3.93,3.93,0,0,1,1.39,1c.36.38.64.76.94,1.14,4.91,6.08,8.58,13.91,11.5,22.29,1.47,4.19,2.72,8.34,3.93,12.33s2.32,7.87,3.35,11.56c2.07,7.39,3.81,14.08,5.18,19.71s2.4,10.22,3.06,13.4A29.24,29.24,0,0,1,554.24,360.21Z" stroke="#000" stroke-miterlimit="10" stroke-width="0.5"/>
    <path d="M529,305.57c.4.16-.72,3.67-3.39,7.28s-5.66,5.75-5.94,5.42,2.1-2.92,4.62-6.38S528.56,305.37,529,305.57Z" stroke="#000" stroke-miterlimit="10" stroke-width="0.5"/>
    <path d="M553.39,359.25a16.58,16.58,0,0,1,1.17,4.09,64.68,64.68,0,0,1,1.36,11.51c0,1.23.05,2.51,0,3.85a12.22,12.22,0,0,1-.69,4.3,5,5,0,0,1-1.45,2,4.42,4.42,0,0,1-2.44,1,6.32,6.32,0,0,1-4.85-1.78,13,13,0,0,1-2.83-4.38c-.67-1.58-1.25-3.2-1.89-4.85-1.14-3.34-2.23-6.84-3.12-10.46-1.84-7.24-3.09-14.22-4.38-20.52s-2.56-11.93-3.92-16.58c-.36-1.15-.66-2.27-1-3.3l-1-2.92c-.64-1.81-1.29-3.33-1.76-4.61A20.87,20.87,0,0,1,525,312.7a21.39,21.39,0,0,1,2.16,3.66c.57,1.24,1.31,2.75,2,4.55l1.13,2.9c.39,1,.73,2.15,1.13,3.31a168.54,168.54,0,0,1,4.29,16.61c1.37,6.3,2.67,13.25,4.49,20.42.88,3.59,2,7,3,10.33,1.28,3.19,2.16,6.63,4.25,8.67a4.93,4.93,0,0,0,3.7,1.45,3.21,3.21,0,0,0,2.76-2.12,11.09,11.09,0,0,0,.68-3.82c.07-1.32.09-2.58.1-3.79a80,80,0,0,0-.84-11.42A31.45,31.45,0,0,1,553.39,359.25Z" stroke="#000" stroke-miterlimit="10" stroke-width="0.5"/>
  </g>
  <g id="Arm_right" data-name="Arm right">
    <path d="M199.53,148a145.18,145.18,0,0,0-10.82,12.11c-9.16,11.47-14.77,22.38-18.05,28.18-9.66,17-11,21.59-18.25,30.37a106.73,106.73,0,0,1-9.65,10.26c-7.06,5.36-12.74,9.64-16.31,12.32-28.87,21.69-29.14,21.24-36.88,27.86-5.24,4.48-7.75,6.94-13.08,10.48-2.7,1.8-7.37,4.69-19.57,10-15.67,6.85-17.51,6.23-28.43,11.79a65.9,65.9,0,0,0-16.75,11.45c-4.65,4.45-6.68,7.85-7.87,10.42-1.84,4-4.62,11.53-2,13.59a4.13,4.13,0,0,0,4.1.07c1.41-.73,1.91-2.14,2.51-3.42.66-1.43,2.09-3.25,4.94-6.88a43.46,43.46,0,0,1,10.32-9.68c1.07-.69,2-1.2,2.58-1.51-.72,2-1.88,5.28-3.32,9.3-3,8.29-3.47,9.45-4.13,12.12A53.39,53.39,0,0,0,17.19,349a44.75,44.75,0,0,0,1.31,10.37c.94,3.85,1.88,5.5,3.32,5.95a2.94,2.94,0,0,0,2.23-.23c.84-.52,1.13-1.52,1.58-5.77.26-2.49.25-2.95.4-4.17a32.16,32.16,0,0,1,1.32-5.94,42.3,42.3,0,0,0,2.88,15.61c1.62,4.07,2.66,4.61,3.32,4.61,1.65,0,2.92-3.5,3.91-6.24a42.74,42.74,0,0,0,2.15-9.89c.7-6,.09-6.76.86-9.89A22.3,22.3,0,0,1,45,334.57c.1,1.22.25,3,.45,5.16.37,3.93.72,7.16,1,9.64,1.34,11.63,2,13.72,3.57,15.84.5.67,2.81,3.63,4.38,3.1,1.12-.38,1.19-2.34,1.78-6.43,1.12-7.7,1.78-6.92,1.94-10.75A41.9,41.9,0,0,0,57,340.59c-.66-3.06-1.46-5.33-1.29-9,.11-2.25.18-3.47,1.08-4.51,1.35-1.58,3.39-1.39,9.23-1.69a53.06,53.06,0,0,0,7.86-.65c2.62-.68,6.1-2.52,9.57-7.77.78,1.64,2,4,3.48,6.86.76,1.41,2,3.73,7.73,12.88,4.52,7.28,5.7,9,7.32,11.13s3.23,4,4.31,5.17a11.55,11.55,0,0,0,4.34-.24,13.15,13.15,0,0,0,7-5.08c9.35-12.11,14-18.17,15-19.86.38-.65,6-8.22,17.2-23.36,5.92-8,16.11-21.76,29.31-37.45,10.84-12.9,15.12-16.87,28.94-33.8,6-7.31,8.86-11.08,11.75-15.12,13.57-18.94,17-29.41,17.83-32.15,2.83-9.15,4.27-13.8,2.7-18.89C236.84,155.63,220.26,148.68,199.53,148Z" fill="#fff"/>
    <path d="M142.84,231c-.23-.2,3.48-4.46,8.57-12l2-3c.69-1,1.35-2.14,2.07-3.27,1.45-2.24,2.89-4.71,4.43-7.29,3-5.2,6.28-11,9.71-17s6.84-11.76,10.12-16.84c1.69-2.51,3.25-4.93,4.88-7.08.8-1.08,1.55-2.15,2.31-3.13l2.26-2.8c1.4-1.81,2.84-3.31,4.06-4.66.61-.67,1.18-1.3,1.72-1.86l1.54-1.47a18.49,18.49,0,0,1,3-2.61c.22.22-3.88,4.12-9.42,11.32l-2.15,2.83c-.73,1-1.45,2.07-2.22,3.16-1.56,2.17-3.07,4.59-4.71,7.11-3.19,5.09-6.54,10.79-10,16.84s-6.72,11.81-9.84,17c-1.59,2.57-3.08,5-4.58,7.25-.75,1.12-1.44,2.22-2.16,3.24s-1.42,2-2.08,2.93c-1.3,1.88-2.62,3.48-3.74,4.91-.57.71-1.09,1.38-1.59,2l-1.41,1.59A19.67,19.67,0,0,1,142.84,231Z" stroke="#000" stroke-miterlimit="10" stroke-width="0.5"/>
    <path d="M79.07,277c-.27-.36,13.76-11.42,31.34-24.7s32-23.75,32.32-23.4-13.76,11.42-31.34,24.7S79.34,277.39,79.07,277Z" stroke="#000" stroke-miterlimit="10" stroke-width="0.5"/>
    <path d="M104.06,338.91c0-.08.73,0,1.48,1a8.4,8.4,0,0,0,1.33,1.43c.56.36,1.61.54,1.79-.1a2.5,2.5,0,0,0-.11-1.11l-.32-1.47-.72-3.25c-.52-2.29-1.13-4.84-1.85-7.58-1.43-5.47-3.29-11.7-5.61-18.22-1.83-5.14-3.77-10-5.67-14.32a45.73,45.73,0,0,0-6.22-10.74,19.38,19.38,0,0,0-6.39-5.23c-1.78-.84-2.89-1-2.85-1.2a7.08,7.08,0,0,1,3.1.62,18,18,0,0,1,7,5.06,43.54,43.54,0,0,1,6.72,10.87c2,4.35,4,9.2,5.84,14.4A177.57,177.57,0,0,1,107,327.45c.67,2.77,1.21,5.35,1.65,7.68.21,1.17.42,2.26.58,3.3l.24,1.49a2.91,2.91,0,0,1,0,1.63,1.51,1.51,0,0,1-1.64.87,2.81,2.81,0,0,1-1.38-.55,7.34,7.34,0,0,1-1.31-1.71A6.54,6.54,0,0,0,104.06,338.91Z" stroke="#000" stroke-miterlimit="10" stroke-width="0.5"/>
    <path d="M233.6,194.8a14.06,14.06,0,0,1-.94,2.33c-.64,1.52-1.74,3.68-3.18,6.45a167.58,167.58,0,0,1-14.59,22.08c-6.77,8.9-15.58,18.88-25.21,30S169.9,279.47,159.55,293s-19.93,26.58-28.62,38.48l-6.35,8.71a68.91,68.91,0,0,1-6.45,8,22.7,22.7,0,0,1-8,5.49,6,6,0,0,1-2.47.4,4.28,4.28,0,0,1-2.34-1,16.06,16.06,0,0,1-2.78-3.46c-6.32-9.22-10.94-17-14-22.43-1.53-2.72-2.68-4.86-3.43-6.32A14.56,14.56,0,0,1,84,318.57a13.79,13.79,0,0,1,1.36,2.11c.84,1.41,2.08,3.49,3.69,6.16,3.23,5.33,8,13,14.4,22.09a15.42,15.42,0,0,0,2.59,3.17,3,3,0,0,0,1.69.69,4.8,4.8,0,0,0,1.95-.35,21.62,21.62,0,0,0,7.46-5.26,69.3,69.3,0,0,0,6.25-7.87l6.29-8.75c8.63-12,18.18-25.07,28.55-38.59s20.6-26.12,30.28-37.26,18.58-21,25.44-29.76a186,186,0,0,0,14.94-21.68c1.52-2.71,2.71-4.82,3.44-6.29A15.84,15.84,0,0,1,233.6,194.8Z" stroke="#000" stroke-miterlimit="10" stroke-width="0.5"/>
    <path d="M62.44,295.14c.19.21-2.57,2.35-5.79,6.8a40,40,0,0,0-2.39,3.78,19,19,0,0,0-1.08,2.17,1.81,1.81,0,0,0,.1,1.84,2.56,2.56,0,0,0,2,.7,7.66,7.66,0,0,0,2.61-.52,17.12,17.12,0,0,0,9.05-7.23A6.3,6.3,0,0,1,69,300.13a3,3,0,0,1,1.87-.3,5.32,5.32,0,0,1,1.52.51,12,12,0,0,0,2.35,1,7.75,7.75,0,0,0,6.27-1,7.62,7.62,0,0,0,2.4-2.52,8.67,8.67,0,0,0,1-2.5c.33-1.47.21-2.34.35-2.35s.42.83.27,2.46a8.18,8.18,0,0,1-.83,2.83,8.28,8.28,0,0,1-2.55,3A8.89,8.89,0,0,1,77.13,303a9.07,9.07,0,0,1-2.72-.24,13,13,0,0,1-2.61-1,2.24,2.24,0,0,0-2-.2,5.15,5.15,0,0,0-1.51,2A17.79,17.79,0,0,1,64,308.36a18,18,0,0,1-5.67,3.07,9.15,9.15,0,0,1-3.15.55,4,4,0,0,1-3.12-1.32,2.78,2.78,0,0,1-.57-1.72,4.16,4.16,0,0,1,.33-1.56,19.36,19.36,0,0,1,1.24-2.33,34.84,34.84,0,0,1,2.64-3.8,31.55,31.55,0,0,1,4.67-4.76C61.62,295.5,62.38,295.06,62.44,295.14Z" stroke="#000" stroke-miterlimit="10" stroke-width="0.5"/>
    <path d="M28.17,314.23c.07.12-1.52,1.11-4.2,3.16a61.5,61.5,0,0,0-10.17,9.93c-1,1.16-1.87,2.44-2.8,3.78s-1.76,2.79-2.77,4.36a7.46,7.46,0,0,1-2.07,2.13,4.42,4.42,0,0,1-3.2.65,3.15,3.15,0,0,1-1.62-.85,3.5,3.5,0,0,1-.89-1.57,9.48,9.48,0,0,1-.12-3.21,27.87,27.87,0,0,1,4.18-12.12,35,35,0,0,1,4.05-5.43l2.36-2.54c.8-.83,1.72-1.56,2.58-2.35a61.82,61.82,0,0,1,11.26-7.7l1.44-.8,1.46-.72,2.87-1.41c1.94-.84,3.8-1.74,5.67-2.47,7.44-3.07,14.25-5.46,19.85-7.74s10-4.35,13-5.9A38.66,38.66,0,0,1,73.75,281a4.68,4.68,0,0,1-1.08.84c-.74.5-1.82,1.27-3.28,2.13a114.31,114.31,0,0,1-12.9,6.42c-5.57,2.42-12.35,4.93-19.7,8.05-1.86.75-3.69,1.65-5.6,2.5l-2.82,1.41-1.43.72-1.4.79a61,61,0,0,0-11,7.53c-.84.77-1.73,1.48-2.51,2.28l-2.28,2.44a34.83,34.83,0,0,0-3.91,5.2,26.8,26.8,0,0,0-4,11.42,8.25,8.25,0,0,0,.05,2.69,1.77,1.77,0,0,0,1.38,1.41,3.05,3.05,0,0,0,2.17-.43,6,6,0,0,0,1.7-1.73c1-1.4,1.87-3,2.84-4.3s1.95-2.63,3-3.79a54.84,54.84,0,0,1,10.68-9.71c1.41-1,2.54-1.64,3.33-2.07A4.63,4.63,0,0,1,28.17,314.23Z" stroke="#000" stroke-miterlimit="10" stroke-width="0.5"/>
    <path d="M36.53,329.52c.09.11-.9.94-2.28,2.75A28.16,28.16,0,0,0,30,340.85c-1.27,3.88-1.94,8.71-2.67,14.13a79.71,79.71,0,0,1-1.59,8.51,6.83,6.83,0,0,1-.41,1.2,2.92,2.92,0,0,1-1,1.18,3.06,3.06,0,0,1-3,.1,4.49,4.49,0,0,1-2-2,14.39,14.39,0,0,1-1-2.29,38.92,38.92,0,0,1-1.65-17.89,62.2,62.2,0,0,1,3.66-14.17c1.48-3.89,2.91-6.93,3.92-9a14,14,0,0,1,1.77-3.14,16.74,16.74,0,0,1-1.19,3.4c-.83,2.15-2.09,5.24-3.41,9.13a66.84,66.84,0,0,0-3.26,14A38.46,38.46,0,0,0,20,361.17c.49,1.46,1.09,2.88,2.08,3.33a1.49,1.49,0,0,0,1.41,0,2.41,2.41,0,0,0,.75-1.44c.74-2.82,1.21-5.63,1.64-8.32.82-5.38,1.62-10.33,3.07-14.28a25.56,25.56,0,0,1,4.86-8.61A8.76,8.76,0,0,1,36.53,329.52Z" stroke="#000" stroke-miterlimit="10" stroke-width="0.5"/>
    <path d="M47.46,331.85s-.12.23-.43.54l-.58.56-.74.81a18.36,18.36,0,0,0-1.78,2.38,22.09,22.09,0,0,0-1.71,3.54,37.71,37.71,0,0,0-2,10.09c-.38,3.87-.14,8.28-1.16,12.91A20.46,20.46,0,0,1,38,366a9.68,9.68,0,0,1-1.85,3.06,3.75,3.75,0,0,1-1.73,1,2.82,2.82,0,0,1-2.08-.29,5.32,5.32,0,0,1-2.1-2.8,42.49,42.49,0,0,1-2.27-10.43,38.58,38.58,0,0,1,0-7.15,7.22,7.22,0,0,1,.51-2.58c.28,0-.16,3.73.62,9.6a46.09,46.09,0,0,0,2.51,10,3.89,3.89,0,0,0,1.46,2A1.55,1.55,0,0,0,35,368a8,8,0,0,0,1.49-2.55,19.28,19.28,0,0,0,1-3.1c1-4.32.79-8.71,1.25-12.7a35.15,35.15,0,0,1,2.49-10.37,19.5,19.5,0,0,1,2-3.61,16.29,16.29,0,0,1,2.08-2.33l.88-.73c.27-.19.51-.33.7-.45C47.21,331.9,47.43,331.81,47.46,331.85Z" stroke="#000" stroke-miterlimit="10" stroke-width="0.5"/>
    <path d="M97.14,301.86c.06.13-1.63.83-4.48,2.39A20.27,20.27,0,0,0,88,307.72a10.75,10.75,0,0,0-2,2.91,16.41,16.41,0,0,0-1.13,3.88,13.77,13.77,0,0,1-1.57,4.5,12.87,12.87,0,0,1-3.55,3.82,19.2,19.2,0,0,1-10.75,3.3,48.93,48.93,0,0,1-6-.2,9.69,9.69,0,0,0-2.81.06,3,3,0,0,0-2,1.44,8.55,8.55,0,0,0-1,2.71,16.29,16.29,0,0,0-.32,3.06,36.82,36.82,0,0,0,.62,6.44c.36,2.19.78,4.39,1,6.6a47.69,47.69,0,0,1,.15,6.53A47.15,47.15,0,0,1,56.4,364.9c-.3.94-.63,1.85-1,2.75l-.44,1.1-.11.27c0,.07-.05.23-.17.15l-.56-.17c-.36-.12-.77-.21-1.08-.34l-.7-.33a9.21,9.21,0,0,1-3.79-4.23A19.7,19.7,0,0,1,47,359.21a42.57,42.57,0,0,1-.61-4.62c-.53-5.83-.94-10.56-1.18-13.83a30.92,30.92,0,0,1-.21-5.09,31.57,31.57,0,0,1,.84,5c.44,3.25,1,7.95,1.7,13.77a41,41,0,0,0,.69,4.48,19,19,0,0,0,1.55,4.55A7.8,7.8,0,0,0,53,367.06l.55.25a1,1,0,0,0,.23.07l.11,0s0-.05,0-.08l.07-.21c.33-.87.64-1.76.91-2.67a46.58,46.58,0,0,0,2-11.75,46.14,46.14,0,0,0-.18-6.31c-.19-2.12-.6-4.27-1-6.49a36.94,36.94,0,0,1-.63-6.72,18.11,18.11,0,0,1,.37-3.37,9.83,9.83,0,0,1,1.21-3.24A4.71,4.71,0,0,1,58,325.2a4.76,4.76,0,0,1,1.7-.75,10.84,10.84,0,0,1,3.3-.07,46.75,46.75,0,0,0,5.85.25,18,18,0,0,0,10-2.9,11.67,11.67,0,0,0,3.25-3.37,12.86,12.86,0,0,0,1.53-4.11A16.66,16.66,0,0,1,85,310.17a11.86,11.86,0,0,1,2.32-3.1,19.69,19.69,0,0,1,5-3.38,32.1,32.1,0,0,1,3.49-1.47A4.1,4.1,0,0,1,97.14,301.86Z" stroke="#000" stroke-miterlimit="10" stroke-width="0.5"/>
  </g>
  <g id="Torso">
    <path d="M199.53,148l10,27.55a178,178,0,0,0,3.8,21.7c1.65,6.84,3.15,13.11,6.48,20.82,2.77,6.41,6.49,15,14.68,23.64a71.45,71.45,0,0,0,20.41,14.66,86.71,86.71,0,0,0,19.71,7.24,48.8,48.8,0,0,1,6.75,7.45,49.78,49.78,0,0,1,5.29,9.16c3.11,6.89,10.46,22.19,16.14,31a80.85,80.85,0,0,0,16.32,18.21,75,75,0,0,0,13.67,4.07c5.71,1.12,14.76,2.8,25.56.4a53.89,53.89,0,0,0,18.8-8.37c12.86-8.58,19.1-19.77,23.93-28.44a113,113,0,0,0,10-24.47c3.13-10.64,4.09-18.91,5.14-28,1.11-9.56,1.34-16.66,1.75-29.26.3-9.27.36-17,.36-22.31a52.52,52.52,0,0,0-13-9.95c-6-3.27-11.35-4.55-16.35-5.76-4.79-1.15-3.75-.51-15-2.66-8-1.52-12.37-2.58-17.16-5.42a36.61,36.61,0,0,1-4.6-3.26,124.75,124.75,0,0,0-36.06-34.87,122.84,122.84,0,0,0-24.5-11.88A429.26,429.26,0,0,0,199.53,148Z" fill="#fff"/>
    <path d="M284.28,266.33a28.68,28.68,0,0,1-4.86-1c-3.09-.78-7.56-1.93-13-3.71A95,95,0,0,1,248,253.54a62.43,62.43,0,0,1-9.7-7,65,65,0,0,1-8.67-9.45A86,86,0,0,1,218,215.38,138.44,138.44,0,0,1,212.5,196c-1.18-5.59-1.9-10.15-2.37-13.31a27.65,27.65,0,0,1-.52-4.93,31,31,0,0,1,1.15,4.82c.66,3.12,1.55,7.64,2.86,13.17a151.78,151.78,0,0,0,5.76,19.05,87.32,87.32,0,0,0,11.54,21.28,64.54,64.54,0,0,0,8.43,9.24,62.86,62.86,0,0,0,9.4,6.89,101,101,0,0,0,18,8.26c5.35,1.91,9.77,3.23,12.8,4.19A29.57,29.57,0,0,1,284.28,266.33Z" stroke="#000" stroke-miterlimit="10" stroke-width="0.5"/>
    <path d="M316.76,327c-.09.08-.92-.64-2.36-2s-3.48-3.42-5.9-6a103.44,103.44,0,0,1-8-9.69,78.54,78.54,0,0,1-7.66-13.39c-2.29-5-4.23-9.75-6.2-14a74,74,0,0,0-6-10.83,47.76,47.76,0,0,0-5.31-6.4,12.46,12.46,0,0,1-2.18-2.2,10.91,10.91,0,0,1,2.6,1.72,37.41,37.41,0,0,1,5.83,6.21A67.17,67.17,0,0,1,288,281.24c2.07,4.26,4.05,9,6.32,13.95a84.24,84.24,0,0,0,7.4,13.21c2.66,3.84,5.35,7.09,7.64,9.8C314,323.58,316.94,326.86,316.76,327Z" stroke="#000" stroke-miterlimit="10" stroke-width="0.5"/>
    <path d="M417.1,195.43a9.18,9.18,0,0,1,.32,2c.17,1.34.37,3.32.55,5.88a215,215,0,0,1,.41,21.7,229.74,229.74,0,0,1-3.24,32.05c-1,6-2.34,12.22-4,18.62a73.13,73.13,0,0,1-7.64,19.06c-1.8,3-3.8,5.89-5.8,8.65s-4,5.45-6,8.07a79,79,0,0,1-13.14,13.9,45,45,0,0,1-15.42,7.94,54.14,54.14,0,0,1-14.93,2.16,72.14,72.14,0,0,1-21.49-3.23c-2.45-.78-4.33-1.44-5.57-2a10.36,10.36,0,0,1-1.87-.86,9.3,9.3,0,0,1,2,.55c1.28.44,3.18,1,5.64,1.68a76.71,76.71,0,0,0,21.29,2.69,54.3,54.3,0,0,0,14.56-2.3,43.94,43.94,0,0,0,14.87-7.83,77.93,77.93,0,0,0,12.81-13.69c2-2.6,4-5.31,6-8s3.95-5.56,5.71-8.53a72.47,72.47,0,0,0,7.5-18.64c1.69-6.33,3-12.54,4.09-18.47A244.82,244.82,0,0,0,417.23,225c.44-9.12.26-16.52.1-21.63-.08-2.56-.17-4.54-.23-5.89A9.06,9.06,0,0,1,417.1,195.43Z" stroke="#000" stroke-miterlimit="10" stroke-width="0.5"/>
    <path d="M373.52,187.72a14.13,14.13,0,0,1-3-2,81.82,81.82,0,0,1-7.36-6.56c-3-2.92-6.29-6.6-9.87-10.76s-7.42-8.8-11.65-13.46a184.47,184.47,0,0,0-23.71-21.8c-3.27-2.53-6-4.49-7.86-5.84a16.18,16.18,0,0,1-2.85-2.21,14.24,14.24,0,0,1,3.2,1.68c2,1.19,4.82,3,8.2,5.44a156.87,156.87,0,0,1,24.22,21.63c4.28,4.71,8.09,9.39,11.6,13.59s6.71,7.93,9.55,10.93C369.63,184.36,373.69,187.5,373.52,187.72Z" stroke="#000" stroke-miterlimit="10" stroke-width="0.5"/>
    <path d="M418.32,193c-.22.2-2.7-2.92-8-6.34a55,55,0,0,0-9.8-5,89.6,89.6,0,0,0-12.94-3.88c-4.7-1.09-9.23-1.92-13.35-2.76s-7.81-1.68-10.89-2.56a20.07,20.07,0,0,1-6.94-3.17c-1.43-1.14-1.93-2.05-1.86-2.1s.76.66,2.23,1.58a22.41,22.41,0,0,0,6.86,2.58c3.07.72,6.77,1.44,10.89,2.19s8.67,1.55,13.42,2.65a80.55,80.55,0,0,1,13.14,4.08,49.88,49.88,0,0,1,9.89,5.41,33.35,33.35,0,0,1,5.68,5A7.47,7.47,0,0,1,418.32,193Z" stroke="#000" stroke-miterlimit="10" stroke-width="0.5"/>
    <path d="M291.65,119.24a17.49,17.49,0,0,1-3.7,1.05l-10.17,2.43c-4.28,1-9.37,2.33-15,3.86s-11.77,3.34-18.18,5.36-12.47,4.12-18,6.09-10.39,3.85-14.49,5.48l-9.7,3.87a16.57,16.57,0,0,1-3.64,1.27,18.4,18.4,0,0,1,3.38-1.85c2.21-1.1,5.47-2.6,9.52-4.36s8.94-3.74,14.41-5.82,11.55-4.18,18-6.23,12.63-3.78,18.29-5.26,10.8-2.65,15.13-3.54,7.85-1.55,10.3-1.92A17.6,17.6,0,0,1,291.65,119.24Z" stroke="#000" stroke-miterlimit="10" stroke-width="0.5"/>
  </g>
  <g id="Head">
    <path d="M195.93,103.65a31.9,31.9,0,0,1-10.21-6.76c-6.58-6.49-8.42-14.11-9.54-19A53.5,53.5,0,0,1,175.76,58c3-18.72,14.18-31,18.7-35.5A70.13,70.13,0,0,1,218,7.54C224,5,231.52,2,241.77,2.05a52,52,0,0,1,18.44,3.52,32.29,32.29,0,0,1,8.89-3.93c8.83-2.39,16.27-.27,20.43,1,9.09,2.72,15,7.54,19.33,11.17,6.95,5.82,6.95,8.07,15.19,16.16,4.38,4.29,9.76,9.58,17,13.92,6.63,4,14.81,6,31.16,10.14,5.15,1.28,14.65,3.55,26.54,7.65,4.11,1.42,9.25,3.31,13.84,8.09a29.62,29.62,0,0,1,6,9.51c3.84,9.12,2.89,17.37,1.87,26.23-.8,7-1.5,12.58-4.91,19.23a46.94,46.94,0,0,1-8.43,11.42c-7.75,7.82-16.08,11-22.25,13.34a86.94,86.94,0,0,1-32.6,5.28,99.61,99.61,0,0,1-31.13-5.54,106.83,106.83,0,0,1-24.76-12.64,122.67,122.67,0,0,1-14.05-11.39,136.51,136.51,0,0,1-21.25-25.43Z"/>
    <path d="M253,20.65a74.48,74.48,0,0,0-26.53,7.23,64.68,64.68,0,0,0-20.51,14.83,62.92,62.92,0,0,0-13,22c0,3.36,0,7.92.22,13.32a161.68,161.68,0,0,0,2.22,22.33,105.05,105.05,0,0,0,5.87,21.8,92.36,92.36,0,0,0,9.65,18.26,84.15,84.15,0,0,0,15.69,16.91,38.21,38.21,0,0,0,11.33-.25,38.65,38.65,0,0,0,13.34-5,49.31,49.31,0,0,0,10.31,7.08,51,51,0,0,0,5.57,2.44,29.78,29.78,0,0,0,10.85-4.35,31.85,31.85,0,0,0,9.38-9.83A33.12,33.12,0,0,0,291.87,135a54.88,54.88,0,0,1-12.19-14.78c1-2.52,2-5.33,2.84-8.4s1.55-6,2-8.73a12.43,12.43,0,0,0,5.09.4c3.63-.48,6-2.55,7.84-4.17a23.4,23.4,0,0,0,5.75-7.75c1.4-3,3.62-7.78,1.85-13a12,12,0,0,0-4.16-5.83c-4-2.94-8.63-2.21-10.62-1.9a18,18,0,0,0-8,3.41,79.63,79.63,0,0,1-12.14-12.52,86.51,86.51,0,0,1-10.63-18.22A92,92,0,0,1,253,20.65Z" fill="#fff"/>
    <path d="M228.34,157.91a16.05,16.05,0,0,1-3.49-2.15,57.53,57.53,0,0,1-8.4-7.4A73.62,73.62,0,0,1,206.52,135a91.86,91.86,0,0,1-8.21-18.63C194,102.57,193,89.42,192.63,80c-.16-4.71-.13-8.52,0-11.15a18.86,18.86,0,0,1,.31-4.09,21.45,21.45,0,0,1,.33,4.08c.11,2.63.26,6.42.56,11.1.62,9.33,1.84,22.33,6.08,35.94a95.31,95.31,0,0,0,8,18.36,78.51,78.51,0,0,0,9.48,13.31C223.52,154.56,228.55,157.65,228.34,157.91Z" stroke="#000" stroke-miterlimit="10" stroke-width="0.5"/>
    <path d="M284.56,103.15a13.31,13.31,0,0,1-.39,3.44,72.58,72.58,0,0,1-2.25,9.14,73.61,73.61,0,0,1-5.37,12.93,63.72,63.72,0,0,1-10,14,53.08,53.08,0,0,1-13.79,10.26,46.51,46.51,0,0,1-13.29,4.53,37,37,0,0,1-9.44.52,11.34,11.34,0,0,1-3.42-.56,18.65,18.65,0,0,1,3.44-.07,45,45,0,0,0,9.2-1A48.84,48.84,0,0,0,252,151.54a54.59,54.59,0,0,0,13.32-10.06,65.67,65.67,0,0,0,9.88-13.54,81.58,81.58,0,0,0,5.6-12.57C283.42,107.94,284.27,103.09,284.56,103.15Z" stroke="#000" stroke-miterlimit="10" stroke-width="0.5"/>
    <path d="M285.75,73c0-.1.72-.5,2.17-1a19.81,19.81,0,0,1,6.45-1.08,13.67,13.67,0,0,1,4.55.77,12,12,0,0,1,4.56,2.84,10.13,10.13,0,0,1,2.72,5.34,16.45,16.45,0,0,1-.24,6.32,26.38,26.38,0,0,1-5.12,10.77,20.52,20.52,0,0,1-7.72,6,17.06,17.06,0,0,1-6.39,1.48,4.86,4.86,0,0,1-2.38-.28,11.22,11.22,0,0,1,2.33-.35,19.87,19.87,0,0,0,5.95-1.89,20.43,20.43,0,0,0,7-5.85,25.86,25.86,0,0,0,4.71-10.18,15.31,15.31,0,0,0,.26-5.69,8.79,8.79,0,0,0-2.23-4.58,10.81,10.81,0,0,0-3.95-2.61,13.28,13.28,0,0,0-4.12-.89,23.59,23.59,0,0,0-6.25.55A7.91,7.91,0,0,1,285.75,73Z" stroke="#000" stroke-miterlimit="10" stroke-width="0.5"/>
    <path d="M267.09,161.64c-.13.42-4-.5-8.2-2.92s-7-5.28-6.67-5.6,3.41,1.87,7.48,4.18S267.24,161.2,267.09,161.64Z" stroke="#000" stroke-miterlimit="10" stroke-width="0.5"/>
    <path d="M291.86,135c.18,0,.21,2.36-.84,6a31.64,31.64,0,0,1-13.81,17.66,29.66,29.66,0,0,1-3.16,1.62,17.11,17.11,0,0,1-2.91,1.08,9.58,9.58,0,0,1-4.53.26c-1.06-.23-1.55-.6-1.52-.69s.61,0,1.6.07a11.24,11.24,0,0,0,4.1-.74,32.89,32.89,0,0,0,11.59-7.8,36.26,36.26,0,0,0,7.55-11.83C291.22,137.26,291.6,135,291.86,135Z" stroke="#000" stroke-miterlimit="10" stroke-width="0.5"/>
    <path d="M292.45,135c-.11.17-1.18-.22-2.7-1.24a22.68,22.68,0,0,1-8.47-11.19c-.56-1.74-.65-2.87-.45-2.93.46-.14,1.88,4,5.1,8.22S292.71,134.59,292.45,135Z" stroke="#000" stroke-miterlimit="10" stroke-width="0.5"/>
    <path d="M219.86,62.49c-.15.2-1.27-.52-3.22-1.16A14.07,14.07,0,0,0,202,64.7c-1.47,1.43-2.17,2.56-2.39,2.44s.16-1.44,1.54-3.22a13.1,13.1,0,0,1,15.91-3.66C219.09,61.25,220,62.34,219.86,62.49Z" stroke="#000" stroke-miterlimit="10" stroke-width="0.5"/>
    <path d="M222.05,81.44c-.18.17-1.1-.7-2.81-1.62a13,13,0,0,0-14.12.76c-1.6,1.1-2.42,2.06-2.62,1.91s.34-1.35,1.9-2.81a12.17,12.17,0,0,1,15.46-.83C221.57,80.13,222.2,81.32,222.05,81.44Z" stroke="#000" stroke-miterlimit="10" stroke-width="0.5"/>
    <path d="M220.18,100.15c-.21-.13.9-2.22,2.58-5.62a47.44,47.44,0,0,0,4.71-13.79,23.72,23.72,0,0,0-2.14-14c-1.71-3.3-3.64-4.77-3.44-5s.61.2,1.45.89a14.41,14.41,0,0,1,3,3.53,20,20,0,0,1,2.5,6.42,24.92,24.92,0,0,1,.25,8.41,39.86,39.86,0,0,1-5.3,14.11C221.81,98.38,220.36,100.26,220.18,100.15Z" stroke="#000" stroke-miterlimit="10" stroke-width="0.5"/>
    <path d="M229.54,114.75c-.14.4-3.74-.72-7.12-3.77s-4.93-6.48-4.55-6.67,2.44,2.63,5.63,5.45S229.74,114.32,229.54,114.75Z" stroke="#000" stroke-miterlimit="10" stroke-width="0.5"/>
    <path d="M248.67,117.65c.17.07-.37,1.75-2.08,4a15.34,15.34,0,0,1-1.51,1.74,21.47,21.47,0,0,1-2,1.79,22.93,22.93,0,0,1-11,4.78,20.84,20.84,0,0,1-2.64.2,15.35,15.35,0,0,1-2.3-.09c-2.81-.3-4.41-1.05-4.35-1.22s1.73.08,4.4.07a21.34,21.34,0,0,0,2.18-.11c.78,0,1.6-.2,2.47-.33a28.7,28.7,0,0,0,5.44-1.67,28.19,28.19,0,0,0,4.93-2.83,24.93,24.93,0,0,0,1.94-1.57,18.92,18.92,0,0,0,1.56-1.51C247.55,119,248.44,117.52,248.67,117.65Z" stroke="#000" stroke-miterlimit="10" stroke-width="0.5"/>
    <path d="M263.84,57.62c-.23.16-1.18-1.34-3.48-2.75a14.75,14.75,0,0,0-10-1.86,21.34,21.34,0,0,0-9.4,4.53c-2.14,1.72-3.32,3-3.51,2.85s.7-1.69,2.75-3.71a19.06,19.06,0,0,1,9.88-5.27A14.32,14.32,0,0,1,261,53.92C263.37,55.74,264,57.56,263.84,57.62Z" stroke="#000" stroke-miterlimit="10" stroke-width="0.5"/>
    <path d="M250.37,85c-.45,0-.78-3.77-.73-8.4s.45-8.38.9-8.39.78,3.76.73,8.41S250.82,85,250.37,85Z" stroke="#000" stroke-miterlimit="10" stroke-width="0.5"/>
    <path d="M245.93,22.69a10.26,10.26,0,0,1-2.79.67l-1.5.26c-.55.12-1.13.28-1.76.43-1.26.32-2.72.59-4.26,1.13l-2.44.76c-.85.27-1.7.65-2.59,1-1.81.64-3.64,1.57-5.59,2.48a66,66,0,0,0-21.62,17.44c-1.3,1.72-2.6,3.31-3.6,4.94-.52.8-1.07,1.55-1.52,2.32L197,56.34c-.85,1.39-1.42,2.76-2,3.92-.27.59-.55,1.12-.78,1.63l-.57,1.41a9.93,9.93,0,0,1-1.25,2.59,9.77,9.77,0,0,1,.65-2.8l.44-1.48c.19-.54.43-1.1.68-1.71A39.91,39.91,0,0,1,196,55.8l1.2-2.32c.42-.8.95-1.59,1.46-2.42a59.9,59.9,0,0,1,3.56-5.14,68.26,68.26,0,0,1,10-10.21,68.32,68.32,0,0,1,12.1-7.65,58.31,58.31,0,0,1,5.77-2.4c.93-.31,1.8-.67,2.68-.92l2.52-.67a38.59,38.59,0,0,1,4.39-.92c.65-.11,1.25-.22,1.81-.3l1.54-.12A10,10,0,0,1,245.93,22.69Z" stroke="#000" stroke-miterlimit="10" stroke-width="0.5"/>
    <path d="M283.17,75.37c-.07.09-.83-.4-2.15-1.36a26.15,26.15,0,0,1-2.34-1.84c-.88-.75-1.92-1.58-2.95-2.62L274.08,68c-.57-.56-1.12-1.19-1.71-1.82-1.2-1.24-2.35-2.68-3.58-4.17a81.28,81.28,0,0,1-7-10.49A82.85,82.85,0,0,1,256.65,40c-.61-1.84-1.21-3.58-1.62-5.26-.22-.83-.46-1.63-.63-2.41s-.32-1.53-.47-2.25c-.32-1.42-.47-2.74-.64-3.89a27.7,27.7,0,0,1-.31-3,7.6,7.6,0,0,1,0-2.54c.27,0,.69,3.54,2.08,9.14.18.7.37,1.43.56,2.19s.47,1.54.71,2.35c.46,1.63,1.1,3.32,1.73,5.11a95.48,95.48,0,0,0,5.17,11.23A93.66,93.66,0,0,0,270,61.05c1.18,1.49,2.26,2.94,3.4,4.19.56.64,1.07,1.28,1.61,1.85l1.55,1.65C280.54,72.89,283.34,75.15,283.17,75.37Z" stroke="#000" stroke-miterlimit="10" stroke-width="0.5"/>
    <path d="M260.13,5.52a52.32,52.32,0,0,0-6-2.11c-4-1-10-1.41-17.3-.28A81.87,81.87,0,0,0,212.25,11,69.13,69.13,0,0,0,188.11,30.9a64.6,64.6,0,0,0-8,14.19,62.52,62.52,0,0,0-3.85,14.68,55.94,55.94,0,0,0-.13,13.72c.08,1.08.31,2.11.47,3.14s.39,2,.61,3A47.59,47.59,0,0,0,179,85.11a33.81,33.81,0,0,0,9.79,14.1,46.16,46.16,0,0,0,5.31,3.56,5.88,5.88,0,0,1-1.58-.57c-.51-.22-1.09-.56-1.81-.94a26,26,0,0,1-2.32-1.55A33.26,33.26,0,0,1,177.9,85.54a49,49,0,0,1-1.89-5.6c-.24-1-.5-2-.67-3.07s-.43-2.11-.53-3.21a55.67,55.67,0,0,1,0-14.08,62.23,62.23,0,0,1,3.86-15.08,65.08,65.08,0,0,1,8.16-14.58A69.72,69.72,0,0,1,211.57,9.61,80.52,80.52,0,0,1,236.63,2a54.23,54.23,0,0,1,10.09-.45,33.12,33.12,0,0,1,7.54,1.26,23.32,23.32,0,0,1,4.47,1.81A5.51,5.51,0,0,1,260.13,5.52Z" stroke="#000" stroke-miterlimit="10" stroke-width="0.5"/>
    <path d="M415.83,72.68c-.11.12-1.86-1.67-5.51-4.24a66.22,66.22,0,0,0-16.93-8.22c-3.78-1.28-8-2.45-12.58-3.54s-9.52-2.1-14.7-3.3A135.66,135.66,0,0,1,350,48.76a62.48,62.48,0,0,1-16-8.38,88.15,88.15,0,0,1-13-12.53c-3.83-4.33-7.44-8.55-11.26-12.16a58.36,58.36,0,0,0-11.95-8.81,46.67,46.67,0,0,0-12.05-4.65,39.22,39.22,0,0,0-18.61.21c-4.3,1.17-6.47,2.44-6.54,2.29a6.67,6.67,0,0,1,1.54-1,30.94,30.94,0,0,1,4.83-1.95,38.44,38.44,0,0,1,19-.73,47.43,47.43,0,0,1,12.44,4.59,58.64,58.64,0,0,1,12.33,8.9c3.93,3.66,7.61,7.9,11.44,12.2A88.31,88.31,0,0,0,335,39.08a62.3,62.3,0,0,0,15.56,8.19,137.41,137.41,0,0,0,15.89,4.64c5.14,1.25,10.08,2.3,14.67,3.46a131.83,131.83,0,0,1,12.64,3.77,62,62,0,0,1,16.92,8.79l1.27,1,1.06.92a19.16,19.16,0,0,1,1.6,1.5A7.8,7.8,0,0,1,415.83,72.68Z" stroke="#000" stroke-miterlimit="10" stroke-width="0.5"/>
    <path d="M417.4,75.82a9.52,9.52,0,0,1,.84,1.83,45,45,0,0,1,1.7,5.54,66.22,66.22,0,0,1,1.21,21.2,72.41,72.41,0,0,1-2.6,14.51,40.16,40.16,0,0,1-8.16,14.87,53.64,53.64,0,0,1-14.68,11.65,71.61,71.61,0,0,1-9,4.2c-1.56.64-3.18,1.11-4.8,1.64A47.41,47.41,0,0,1,377,152.7l-5,1.17-5,.79c-1.65.31-3.32.37-5,.53s-3.28.32-4.9.29l-4.83.05c-1.59-.05-3.16-.17-4.72-.25l-2.32-.13-2.29-.29-4.48-.57a107.6,107.6,0,0,1-30-9.7,102.61,102.61,0,0,1-17.93-11.39c-1-.74-1.82-1.52-2.55-2.15l-1.81-1.64a8.43,8.43,0,0,1-1.43-1.42,9.85,9.85,0,0,1,1.64,1.18l1.91,1.51c.76.58,1.59,1.32,2.63,2a112.53,112.53,0,0,0,18,10.85,109.41,109.41,0,0,0,29.71,9.25l4.42.54,2.26.27,2.28.12c1.54.07,3.09.18,4.65.23l4.75-.08c1.6,0,3.2-.17,4.81-.3s3.26-.21,4.88-.53l4.91-.78,4.91-1.15a49.75,49.75,0,0,0,4.84-1.41c1.58-.52,3.18-1,4.7-1.6a70,70,0,0,0,8.8-4.09,52.78,52.78,0,0,0,14.32-11.23,39.21,39.21,0,0,0,8-14.29A73.63,73.63,0,0,0,420,104.28a70.23,70.23,0,0,0-.68-21c-.47-2.44-1-4.3-1.39-5.56A9.39,9.39,0,0,1,417.4,75.82Z" stroke="#000" stroke-miterlimit="10" stroke-width="0.5"/>
  </g>
  <g id="Arm_left" data-name="Arm left">
    <path d="M294.06,121.8a47.69,47.69,0,0,1,19-11.06c7.4-2.21,13.31-1.94,19.78-1.64,9.55.44,17,.79,24.6,5.43,6.59,4,10,9.23,13.75,15.08,4.94,7.63,7,14.06,10.48,25.11a205.2,205.2,0,0,1,5.63,22.2c1.71,8.37,2.58,14.86,3.17,19.33,1.1,8.27,1.18,11.41,2.81,25.82.53,4.64,1,8.45,1.3,11a16.22,16.22,0,0,1-9.06,5.29c-3.14.56-5.79-.09-9.18-1.25a75.72,75.72,0,0,1-16.71-7.95c-10.81-7.42-18.41-13.83-23.7-18.11-4.91-4-12.15-9.6-21.44-16l5-19.63a14,14,0,0,0-15.58-6.85c-3.08.6-3.3,1.58-6.95,2.72-2.62.82-5.83,1.82-8.91,1-5.18-1.43-7.45-7.41-7.91-8.72a21.43,21.43,0,0,1-8-11.92A13.19,13.19,0,0,1,269,145a12.9,12.9,0,0,1,.05-4.27,7.9,7.9,0,0,1-4.07-2.17,7.22,7.22,0,0,1-1.93-7,7,7,0,0,1,3-3.53c2.46-1.65,4.46-1.51,9.51-2a91.76,91.76,0,0,0,11-1.72A51,51,0,0,0,294.06,121.8Z" fill="#fff"/>
    <path d="M394.06,230.76a7.93,7.93,0,0,1-.32-1.71c-.15-1.13-.35-2.79-.59-4.93-.5-4.29-1.13-10.49-2.07-18.14s-2.17-16.73-4.09-26.71a207.73,207.73,0,0,0-8.69-31.83c-1.1-2.71-2.06-5.44-3.27-8-.59-1.3-1.17-2.58-1.74-3.86l-1.87-3.73c-2.46-4.92-5.16-9.55-8.83-12.9a31.19,31.19,0,0,0-12.43-6.48,76.5,76.5,0,0,0-12.25-2.4,84,84,0,0,0-18.12-.1c-4.27.43-6.61.91-6.64.78a6.47,6.47,0,0,1,1.67-.5c1.11-.26,2.75-.6,4.89-.91a77.39,77.39,0,0,1,30.83,1.83,32.08,32.08,0,0,1,13.06,6.67c3.93,3.54,6.74,8.33,9.24,13.28.63,1.24,1.26,2.5,1.91,3.76s1.17,2.6,1.76,3.91c1.23,2.61,2.21,5.36,3.32,8.1A199.8,199.8,0,0,1,388.47,179c1.85,10,3,19.19,3.76,26.86s1.25,13.91,1.55,18.21c.15,2.15.24,3.82.29,5A6.69,6.69,0,0,1,394.06,230.76Z" stroke="#000" stroke-miterlimit="10" stroke-width="0.5"/>
    <path d="M315.41,190.57c-.23-.08.69-3.36,1.93-8.72A183.19,183.19,0,0,0,321,160.72c.46-4.16.75-8.14.9-11.77s.22-6.89.05-9.61c-.29-5.45-1.66-8.62-1.42-8.71s2,3,2.56,8.61a75.89,75.89,0,0,1,.31,9.76c-.07,3.66-.31,7.69-.78,11.9a129,129,0,0,1-4.12,21.24C316.92,187.46,315.6,190.63,315.41,190.57Z" stroke="#000" stroke-miterlimit="10" stroke-width="0.5"/>
    <path d="M372,171.32c-.15.18-3-2-7.54-5.56S353.8,157.1,347,151.44s-12.82-10.87-17.15-14.69a53.26,53.26,0,0,0-5.31-4.21c-1.32-.9-2.11-1.32-2.06-1.43s.93.13,2.39.88a36.87,36.87,0,0,1,5.72,3.87c4.53,3.6,10.7,8.66,17.46,14.33s12.81,10.86,17.15,14.68S372.18,171.15,372,171.32Z" stroke="#000" stroke-miterlimit="10" stroke-width="0.5"/>
    <path d="M394.55,233.07s-.06.35-.4.9a8.9,8.9,0,0,1-1.89,2.12,12.36,12.36,0,0,1-4,2.14,15.47,15.47,0,0,1-5.94.67c-4.46-.27-9.4-2.12-14.62-4.49a95.82,95.82,0,0,1-16-9.68c-5.34-3.91-10.14-8-14.5-11.64s-8.28-7-11.64-9.65-6.17-4.74-8.12-6.14a16.45,16.45,0,0,1-3-2.29,16.72,16.72,0,0,1,3.33,1.76c2.07,1.25,5,3.19,8.47,5.75s7.49,5.8,11.9,9.42,9.22,7.61,14.5,11.47a102,102,0,0,0,15.64,9.64c5.09,2.4,9.9,4.31,14.08,4.7a13.65,13.65,0,0,0,9.42-2.17A23.22,23.22,0,0,0,394.55,233.07Z" stroke="#000" stroke-miterlimit="10" stroke-width="0.5"/>
    <path d="M291.19,121.94c0-.12.57-.36,1.61-.88s2.49-1.36,4.41-2.32a15.84,15.84,0,0,1,3.34-1.25,8.92,8.92,0,0,1,4.25-.07,7.31,7.31,0,0,1,4,2.65,22.08,22.08,0,0,1,2.47,4.18c1.42,2.88,2.75,5.64,3.95,8.15s2.29,4.78,3,6.81a17.79,17.79,0,0,1,1.1,5c.05,1.21-.09,1.87-.2,1.87s-.26-2.62-2-6.41c-.82-1.89-2-4.08-3.28-6.57s-2.64-5.21-4.07-8.09a21.34,21.34,0,0,0-2.25-3.9,5.88,5.88,0,0,0-3.1-2.2,8,8,0,0,0-3.58-.06,16.49,16.49,0,0,0-3.16,1c-1.91.8-3.49,1.53-4.64,1.86S291.21,122,291.19,121.94Z" stroke="#000" stroke-miterlimit="10" stroke-width="0.5"/>
    <path d="M273.13,143c0,.11-.72,0-1.92-.36a18.57,18.57,0,0,1-4.89-2.17,9.22,9.22,0,0,1-4.35-6.83,6.38,6.38,0,0,1,1.66-4.77,10.78,10.78,0,0,1,4.45-2.83,40,40,0,0,1,9.57-1.54,66.38,66.38,0,0,0,7.63-.82c4.3-.77,6.48-2.54,6.65-2.28.05.07-.41.6-1.47,1.3a15.63,15.63,0,0,1-4.92,2.1,51.68,51.68,0,0,1-7.76,1.2,43.37,43.37,0,0,0-9.15,1.58,9.41,9.41,0,0,0-3.81,2.35,4.89,4.89,0,0,0-1.35,3.63,7.08,7.08,0,0,0,1.19,3.52,9.6,9.6,0,0,0,2.33,2.45,24.62,24.62,0,0,0,4.45,2.52C272.55,142.58,273.17,142.9,273.13,143Z" stroke="#000" stroke-miterlimit="10" stroke-width="0.5"/>
    <path d="M280.11,153.48c0,.21-1.21.3-3.14,0a12.17,12.17,0,0,1-3.34-1,8.21,8.21,0,0,1-1.81-1.13,8.46,8.46,0,0,1-1.54-1.72,16.48,16.48,0,0,1-1.78-3.84c-.41-1.19-.75-2.23-1.09-3.07-.67-1.69-1.39-2.58-1.22-2.76s1.23.52,2.25,2.24a25,25,0,0,1,1.46,3,19.61,19.61,0,0,0,1.73,3.46c1.42,2.22,3.86,3.06,5.6,3.61S280.15,153.24,280.11,153.48Z" stroke="#000" stroke-miterlimit="10" stroke-width="0.5"/>
    <path d="M284.49,163.07c.05.19-1,.68-2.81.54a9.11,9.11,0,0,1-6.13-3.24,9.45,9.45,0,0,1-1.79-3.45c-.33-1.1-.55-2.06-.79-2.83-.44-1.55-1-2.37-.86-2.54s1.14.49,1.93,2.11,1.25,3.92,2.76,5.67a10,10,0,0,0,5.07,3.15C283.41,162.88,284.46,162.82,284.49,163.07Z" stroke="#000" stroke-miterlimit="10" stroke-width="0.5"/>
    <path d="M317.82,173.68c-.08.08-.61-.32-1.53-1.07a25,25,0,0,0-4-2.85,9.77,9.77,0,0,0-3.07-1,10.87,10.87,0,0,0-3.7.16c-2.63.56-5.36,1.94-8.42,3.16a19.33,19.33,0,0,1-4.74,1.32,10.19,10.19,0,0,1-4.71-.51,9.91,9.91,0,0,1-3.51-2.41,17.1,17.1,0,0,1-2.18-2.86c-1.13-1.85-1.87-3.4-2.42-4.45s-.82-1.65-.72-1.72.55.42,1.26,1.39,1.63,2.44,2.84,4.14a11.7,11.7,0,0,0,5.26,4.5,8.89,8.89,0,0,0,4,.34,18.8,18.8,0,0,0,4.35-1.26c2.95-1.17,5.8-2.57,8.72-3.12a12,12,0,0,1,4.23,0,10.27,10.27,0,0,1,3.4,1.38,18.13,18.13,0,0,1,3.87,3.39C317.52,173.05,317.9,173.6,317.82,173.68Z" stroke="#000" stroke-miterlimit="10" stroke-width="0.5"/>
    <path d="M272.12,127.06c-.38.25-3-3-5.86-7.31s-4.87-8-4.49-8.22,3,3,5.85,7.31S272.49,126.81,272.12,127.06Z" stroke="#000" stroke-miterlimit="10" stroke-width="0.5"/>
    <path d="M286.51,122.63c-.36.26-3.47-3.41-6.6-8.43s-5.06-9.43-4.67-9.64,2.95,3.81,6.05,8.77S286.88,122.36,286.51,122.63Z" stroke="#000" stroke-miterlimit="10" stroke-width="0.5"/>
    <path d="M284.56,82.69a8.27,8.27,0,0,1-.26-2l-.1-1.06L284,78.4l-.26-1.48c-.1-.53-.29-1.07-.44-1.66a30,30,0,0,0-3.49-8,30.52,30.52,0,0,0-7.79-8.5,30.15,30.15,0,0,0-28.5-4.14,32,32,0,0,0-3.9,1.73,30.64,30.64,0,0,0-3.67,2.38,34.31,34.31,0,0,0-3.4,2.9,35.22,35.22,0,0,0-2.93,3.48,29.3,29.3,0,0,0-4.27,8.26,32.47,32.47,0,0,0-1.54,9.46,32.46,32.46,0,0,0,1.54,9.45,29.3,29.3,0,0,0,4.27,8.26,35.22,35.22,0,0,0,2.93,3.48,34.31,34.31,0,0,0,3.4,2.9,30.64,30.64,0,0,0,3.67,2.38,32,32,0,0,0,3.9,1.73,30.19,30.19,0,0,0,15.78,1.39A29.87,29.87,0,0,0,272,106.86a30.52,30.52,0,0,0,7.79-8.5,30,30,0,0,0,3.49-8c.15-.59.34-1.13.44-1.66s.18-1,.26-1.48l.23-1.27.1-1.07a8.27,8.27,0,0,1,.26-1.95,8.23,8.23,0,0,1,.06,2V86l-.16,1.3c-.06.47-.12,1-.19,1.52s-.25,1.1-.37,1.7a29.28,29.28,0,0,1-3.33,8.35,31.2,31.2,0,0,1-21,14.89,32.16,32.16,0,0,1-20.66-3.1,32.5,32.5,0,0,1-3.87-2.48,33,33,0,0,1-3.58-3,35.21,35.21,0,0,1-3.11-3.65,30.76,30.76,0,0,1-4.52-8.7,31.28,31.28,0,0,1,0-19.93,30.57,30.57,0,0,1,4.52-8.69,35.33,35.33,0,0,1,3.11-3.66,34.16,34.16,0,0,1,3.58-3A32.5,32.5,0,0,1,238.86,55a32.16,32.16,0,0,1,20.66-3.1,31.2,31.2,0,0,1,21,14.89,29.28,29.28,0,0,1,3.33,8.35c.12.6.3,1.16.37,1.7s.13,1,.19,1.52l.16,1.3v1.09A8.23,8.23,0,0,1,284.56,82.69Z" stroke="#000" stroke-miterlimit="10" stroke-width="0.5"/>
  </g>
</svg>
